<svg width="252" height="73" viewBox="0 0 252 73" fill="none" xmlns="http://www.w3.org/2000/svg">
<path d="M86.8958 16.5361C87.7426 16.6746 90.3551 16.6304 91.2855 16.6284C94.2068 16.6083 97.1283 16.6071 100.05 16.6245C100.256 17.6956 100.173 19.6922 100.169 20.8648L100.184 27.4188C102.391 26.4698 104.299 26.0694 106.711 26.0597C119.723 26.007 123.975 42.7201 115.33 51.0317C109.568 55.3749 103.063 55.2478 97.3063 50.9725C96.9532 51.9042 96.6625 52.6146 96.2351 53.5134C93.1988 53.5823 89.9687 53.5137 86.9008 53.5437C86.7839 51.4462 86.8451 49.0118 86.8451 46.8779L86.8488 35.5292L86.8462 23.6759C86.845 21.3947 86.7888 18.7914 86.8958 16.5361ZM104.067 43.5742C105.321 43.3355 106.349 42.4389 106.756 41.229C107.163 40.019 106.885 38.6839 106.029 37.7367C105.173 36.7893 103.873 36.3773 102.627 36.6586C100.746 37.0834 99.5534 38.937 99.9463 40.8239C100.339 42.7109 102.173 43.9347 104.067 43.5742Z" fill="#414141"/>
<path d="M213.488 16.5381C214.431 16.6859 216.668 16.6164 217.679 16.6284C220.644 16.6639 223.696 16.543 226.653 16.6351C226.809 17.551 226.83 26.9148 226.691 27.9504C232.923 24.2045 242.05 25.7568 243.968 33.6881C244.607 36.3306 244.386 39.7902 244.386 42.5566L244.389 53.5146L231.142 53.5314L231.105 51.6434L231.121 43.5465C231.122 41.9543 231.16 40.5326 231.029 38.8509C230.859 36.6714 229.282 35.7357 227.443 37.0313C227.073 37.3548 226.876 38.0967 226.845 38.5547C226.508 43.4614 226.847 48.6125 226.761 53.5175C222.445 53.6258 217.859 53.4866 213.49 53.5464C213.375 51.4767 213.438 48.9558 213.438 46.8408L213.44 35.2899L213.439 23.5546C213.438 21.3078 213.377 18.7458 213.488 16.5381Z" fill="#414141"/>
<path d="M147.936 26.6035C151.648 26.9326 157.202 26.4961 161.188 26.7023C161.446 31.6996 160.936 36.8654 161.316 41.8715C161.511 44.4493 165.259 44.0861 165.406 42.1389C165.791 37.035 165.405 31.8534 165.632 26.7199C166.82 26.6095 168.315 26.6761 169.526 26.6558C172.576 26.6047 175.778 26.7606 178.814 26.6089C178.886 31.0544 178.834 35.621 178.834 40.0755L178.838 53.5136L169.466 53.5218C169.036 52.5427 168.631 51.5523 168.254 50.5518C168.165 50.6388 168.077 50.7243 167.986 50.8078C165.371 53.2159 162.245 54.3561 158.697 54.1871C150.838 53.8128 147.635 48.6337 147.899 41.2643C148.07 36.5081 147.71 31.4029 147.936 26.6035Z" fill="#414141"/>
<path d="M22.9722 26.0956C23.5788 26.0298 24.1881 25.9936 24.7982 25.9871C28.7792 25.9581 33.5144 26.7474 36.4468 29.6722C40.3731 33.5885 39.7582 39.2613 39.7496 44.3806L39.7619 53.5175L30.2693 53.5239C29.8628 52.5277 29.4669 51.5271 29.0815 50.5223C28.0445 51.77 26.0077 52.9038 24.4783 53.4131C20.7259 54.6473 16.637 54.3448 13.1074 52.5717C9.09905 49.6663 8.28787 44.4773 11.485 40.4596C11.9529 39.8716 13.247 39.0069 13.9479 38.735C17.8715 37.2129 22.6455 37.912 26.8589 37.7556C26.8897 36.4607 26.8129 33.7036 24.3487 34.3582C23.6278 34.5497 23.1329 35.5157 22.8785 36.1996C21.4553 36.1871 11.4812 36.3615 10.9985 36.0046C10.676 34.6359 12.3319 31.3905 13.2313 30.3099C15.6769 27.3713 19.3329 26.4694 22.9722 26.0956ZM22.6857 46.0637C23.7072 46.4083 24.4393 46.5588 25.5009 46.1516C26.9778 45.2295 26.9374 44.6446 27.1328 42.9754C25.8287 42.9781 24.4885 42.9646 23.1877 42.994C21.7393 43.8658 21.4516 44.7838 22.6857 46.0637Z" fill="#414141"/>
<path d="M194.835 26.0751C197.968 25.7319 203.617 26.6364 206.187 28.6331C208.826 30.684 209.447 32.4868 209.943 35.5403C209.303 35.5891 208.639 35.5999 207.996 35.587C204.648 35.5199 201.227 35.6852 197.888 35.5485C197.46 34.5717 196.964 33.6684 195.747 33.6291C195.039 33.5827 194.179 34.2268 194.273 34.9922C194.47 36.3959 196.494 36.6166 197.608 36.7127C202.782 37.1594 210.018 38.2348 210.326 44.8996C210.668 52.2479 203.068 53.9231 197.28 54.1821C193.326 54.3642 187.727 53.6294 184.646 50.9139C182.561 49.077 182.004 47.1571 181.823 44.5306C185.809 44.6831 190.177 44.4955 194.237 44.5904C194.514 45.4943 194.638 45.6239 195.22 46.3574C196.282 46.5227 197.521 46.5887 197.926 45.3489C197.672 43.1171 192.828 43.2193 191.061 42.9291C186.677 42.2087 182.348 40.7512 182.074 35.4201C181.689 27.9154 188.913 26.4186 194.835 26.0751Z" fill="#414141"/>
<path d="M72.1281 29.8899C72.2634 29.7329 72.4018 29.5787 72.5433 29.4271C75.4752 26.2734 79.6079 26.7454 83.4557 26.6123C83.5471 30.5168 83.4892 34.6265 83.4892 38.5399C80.5863 38.5139 75.0846 37.7615 74.9038 41.9477C74.6291 44.5929 74.8361 50.5988 74.8333 53.5134C70.6176 53.6472 65.7198 53.5233 61.4399 53.5352C61.2075 46.5339 61.5308 39.3925 61.3907 32.3762C61.3545 30.5653 61.3219 28.4499 61.4568 26.6549C63.7025 26.6662 68.4818 26.4736 70.7512 26.8409C71.1354 26.9031 71.9481 29.3209 72.1281 29.8899Z" fill="#414141"/>
<path d="M133.537 29.9478C133.728 29.6929 133.934 29.4507 134.156 29.223C136.946 26.3751 141.318 26.6574 144.941 26.623C144.999 30.6009 144.897 34.5594 144.994 38.5572C143.151 38.5284 139.662 38.2801 138.111 39.1067C136.958 39.7216 136.648 40.6049 136.312 41.7497C136.052 45.0179 136.217 50.1103 136.236 53.5218L122.89 53.529C122.624 47.4754 122.991 41.1591 122.829 35.0768C122.796 33.8513 122.707 27.5538 122.992 26.6734C125.094 26.6617 130.61 26.5155 132.427 26.8057C132.843 27.836 133.214 28.8845 133.537 29.9478Z" fill="#414141"/>
<path d="M43.7978 26.6799C48.1255 26.5415 52.767 26.8215 57.0494 26.6035C57.2071 35.261 57.1678 44.8389 57.0633 53.5116C52.6686 53.5783 48.1271 53.5232 43.7204 53.5275C43.5499 47.6036 43.7428 41.4267 43.6636 35.4709C43.6468 34.2112 43.591 27.6989 43.7978 26.6799Z" fill="#414141"/>
<path d="M50.1031 10.3555C56.2933 10.4279 59.88 15.8704 56.4301 21.5047C55.3484 23.2712 53.0018 24.0114 51.01 24.3052C44.4944 24.4784 40.6228 18.7381 44.4236 12.9269C45.5475 11.2086 48.1045 10.5554 50.1031 10.3555Z" fill="#414141"/>
</svg>
