<svg width="172" height="172" viewBox="0 0 172 172" fill="none" xmlns="http://www.w3.org/2000/svg">
<path d="M0.0592088 50.2334C3.80222 51.5483 9.96999 52.8789 14.0722 53.9441L41.115 61.0319C46.9259 62.5209 52.7102 63.9556 58.4875 65.573C69.244 68.585 75.1146 81.4121 71.6407 91.7864C70.4538 95.3127 68.3746 98.4718 65.6053 100.956C61.0253 105.089 50.6219 109.671 44.9424 112.826C40.5721 115.255 35.7726 117.98 31.3043 120.19C30.5776 116.685 31.2042 101.478 31.2155 97.0615L73.0904 85.0884C69.5561 84.949 66.0799 84.217 62.5843 83.6644L43.7188 80.61L18.4165 76.4995C12.2153 75.5168 6.27868 74.7464 0.125909 73.4412C-0.117867 66.1819 0.0692133 57.5777 0.0592088 50.2334Z" fill="#171617"/>
<path d="M83.248 98.5017C86.143 98.3963 87.9112 98.4627 90.8118 99.2907C94.5205 100.323 97.8833 102.333 100.548 105.111C104.17 108.955 107.992 117.02 110.577 121.871C113.767 127.874 116.995 133.855 120.263 139.815L96.6161 139.85C96.422 136.259 94.915 133.018 94.1386 129.718C92.1467 121.252 86.4578 106.365 85.8145 98.3359C83.4908 108.206 82.7989 115.009 81.1208 124.714C78.3005 139.821 76.2449 155.677 73.5791 170.888C68.4524 171.482 55.9408 171.127 50.3359 171.121C51.6535 166.716 52.9241 161.108 54.1036 156.545L61.5813 127.831C65.5471 112.688 65.3937 102.355 83.248 98.5017Z" fill="#171617"/>
<path d="M98.3789 85.7729C100.342 85.243 100.657 85.1126 102.779 84.9639C102.859 85.1743 103.307 86.3208 103.326 86.4632C125.351 91.15 148.886 93.6598 171.158 97.6496C171.11 105.343 171.102 113.036 171.136 120.73C158.55 117.735 146.011 114.552 133.521 111.181C126.441 109.344 119.194 107.629 112.21 105.503C103.008 102.702 99.5294 94.8036 98.3976 86.1741L98.3789 85.7729Z" fill="#171617"/>
<path d="M98.3789 85.7729C100.342 85.243 100.657 85.1126 102.779 84.9639C102.859 85.1743 103.307 86.3208 103.326 86.4632C101.908 86.5469 99.8529 86.3255 98.3976 86.1741L98.3789 85.7729Z" fill="#CDCED0"/>
<path d="M97.6996 0.126389C105.082 -0.169744 113.188 0.207093 120.777 0C116.165 19.8523 110.41 39.9663 105.216 59.6918C104.719 61.576 103.445 63.5049 102.269 65.0402C96.9095 70.7541 93.6498 71.6125 86.1641 72.639C86.5092 67.9469 87.2949 64.4876 88.0189 59.8799L91.9763 35.1428C92.9918 28.7332 94.0446 22.4668 95.1708 16.0809C96.0972 10.8262 96.3353 5.34874 97.6996 0.126389Z" fill="#171617"/>
<path d="M70.3226 31.2402L74.5352 31.3089C76.4527 42.1485 81.1075 53.758 83.6066 64.5612C84.1878 67.0737 85.0016 70.3055 85.8209 72.7125C79.5111 71.8588 77.5275 71.536 72.2302 67.6943C66.8664 62.7087 63.8004 55.0596 60.2945 48.6277C57.2688 43.0765 53.6678 37.0328 51.0977 31.3133L70.3226 31.2402Z" fill="#171617"/>
<path d="M98.3789 85.7726C98.7357 82.4014 99.5228 79.0039 101.062 75.9659C102.334 73.4557 104.058 71.4038 106.247 69.6484C110.309 66.3902 135.001 52.9689 139.755 51.3691L139.799 74.3758C132.5 76.2967 125.227 78.3129 117.981 80.4245C113.284 81.7568 107.24 83.2912 102.779 84.9636C100.657 85.1123 100.342 85.2427 98.3789 85.7726Z" fill="#171617"/>
</svg>
