<svg preserveAspectRatio="none" width="100%" height="100%" overflow="visible" style="display: block;" viewBox="0 0 109.845 162.734" fill="none" xmlns="http://www.w3.org/2000/svg">
<g id="Group 2085666003">
<path id="Vector" d="M91.3216 53.798L91.5962 53.8028C92.0972 53.9287 92.8009 53.9009 93.3361 53.9041L93.541 53.8482C94.1149 53.8827 94.6909 53.9005 95.2658 53.9015L95.5394 53.848C95.9448 53.9111 96.863 53.9131 97.2621 53.848L97.5935 53.9268C98.0655 53.8694 98.7456 53.8914 99.2787 53.8495L99.5447 53.9246C100.012 53.8706 100.8 53.8805 101.325 53.8504L101.598 53.9154C101.965 53.9038 103.303 53.8959 103.576 53.8284L103.655 53.7424L103.851 53.798C104.214 53.9203 105.219 53.9703 105.545 53.8122L105.838 53.804C106.256 53.975 106.867 53.8645 107.382 53.9199L107.643 53.9118C108.095 53.8999 109.222 53.9439 109.54 53.9145L109.832 53.9617C109.913 57.0027 109.614 59.8668 109.139 62.8852C105.142 88.2969 82.8433 108.055 57.1068 108.818C55.1885 108.876 53.2406 108.821 51.314 108.835L51.0088 108.959C50.6363 108.737 49.6051 108.839 49.126 108.879L48.9348 108.818C48.302 108.902 47.6569 108.8 46.9667 108.887L46.7773 108.923C46.3695 108.844 45.3932 108.825 44.9697 108.864C44.8843 108.883 44.8299 108.86 44.7327 108.841C44.1889 108.888 43.6276 108.843 43.0811 108.815L42.7403 108.875C42.4034 108.825 41.3645 108.836 41.0105 108.866C40.9198 108.889 40.8639 108.868 40.7618 108.856C40.2046 108.85 39.6477 108.835 39.0911 108.81L38.7761 108.855C38.174 108.836 37.6 108.814 36.9976 108.83L36.6994 108.926C36.3339 108.824 35.2485 108.816 34.8442 108.888L34.6227 108.918C34.3316 108.82 33.1764 108.834 32.7973 108.83L32.5593 108.796C32.0814 108.875 31.3058 108.861 30.7955 108.867L30.5762 108.851C29.9992 108.852 29.4223 108.847 28.8454 108.836L28.6039 108.776C28.1075 108.881 27.4117 108.839 26.8864 108.83L26.5943 108.888C26.1698 108.818 25.256 108.802 24.8243 108.855L24.7608 108.929L24.608 108.818C24.2801 108.832 23.0715 108.815 22.8716 108.904L22.5809 108.903C22.2709 108.803 20.8962 108.809 20.5622 108.876C20.4534 108.891 20.3951 108.869 20.2806 108.851C19.711 108.846 19.1716 108.84 18.603 108.807L18.2998 108.849C17.7494 108.859 17.1741 108.844 16.6213 108.837L16.3895 108.78C15.8803 108.892 15.2057 108.843 14.6686 108.829L14.3327 108.887C13.9392 108.817 13.0394 108.816 12.6409 108.889L12.3675 108.913C12.0689 108.826 10.9528 108.839 10.5987 108.843L10.3683 108.796C9.7538 108.907 9.00229 108.876 8.3677 108.873L8.1787 108.811C7.61973 108.92 7.00145 108.809 6.36836 108.87L6.12122 108.876C5.70213 108.873 4.58956 108.774 4.33201 108.946L4.0838 108.931C3.8093 108.844 2.72666 108.863 2.38899 108.873L2.16995 108.852C1.43582 108.894 1.16819 108.905 0.446712 108.81L0.0388848 108.932C-0.602676 94.4138 6.75956 78.5383 17.3127 68.7728C29.0069 57.9512 42.9214 53.3678 58.6919 53.9129L58.8421 53.9764C59.3017 53.8633 60.3751 53.8708 60.8711 53.8665L61.117 53.8282C61.4871 53.8916 62.6427 53.9349 62.9929 53.845L63.0931 53.8009L63.1379 53.8622C63.7191 53.8639 64.3 53.884 64.8799 53.9225L65.1731 53.8403C65.7133 53.8643 66.4503 53.9296 66.961 53.8213L67.081 53.7961L67.116 53.8288C67.695 53.8716 68.2749 53.9016 68.8553 53.9189L69.1 53.9778C69.7231 53.8694 70.2564 53.9336 70.9272 53.8239L71.0319 53.8052L71.0652 53.8439C71.7393 53.8737 72.4137 53.8952 73.0882 53.9079L73.2287 53.9926C73.7135 53.8566 74.5219 53.8783 75.0527 53.8702L75.2521 53.8231C75.6052 53.9035 76.8249 53.9531 77.1325 53.8543L77.4049 53.917C78.0275 53.8889 78.5022 53.8735 79.1231 53.9006L79.3061 53.96C79.7111 53.8821 80.6894 53.8752 81.1463 53.8576L81.3137 53.8495C81.702 53.8807 82.7575 53.964 83.0707 53.798C83.2809 53.7765 83.2134 53.743 83.356 53.8216C83.975 53.9082 84.4555 53.8827 85.0798 53.8691L85.3351 53.9217C85.9712 53.8807 86.4989 53.836 87.1297 53.9772L87.3281 53.9049C88.0404 53.8879 88.6314 53.8701 89.3469 53.924L89.6172 53.8839C90.1235 53.8931 90.8658 53.9498 91.3216 53.798ZM36.6648 100.371C36.7888 100.086 36.9486 99.8238 36.8868 99.5298L36.8084 99.4526C36.6951 99.7444 36.4228 100.15 36.6648 100.371Z" fill="var(--fill-0, black)"/>
<path id="Vector_2" d="M54.7653 55.4678C55.0525 55.8038 54.9478 60.1007 54.9499 60.8629L55.034 69.0358L55.2048 97.8418C55.1949 101.303 55.0967 104.844 55.1026 108.289L55.0918 108.39L54.9429 108.44C54.7654 108.179 54.8017 107.535 54.7968 107.174C54.7168 95.8185 54.6996 84.4643 54.7453 73.1093L54.7056 61.36C54.7031 59.9273 54.62 56.7655 54.7653 55.4678Z" fill="var(--fill-0, #3F4040)"/>
<path id="Vector_3" d="M77.4748 56.8475L77.6372 56.983C77.7324 57.4718 77.852 57.9607 78.0224 58.4289L77.825 58.3659C77.4275 57.9405 77.484 57.4318 77.4748 56.8475Z" fill="var(--fill-0, #1A1718)"/>
<path id="Vector_4" d="M57.8874 87.8926C57.9631 88.0524 57.933 87.972 57.9171 88.1779C57.6336 88.4086 57.3467 88.6339 57.0564 88.8548L57.0254 88.6382C57.1731 88.3614 57.6153 88.09 57.8874 87.8926Z" fill="var(--fill-0, #1A1718)"/>
<path id="Vector_5" d="M52.701 73.2529L53.0373 73.3412C53.3503 73.6037 53.3643 73.7973 53.4837 74.1912C53.2096 74.0568 52.8956 73.5297 52.701 73.2529Z" fill="var(--fill-0, #1A1718)"/>
<path id="Vector_6" d="M36.8091 99.4541L36.8875 99.5313C36.9493 99.8253 36.7896 100.087 36.6656 100.372C36.4236 100.151 36.6958 99.7459 36.8091 99.4541Z" fill="var(--fill-0, #1A1718)" fill-opacity="0.988235"/>
<path id="Vector_7" d="M73.0078 68.4277L73.3531 68.3682L73.4825 68.5216L73.1359 68.5818L73.0078 68.4277Z" fill="var(--fill-0, #1A1718)"/>
<path id="Vector_8" d="M77.2934 121.761C84.965 121.434 91.4589 127.367 91.8247 135.037C92.1905 142.708 86.2908 149.232 78.6229 149.637C70.8997 150.046 64.3182 144.093 63.9499 136.367C63.5814 128.641 69.5665 122.089 77.2934 121.761Z" fill="var(--fill-0, black)"/>
<path id="Vector_9" d="M30.6507 13.0882C38.3384 12.4793 45.0622 18.2229 45.6628 25.912C46.2633 33.6011 40.513 40.3193 32.824 40.9117C25.1467 41.5032 18.4416 35.763 17.8419 28.0857C17.2423 20.4082 22.9747 13.6963 30.6507 13.0882Z" fill="var(--fill-0, black)"/>
<path id="Vector_10" d="M107.381 53.9199C107.24 52.3871 107.28 50.7976 107.168 49.2722C107.069 47.9352 106.849 46.3088 106.625 44.9929C104.585 33.0982 98.4028 22.3088 89.1736 14.5342C81.4836 8.06207 72.0597 3.99724 62.0759 2.84658C61.3693 2.76891 55.4588 2.48087 55.4258 2.46575C56.2068 1.89471 62.4813 2.5712 63.671 2.75475C77.2677 4.75879 89.5039 12.102 97.6701 23.1577C103.53 31.1053 106.955 40.5848 107.527 50.443C107.582 51.4917 107.686 52.8854 107.643 53.9117L107.381 53.9199Z" fill="var(--fill-0, black)" fill-opacity="0.913725"/>
<path id="Vector_11" d="M2.1699 108.853L2.38894 108.873C2.72029 119.897 5.60286 129.844 12.1504 138.841C19.838 149.582 31.3931 156.919 44.3823 159.309C47.7717 159.916 51.0709 160.262 54.4934 160.191C54.6449 160.188 54.7165 160.272 54.7802 160.383C54.3812 160.533 54.0701 160.51 53.6422 160.507C39.9548 160.45 26.8481 154.968 17.1957 145.263C7.55114 135.603 2.14513 122.504 2.1699 108.853Z" fill="var(--fill-0, black)" fill-opacity="0.921569"/>
<path id="Vector_12" d="M0.0388778 108.933L0.446705 108.811C0.307473 109.318 0.372904 110.237 0.38406 110.781C0.562015 119.456 3.10563 127.982 7.39211 135.498C14.4365 147.801 26.0817 156.8 39.7633 160.513C41.8759 161.089 44.1119 161.482 46.2717 161.83C49.0656 162.279 51.8187 162.201 54.6351 162.582L54.6719 162.661C54.2855 162.848 52.5212 162.621 51.9795 162.599C46.3189 162.374 40.8903 161.419 35.5468 159.493C34.5744 159.144 33.0375 158.596 32.1184 158.108C31.7727 157.776 31.1883 157.496 30.7022 157.471C26.6916 155.803 20.9636 151.722 17.7328 148.772C8.58566 140.525 2.55299 129.381 0.647077 117.212C0.170277 114.065 0.183259 112.068 0.0388778 108.933Z" fill="var(--fill-0, black)" fill-opacity="0.905882"/>
<path id="Vector_13" d="M109.539 53.9153C109.522 52.7134 109.534 51.3071 109.448 50.1295C108.539 36.8845 102.748 24.4482 93.1958 15.2291C83.2833 5.61464 70.3742 0.623684 56.7307 0.263877C56.3948 0.254973 55.5818 0.341654 55.4434 0.0712089C56.4184 -0.131545 59.3511 0.155421 60.3972 0.23073C69.2865 0.871388 77.9652 3.83255 85.4458 8.73125C97.3781 16.4681 105.735 28.6417 108.668 42.5577C109.187 45.0722 109.527 47.7249 109.764 50.2894C109.864 51.3651 109.712 52.9142 109.831 53.9625L109.539 53.9153Z" fill="var(--fill-0, black)" fill-opacity="0.905882"/>
<path id="Vector_14" d="M4.08379 108.932L4.332 108.947C4.46415 109.982 4.36354 111.42 4.44517 112.504C4.72825 116.261 5.37013 119.766 6.47487 123.358C11.5444 139.958 24.9469 152.684 41.7862 156.886C44.7773 157.616 47.8938 158.098 50.9803 158.259C51.638 158.293 54.3731 158.145 54.6766 158.421C54.4962 158.574 54.0633 158.569 53.8165 158.571C40.709 158.686 28.1014 153.546 18.8096 144.3C9.08616 134.683 4.15308 122.526 4.08379 108.932Z" fill="var(--fill-0, black)" fill-opacity="0.898039"/>
<path id="Vector_15" d="M57.6582 4.08105C59.4351 4.18887 61.2087 4.25388 62.97 4.50405C74.8316 6.13294 85.7058 11.9907 93.5931 20.9998C101.527 30.0825 105.881 41.7448 105.839 53.8052L105.546 53.8135C105.58 41.9474 101.34 30.4659 93.6017 21.4709C85.9611 12.5882 75.4028 6.72318 63.8251 4.93037C61.7354 4.59985 59.8468 4.51188 57.7359 4.37102L57.6582 4.08105Z" fill="var(--fill-0, black)" fill-opacity="0.921569"/>
<path id="Vector_16" d="M103.576 53.8298C103.527 53.3185 103.559 52.7147 103.539 52.1906C103.311 46.4611 102.116 40.8126 99.9271 35.5178C94.0553 21.3148 81.6317 10.8636 66.6346 7.51027C64.9067 7.12247 63.1585 6.83078 61.3981 6.63682C60.0991 6.49972 56.3034 6.50144 55.5234 6.17886C55.7514 6.22767 55.6505 6.20696 55.9283 6.10237L55.756 6.09615C56.0164 6.06568 56.725 6.12801 57.0198 6.14625C57.3818 6.3417 59.3467 6.25341 59.8938 6.24237C61.7027 6.23925 64.4641 6.71546 66.2416 7.10187C75.2673 9.06236 83.5346 13.5891 90.0478 20.1378C97.5318 27.6652 102.267 37.4903 103.492 48.0339C103.696 49.7566 103.858 51.1033 103.859 52.8166C103.859 53.1442 103.857 53.4718 103.852 53.7993L103.656 53.7438L103.576 53.8298Z" fill="var(--fill-0, black)" fill-opacity="0.894118"/>
<path id="Vector_17" d="M8.17864 108.811L8.36765 108.873C8.578 118.426 11.2301 127.12 16.7161 134.963C23.613 144.808 34.1572 151.488 46.0038 153.519C47.8712 153.854 49.6503 154.047 51.5408 154.191C52.4204 154.257 53.935 154.152 54.7058 154.289L54.7877 154.418C54.1538 154.788 49.7249 154.336 48.7991 154.235C36.8847 152.94 25.9642 146.99 18.4158 137.68C12.6774 130.498 9.34077 122.752 8.40144 113.542C8.26714 112.224 8.03845 110.071 8.17864 108.811Z" fill="var(--fill-0, black)" fill-opacity="0.898039"/>
<path id="Vector_18" d="M101.325 53.8511C101.319 52.4637 101.336 50.9124 101.213 49.5442C100.259 38.997 95.6336 29.1194 88.1422 21.6347C81.3318 14.8707 72.5503 10.443 63.063 8.98919C61.6415 8.77818 60.2399 8.66446 58.8198 8.5353C58.0996 8.46976 55.9067 8.60203 55.4043 8.44873C55.6487 7.96008 58.1554 8.21422 58.674 8.24254C65.0436 8.58508 71.2703 10.2606 76.9519 13.1608C87.6176 18.6318 95.6991 28.0845 99.447 39.4717C100.635 43.1388 102.036 50.094 101.598 53.9162L101.325 53.8511Z" fill="var(--fill-0, black)" fill-opacity="0.913725"/>
<path id="Vector_19" d="M10.3688 108.797L10.5992 108.843C10.6239 110.155 10.6143 111.91 10.7243 113.191C11.221 118.401 12.6839 123.472 15.0381 128.146C20.8785 139.957 31.8022 148.444 44.6887 151.185C46.3242 151.531 47.7078 151.75 49.3282 151.924C50.0486 152.003 54.3015 152.208 54.6961 152.338L54.6602 152.419C53.9224 152.653 49.1818 152.218 48.2077 152.093C36.8338 150.651 26.4956 144.758 19.4594 135.705C14.7187 129.562 11.7785 122.883 10.671 115.187C10.4321 113.528 10.166 110.39 10.3688 108.797Z" fill="var(--fill-0, black)" fill-opacity="0.901961"/>
<path id="Vector_20" d="M99.2782 53.85L99.2889 53.6935C99.3983 51.9304 99.2063 49.8069 98.9843 48.057C97.8794 39.4739 94.212 31.4235 88.4593 24.9586C80.8047 16.3966 70.0656 11.2217 58.5998 10.5692C57.9141 10.5301 55.8935 10.5718 55.4375 10.4342L55.4468 10.3009C55.9617 10.1295 57.8832 10.228 58.5186 10.265C64.4832 10.5914 70.3167 12.143 75.6554 14.8227C85.9761 19.9725 93.8215 29.0223 97.4536 39.9707C98.9017 44.3379 99.7663 49.3172 99.5442 53.9251L99.2782 53.85Z" fill="var(--fill-0, black)" fill-opacity="0.909804"/>
<path id="Vector_21" d="M12.3667 108.913L12.6401 108.889C12.7688 110.411 12.6417 111.707 12.8429 113.435C13.7021 121.221 16.7734 128.597 21.6935 134.691C28.0865 142.682 37.246 147.983 47.3596 149.542C48.7183 149.749 50.0939 149.926 51.4679 149.991C52.4721 150.037 53.6921 149.914 54.6589 150.015L54.6917 150.113C54.2867 150.342 53.641 150.301 53.1782 150.299C41.9701 150.224 31.8089 145.722 23.9897 137.737C16.4544 130.046 12.2749 119.681 12.3667 108.913Z" fill="var(--fill-0, black)" fill-opacity="0.878431"/>
<path id="Vector_22" d="M97.262 53.8482C97.5978 43.7872 93.0765 32.9177 86.2275 25.6056C78.9036 17.7663 68.7859 13.1286 58.0667 12.6973C57.4684 12.6784 55.7817 12.7044 55.3631 12.4318L55.4521 12.3031C56.4732 12.2387 57.7942 12.3885 58.8556 12.4464C67.9517 12.9648 76.6116 16.5167 83.4526 22.5349C91.8483 29.8941 96.9274 40.3251 97.542 51.4738C97.5849 52.2908 97.6021 53.1089 97.5935 53.927L97.262 53.8482Z" fill="var(--fill-0, black)" fill-opacity="0.921569"/>
<path id="Vector_23" d="M95.265 53.9018C95.4495 50.0482 94.4122 44.7053 93.1733 41.0927C88.7946 28.1148 77.9159 18.3952 64.5296 15.5016C62.7491 15.1301 61.0572 14.8625 59.2454 14.7254C58.3977 14.6613 56.0254 14.8283 55.4121 14.5279L55.5643 14.3944C56.5722 14.2485 60.1463 14.486 61.275 14.6265C71.5389 15.9625 80.8666 21.2802 87.2446 29.4325C91.7573 35.2248 94.5581 42.1646 95.3304 49.4665C95.4698 50.7488 95.7026 52.5656 95.5385 53.8483L95.265 53.9018Z" fill="var(--fill-0, black)" fill-opacity="0.909804"/>
<path id="Vector_24" d="M93.3356 53.9053C93.1683 52.0359 93.0213 49.6529 92.7295 47.8361C91.3555 39.3053 86.9296 31.1493 80.2662 25.5703C74.4739 20.6354 67.3084 17.5946 59.735 16.8574C59.148 16.8036 55.573 16.7794 55.3965 16.6795L55.4077 16.5869C56.0307 16.3412 57.0612 16.42 57.7482 16.4403C62.2357 16.6082 66.6545 17.597 70.7857 19.3574C83.805 25.0361 92.3777 36.9085 93.401 51.0922C93.4654 51.985 93.6381 52.9589 93.5405 53.8494L93.3356 53.9053Z" fill="var(--fill-0, black)" fill-opacity="0.921569"/>
<path id="Vector_25" d="M16.3895 108.781L16.6213 108.837C16.8005 116.015 18.5753 122.577 22.4104 128.68C27.8855 137.36 36.7202 143.375 46.8023 145.287C48.3802 145.587 49.8904 145.764 51.4842 145.906C52.3669 145.984 53.9652 145.906 54.7187 146.078L54.6372 146.189C54.1415 146.311 53.6982 146.302 53.1906 146.285C42.8943 145.947 33.699 142.058 26.6144 134.538C21.1263 128.782 17.6464 121.406 16.6941 113.509C16.4817 111.789 16.3375 110.504 16.3895 108.781Z" fill="var(--fill-0, black)" fill-opacity="0.882353"/>
<path id="Vector_26" d="M6.12102 108.876L6.36816 108.871C6.31882 121.588 11.3975 133.786 20.4557 142.711C25 147.224 31.5755 151.513 37.6842 153.521L37.114 153.62C36.56 153.551 34.0838 152.426 33.4649 152.132C27.2767 149.2 21.826 145.028 17.4012 139.782C11.4754 132.896 7.67488 124.438 6.46041 115.434C6.18431 113.401 5.94435 110.937 6.12102 108.876Z" fill="var(--fill-0, black)" fill-opacity="0.870588"/>
<path id="Vector_27" d="M91.3224 53.7984C91.5541 45.1379 87.5498 35.4592 81.6191 29.3691C74.8693 22.4393 65.6835 18.4879 56.0601 18.5993C55.8051 18.6023 55.5828 18.5289 55.3848 18.3727C55.9479 17.9865 61.6467 18.6579 62.6192 18.8396C71.9423 20.5552 80.1892 25.9347 85.5182 33.7757C88.7737 38.5313 90.8225 44.1976 91.4018 49.9138C91.5251 51.1349 91.7407 52.5787 91.597 53.8032L91.3224 53.7984Z" fill="var(--fill-0, black)" fill-opacity="0.921569"/>
<path id="Vector_28" d="M18.2998 108.849L18.6029 108.808C18.5441 118.135 22.2175 127.098 28.8047 133.702C35.5839 140.477 44.9555 144.427 54.5829 143.998C54.716 144.13 54.7028 144.076 54.7473 144.233C53.625 144.248 51.966 144.165 50.9063 144.248C42.5108 143.725 34.4498 139.782 28.552 133.84C21.9319 127.215 18.2398 118.215 18.2998 108.849Z" fill="var(--fill-0, black)" fill-opacity="0.898039"/>
<path id="Vector_29" d="M20.2813 108.852C20.3957 108.87 20.4541 108.891 20.5628 108.876C20.6514 109.403 20.6139 110.181 20.6464 110.745C20.9457 115.946 22.375 120.852 24.969 125.381C29.7355 133.737 37.9047 139.601 47.3451 141.446C48.7946 141.726 50.1527 141.896 51.6198 142.012C52.3594 142.07 54.0643 141.979 54.6688 142.143C54.3457 142.352 53.8869 142.365 53.5081 142.361C34.8477 142.17 20.4828 127.314 20.2813 108.852Z" fill="var(--fill-0, black)" fill-opacity="0.878431"/>
<path id="Vector_30" d="M89.346 53.9251C89.4586 36.3149 75.5408 21.2401 57.736 20.6732C57.1153 20.6535 55.9513 20.7538 55.3994 20.5869L55.373 20.4866C55.7247 20.3577 57.0113 20.3931 57.4278 20.3969C61.8356 20.4333 66.1821 21.4335 70.1625 23.3275C78.2342 27.012 84.4975 33.7723 87.5557 42.1021C88.8397 45.6556 89.7182 50.0962 89.6163 53.885L89.346 53.9251Z" fill="var(--fill-0, black)" fill-opacity="0.921569"/>
<path id="Vector_31" d="M87.1299 53.9767C87.0066 53.0962 87.0388 52.1537 86.9787 51.2602C86.9058 50.1851 86.761 49.1071 86.5711 48.0471C85.2024 40.4493 81.005 33.6525 74.8251 29.0272C69.8636 25.2873 64.2109 23.2637 58.0237 22.8123C57.284 22.7583 56.0898 22.8169 55.4199 22.6268L55.4474 22.4867C56.2652 22.3314 58.368 22.5382 59.2571 22.6329C64.7031 23.2135 69.2457 24.8447 73.7857 27.9264C80.5663 32.5293 85.2474 39.6321 86.8028 47.6791C87.1675 49.6085 87.4657 51.9316 87.3284 53.9044L87.1299 53.9767Z" fill="var(--fill-0, black)" fill-opacity="0.913725"/>
<path id="Vector_32" d="M85.0789 53.8692C84.9674 45.8763 82.2675 38.7265 76.4801 33.09C72.609 29.2819 67.7433 26.6419 62.4408 25.4723C60.1697 24.966 57.8794 24.7669 55.5707 24.6907C55.4141 24.6855 55.4085 24.636 55.3672 24.5187C56.0158 24.2726 57.2719 24.5069 57.9977 24.5584C61.8628 24.8327 64.8918 25.574 68.4533 27.1809C75.3713 30.3643 80.7647 36.1347 83.4742 43.2522C84.7496 46.642 85.4705 50.2937 85.3342 53.9218L85.0789 53.8692Z" fill="var(--fill-0, black)" fill-opacity="0.917647"/>
<path id="Vector_33" d="M24.6078 108.818L24.7607 108.93L24.8242 108.856C24.9133 109.621 24.8701 110.552 24.9323 111.335C25.0298 112.563 25.2071 113.844 25.4613 115.047C27.9191 126.346 36.8668 135.098 48.2167 137.303C49.193 137.486 50.1777 137.621 51.1672 137.706C51.8033 137.755 54.3537 137.698 54.6599 137.898C54.378 138.129 52.8655 138.048 52.4591 138.037C36.9461 137.646 24.2794 124.222 24.6078 108.818Z" fill="var(--fill-0, black)" fill-opacity="0.905882"/>
<path id="Vector_34" d="M14.332 108.887L14.668 108.829C14.4422 118.892 18.6943 128.989 25.6643 136.168C29.3729 139.987 32.6356 142.087 37.2939 144.458C37.4161 144.68 37.4076 144.708 37.5883 144.885C33.8823 143.432 28.9507 139.886 26.1726 137.098C18.3762 129.273 14.4337 119.867 14.332 108.887Z" fill="var(--fill-0, black)" fill-opacity="0.870588"/>
<path id="Vector_35" d="M83.0699 53.7982C83.1278 46.6731 80.3432 39.819 75.3312 34.7543C71.6428 31.0519 66.9649 28.4921 61.8585 27.3818C60.0049 26.9919 57.7967 26.7496 55.9075 26.71C55.6736 26.7052 55.3966 26.6923 55.3555 26.5006C55.9936 26.2794 57.2371 26.4819 57.9404 26.5355C61.6896 26.8217 64.9202 27.6644 68.3164 29.322C74.7489 32.497 79.6535 38.102 81.9468 44.8995C82.7063 47.1325 83.6052 51.5573 83.3553 53.8218C83.2126 53.7433 83.2802 53.7768 83.0699 53.7982Z" fill="var(--fill-0, black)" fill-opacity="0.898039"/>
<path id="Vector_36" d="M26.595 108.887L26.8871 108.829C26.6434 115.471 29.5112 122.42 34.0532 127.261C38.82 132.343 45.2247 135.411 52.2195 135.764C52.8513 135.795 54.0564 135.721 54.5798 135.836L54.6453 135.953C54.2955 136.12 53.6922 136.074 53.2776 136.084C50.3826 136.145 47.3445 135.521 44.6152 134.555C37.8394 132.117 32.2928 127.114 29.171 120.624C27.7478 117.64 26.1881 112.158 26.595 108.887Z" fill="var(--fill-0, black)" fill-opacity="0.905882"/>
<path id="Vector_37" d="M28.6046 108.776L28.8462 108.836L28.8515 108.914C29.0633 111.772 29.3736 114.235 30.2984 116.962C33.2181 125.41 40.4497 131.639 49.2365 133.274C50.4834 133.503 51.7435 133.654 53.0093 133.726C53.4267 133.752 54.5186 133.724 54.7672 133.938C54.4636 134.082 54.1518 134.077 53.8166 134.073C47.0279 134.011 40.5424 131.253 35.7888 126.405C31.2786 121.803 28.5413 115.227 28.6046 108.776Z" fill="var(--fill-0, black)" fill-opacity="0.886275"/>
<path id="Vector_38" d="M81.1458 53.8578C80.7714 52.1436 80.7521 50.0999 80.3209 48.1263C78.9192 41.8252 75.0721 36.3389 69.6261 32.8741C66.4223 30.7924 62.7744 29.4922 58.9762 29.0784C58.0846 28.987 56.0816 29.0576 55.4512 28.9022L55.4862 28.7919C56.1007 28.64 57.1481 28.6903 57.8086 28.7195C61.8317 28.913 65.7409 30.1193 69.1737 32.2267C74.8729 35.6414 78.9616 41.2025 80.5215 47.661C80.8508 48.9999 81.3871 52.5085 81.3131 53.8496L81.1458 53.8578Z" fill="var(--fill-0, black)" fill-opacity="0.92549"/>
<path id="Vector_39" d="M24.6378 119.492C25.2494 120.884 25.776 122.235 26.5068 123.589C31.5845 132.995 41.5819 139.504 52.3334 139.734C52.7342 139.743 54.4383 139.647 54.6529 139.915C54.3541 140.185 53.2984 140.097 52.881 140.092C41.3992 139.936 30.7096 132.926 25.6992 122.643C25.2604 121.743 24.8759 120.83 24.498 119.901L24.6378 119.492Z" fill="var(--fill-0, black)" fill-opacity="0.866667"/>
<path id="Vector_40" d="M30.5761 108.851L30.7955 108.868C31.1745 112.701 31.4863 115.446 33.2538 118.968C36.3773 125.293 42.2387 129.828 49.1451 131.263C50.1921 131.477 51.1958 131.61 52.2565 131.723C53.0376 131.806 54.0202 131.679 54.7194 131.911L54.6399 132.03C54.4494 132.06 54.2635 132.081 54.0705 132.082C47.9293 132.113 42.0199 129.739 37.6068 125.469C33.126 121.099 30.5921 115.11 30.5761 108.851Z" fill="var(--fill-0, black)" fill-opacity="0.898039"/>
<path id="Vector_41" d="M79.1236 53.9006C78.7772 47.1855 76.5675 41.3115 71.4914 36.7512C68.304 33.8826 64.3769 31.9643 60.1551 31.2139C58.6873 30.9615 57.3839 30.938 55.9076 30.9433C55.7062 30.9439 55.4692 30.9377 55.459 30.7685C56.0257 30.5814 56.8566 30.6873 57.4721 30.6945C60.7237 30.7328 63.8202 31.6461 66.7221 33.1116C72.1377 35.8566 76.2422 40.6394 78.1336 46.4093C78.6397 47.9468 79.5915 52.5032 79.3066 53.9599L79.1236 53.9006Z" fill="var(--fill-0, black)" fill-opacity="0.921569"/>
<path id="Vector_42" d="M32.5597 108.797L32.7977 108.83C32.8361 112.585 33.8496 116.266 35.739 119.511C38.8065 124.73 43.9849 128.363 49.9358 129.472C51.1257 129.69 52.3637 129.845 53.5751 129.816C53.986 129.806 54.2787 129.789 54.6847 129.893L54.6323 130.015C54.0044 130.193 52.5738 130.082 51.8687 130.019C46.2792 129.528 41.1114 126.844 37.4951 122.554C34.912 119.481 33.2609 115.734 32.7365 111.753C32.609 110.839 32.48 109.708 32.5597 108.797Z" fill="var(--fill-0, black)" fill-opacity="0.905882"/>
<path id="Vector_43" d="M77.1317 53.8541C77.3162 42.9591 68.2761 33.1016 57.2565 32.894C56.8225 32.8858 55.746 32.9863 55.418 32.7452L55.4315 32.6043C61.2008 32.3716 66.4141 34.2363 70.652 38.1572C74.7144 41.9763 77.1365 47.2228 77.4086 52.7921C77.4241 53.1599 77.4153 53.5481 77.4041 53.9168L77.1317 53.8541Z" fill="var(--fill-0, black)" fill-opacity="0.909804"/>
<path id="Vector_44" d="M34.6227 108.918L34.8442 108.888C35.0282 109.869 35.0593 110.982 35.2105 111.978C35.4149 113.328 35.8228 114.76 36.3405 116.022C38.7059 121.768 43.7444 125.985 49.8174 127.301C50.7695 127.507 54.2181 127.788 54.6596 127.972C54.3524 128.208 53.0588 128.028 52.6481 128.004C43.5265 127.48 35.788 120.297 34.7876 111.179C34.7088 110.461 34.5489 109.645 34.6227 108.918Z" fill="var(--fill-0, black)" fill-opacity="0.898039"/>
<path id="Vector_45" d="M75.0534 53.8706C74.8609 52.4055 74.8376 51.1117 74.542 49.652C73.6388 45.376 71.2477 41.5591 67.7944 38.8807C64.627 36.4486 60.8338 34.9609 56.8167 34.9374C56.3381 34.9346 55.8229 34.9777 55.3633 34.8537L55.3974 34.7382C55.9185 34.5817 56.5829 34.6539 57.1346 34.6647C60.0331 34.7217 62.7148 35.5091 65.2626 36.8789C69.7155 39.2549 73.0342 43.3123 74.4801 48.1481C74.804 49.2241 75.4723 52.8241 75.2529 53.8235L75.0534 53.8706Z" fill="var(--fill-0, black)" fill-opacity="0.890196"/>
<path id="Vector_46" d="M36.6989 108.926L36.9971 108.829C37.0171 109.409 37.0352 110.018 37.0787 110.572C37.7314 118.858 44.9629 125.499 53.2357 125.689C53.6555 125.698 54.2257 125.698 54.6121 125.85L54.5798 125.985C54.0223 126.143 52.655 125.932 52.017 125.88C43.4485 125.179 36.5153 117.561 36.6989 108.926Z" fill="var(--fill-0, black)" fill-opacity="0.898039"/>
<path id="Vector_47" d="M73.0881 53.9085C72.8919 52.6313 72.8455 51.3692 72.5919 50.1278C71.7796 46.1445 69.5132 42.6066 66.2344 40.2038C63.4995 38.1928 60.0801 36.9256 56.6958 36.9372C56.2492 36.9388 55.7561 36.9611 55.3301 36.833C55.5578 36.4689 56.7447 36.6145 57.1591 36.6338C60.1809 36.7803 63.1069 37.7411 65.6274 39.4143C69.2818 41.7903 71.8514 45.5274 72.8414 49.7817C73.0514 50.6841 73.4121 53.1658 73.2286 53.9931L73.0881 53.9085Z" fill="var(--fill-0, black)" fill-opacity="0.882353"/>
<path id="Vector_48" d="M38.7754 108.857L39.0904 108.812C39.0952 110.487 39.3786 112.151 39.9292 113.733C41.6901 118.764 46.0435 122.441 51.2969 123.336C51.8807 123.434 54.5564 123.534 54.7687 123.637L54.6762 123.752C54.3851 123.837 54.2681 123.853 53.9689 123.856C50.0218 123.906 46.2143 122.396 43.3759 119.652C40.3902 116.729 38.8377 113.032 38.7754 108.857Z" fill="var(--fill-0, black)" fill-opacity="0.886275"/>
<path id="Vector_49" d="M70.9277 53.8248C70.7222 52.5818 70.7191 51.3612 70.4042 50.098C68.8645 43.9232 63.3458 39.2884 56.9288 39.09C56.5761 39.0793 55.4585 39.0926 55.3164 38.794C56.6891 38.3043 61.1327 39.477 62.5662 40.158C66.1696 41.8338 68.9442 44.8933 70.2612 48.6432C70.6643 49.7937 71.415 52.7313 71.0657 53.8448L71.0323 53.8061L70.9277 53.8248Z" fill="var(--fill-0, black)" fill-opacity="0.898039"/>
<path id="Vector_50" d="M40.7617 108.857C40.8638 108.868 40.9197 108.889 41.0105 108.866C41.1684 109.763 41.2176 110.531 41.427 111.515C42.4685 116.585 46.5253 120.489 51.6307 121.335C52.2622 121.441 54.5794 121.575 54.7767 121.703L54.7482 121.779C54.607 121.817 54.4325 121.854 54.2875 121.855C46.6764 121.918 41.095 116.486 40.7617 108.857Z" fill="var(--fill-0, black)" fill-opacity="0.909804"/>
<path id="Vector_51" d="M68.8556 53.919L68.8571 53.754C68.8823 47.2859 63.8776 41.5946 57.3698 41.1488C56.934 41.1189 55.6217 41.181 55.3047 41.022L55.3709 40.8635C55.8945 40.7184 56.3327 40.8377 56.8651 40.8451C59.0585 40.8757 60.7986 41.4456 62.7168 42.5336C65.6734 44.2141 67.8235 47.0203 68.6769 50.3126C68.9655 51.3844 69.2383 52.8699 69.1002 53.9779L68.8556 53.919Z" fill="var(--fill-0, black)" fill-opacity="0.905882"/>
<path id="Vector_52" d="M66.9609 53.8217C66.5918 50.4523 65.7922 47.6786 63.0061 45.4209C61.8331 44.4639 60.4679 43.7709 59.003 43.389C58.3981 43.2336 55.3411 42.9511 55.2325 42.8036C55.5933 42.532 56.3193 42.7119 56.7833 42.7354C62.5879 43.0289 67.1722 47.7789 67.166 53.5846C67.1493 53.6662 67.1326 53.7476 67.1159 53.8291L67.0809 53.7965L66.9609 53.8217Z" fill="var(--fill-0, black)" fill-opacity="0.894118"/>
<path id="Vector_53" d="M42.7403 108.875L43.0811 108.815L43.0735 108.954C42.8012 114.385 47.9434 119.503 53.2636 119.566C53.7247 119.571 54.3964 119.537 54.8017 119.687L54.783 119.813C53.9653 119.995 52.1576 119.786 51.3604 119.611C46.2871 118.493 42.8221 114.009 42.7403 108.875Z" fill="var(--fill-0, black)" fill-opacity="0.913725"/>
<path id="Vector_54" d="M37.1133 153.62L37.6835 153.521C42.3522 155.223 47.5152 156.271 52.4961 156.245C53.0619 156.242 54.2755 156.236 54.7658 156.429C53.8444 156.438 52.6814 156.417 51.7868 156.536C47.3421 156.619 41.2465 155.181 37.1133 153.62Z" fill="var(--fill-0, black)" fill-opacity="0.945098"/>
<path id="Vector_55" d="M37.2949 144.458C42.1375 146.469 46.6009 147.843 51.9176 147.97C52.4349 147.982 54.5603 147.873 54.7238 148.198C53.2227 148.186 51.7214 148.186 50.2203 148.196C46.0031 147.908 41.4521 146.552 37.5893 144.885C37.4086 144.708 37.4171 144.68 37.2949 144.458Z" fill="var(--fill-0, black)" fill-opacity="0.964706"/>
<path id="Vector_56" d="M64.8808 53.924L64.8864 53.7843C65.028 49.433 61.2256 45.1488 56.8348 45.1068C56.4507 45.1032 55.5783 45.2113 55.291 45.0428L55.3769 44.8739C60.2945 43.8871 65.5662 48.9225 65.1739 53.8418L64.8808 53.924Z" fill="var(--fill-0, black)" fill-opacity="0.913725"/>
<path id="Vector_57" d="M44.7324 108.843C44.8296 108.861 44.8841 108.885 44.9695 108.865C45.2874 110.471 45.4564 111.73 46.2757 113.206C47.7723 115.902 50.5457 117.431 53.5924 117.562C54.007 117.58 54.3577 117.578 54.7633 117.692L54.7322 117.794C54.6469 117.824 54.5505 117.862 54.4583 117.864C48.9898 118.024 45.0448 114.278 44.7324 108.843Z" fill="var(--fill-0, black)" fill-opacity="0.886275"/>
<path id="Vector_58" d="M62.9922 53.8455C62.5006 51.2373 62.1791 49.909 60.0282 48.2145C58.2352 46.8019 55.5663 47.2242 55.2793 47.0382C55.3803 46.8767 55.33 46.8606 55.5422 46.8355C59.2738 46.3954 62.7063 49.135 63.1287 52.8632C63.1724 53.2493 63.2533 53.466 63.1372 53.8628L63.0924 53.8014L62.9922 53.8455Z" fill="var(--fill-0, black)" fill-opacity="0.901961"/>
<path id="Vector_59" d="M46.7766 108.924L46.966 108.888C47.8086 112.637 48.8764 114.726 53.1264 115.526C53.582 115.612 54.4893 115.53 54.7658 115.715C54.5159 115.95 54.4026 115.967 54.0445 115.964C50.436 115.927 46.6125 112.815 46.7766 108.924Z" fill="var(--fill-0, black)" fill-opacity="0.898039"/>
<path id="Vector_60" d="M22.5809 108.903L22.8716 108.904C22.8756 111.793 23.0401 113.719 23.7825 116.552C24.0133 117.433 24.4506 118.698 24.6387 119.492L24.4989 119.901C23.1652 116.391 22.5142 112.658 22.5809 108.903Z" fill="var(--fill-0, black)" fill-opacity="0.921569"/>
<path id="Vector_61" d="M60.8707 53.8675C60.2945 52.0749 60.4012 50.7978 58.3622 49.6474C57.2292 49.0081 56.1193 49.3348 55.3105 48.9641C55.5473 48.7652 56.4355 48.8502 56.7622 48.8773C57.9826 48.9731 59.1109 49.563 59.8862 50.5103C60.6469 51.4353 61.0213 52.6485 61.1166 53.8292L60.8707 53.8675Z" fill="var(--fill-0, black)" fill-opacity="0.886275"/>
<path id="Vector_62" d="M48.9355 108.818L49.1267 108.88C49.3522 109.609 49.3195 109.955 49.6765 110.738C50.4362 112.404 51.6795 113.309 53.5252 113.399C53.9127 113.417 54.4395 113.274 54.7272 113.379L54.6825 113.481C54.4445 113.67 54.2253 113.795 53.9071 113.778C50.9163 113.615 49.0926 111.736 48.9355 108.818Z" fill="var(--fill-0, black)" fill-opacity="0.870588"/>
<path id="Vector_63" d="M58.6917 53.913C58.292 50.1819 55.5096 51.467 55.3223 51.1024C56.4558 50.0266 59.3066 51.7755 58.8419 53.9765L58.6917 53.913Z" fill="var(--fill-0, black)" fill-opacity="0.882353"/>
<path id="Vector_64" d="M51.0078 108.96L51.313 108.836C51.2701 111.836 53.9899 110.99 54.7919 111.466L54.7381 111.568C53.8144 111.69 52.7465 111.615 51.9842 111.029C51.4504 110.611 51.106 109.997 51.0274 109.323C51.0134 109.192 51.0104 109.091 51.0078 108.96Z" fill="var(--fill-0, black)" fill-opacity="0.870588"/>
<path id="Vector_65" d="M57.7358 4.3701C57.0099 4.35079 56.1548 4.36731 55.4824 4.08356C56.2704 3.99323 56.8697 3.97124 57.6581 4.08013L57.7358 4.3701Z" fill="var(--fill-0, black)" fill-opacity="0.886275"/>
<path id="Vector_66" d="M50.2207 148.195C51.7218 148.186 53.2231 148.186 54.7242 148.198C54.1068 148.413 50.9175 148.335 50.2207 148.195Z" fill="var(--fill-0, black)" fill-opacity="0.737255"/>
<path id="Vector_67" d="M50.9063 144.247C51.966 144.165 53.625 144.247 54.7473 144.232C54.1293 144.385 51.4835 144.416 50.9063 144.247Z" fill="var(--fill-0, black)" fill-opacity="0.815686"/>
<path id="Vector_68" d="M57.0195 6.1457C57.7473 6.12113 59.2007 6.12628 59.8935 6.24182C59.3465 6.25287 57.3816 6.34116 57.0195 6.1457Z" fill="var(--fill-0, #1A1718)" fill-opacity="0.768627"/>
<path id="Vector_69" d="M51.7871 156.535C52.6817 156.416 53.8447 156.437 54.7661 156.428C54.0917 156.63 52.534 156.561 51.7871 156.535Z" fill="var(--fill-0, black)" fill-opacity="0.568627"/>
<path id="Vector_70" d="M30.7031 157.471C31.1893 157.495 31.7736 157.775 32.1194 158.108C31.7441 157.978 31.0839 157.649 30.7031 157.471Z" fill="var(--fill-0, black)" fill-opacity="0.796078"/>
</g>
</svg>
