<svg width="196" height="45" viewBox="0 0 196 45" fill="none" xmlns="http://www.w3.org/2000/svg">
<path d="M105.167 3.82812C105.458 4.17352 105.455 10.5825 105.486 11.5989C105.905 12.2314 106.74 13.1019 107.235 13.7692C108.634 15.6568 109.507 18.1997 109.674 20.5306C109.951 24.4346 108.633 27.9366 106.079 30.8532C105.079 31.9951 104.556 32.27 103.327 33.0385C100.523 34.7913 98.6497 34.8321 95.464 35.0536C93.6441 36.6249 91.971 38.371 89.956 39.7735C89.4667 40.1141 87.2191 42.2293 86.779 41.1937C86.7782 39.8365 87.1313 38.5343 87.2208 37.1906C87.3317 35.5243 87.7187 33.8184 87.7128 32.1545C87.4102 31.7433 86.4772 30.9027 86.0286 30.4002C83.7742 27.875 82.543 24.0842 82.7711 20.7072C83.0436 17.0464 84.7625 13.645 87.5476 11.2551C90.9726 8.26997 94.5104 7.97155 98.7818 8.26852C99.9982 7.38324 104.031 4.2483 105.167 3.82812Z" fill="#0D0C0C"/>
<path d="M103.375 8.14209C103.675 8.47607 103.584 13.3079 103.675 14.2122C108.693 19.4589 107.553 27.4262 100.791 30.6667C99.2594 31.4003 97.8028 31.4189 96.1309 31.5341C94.6496 32.8892 93.1312 34.1679 91.5446 35.3955C90.99 35.8247 89.9981 36.52 89.5995 37.052C89.5637 36.4889 89.513 35.4314 89.6139 34.9088L89.6862 34.8915L89.817 35.2603C89.8787 35.1927 90.0956 30.5773 90.1238 29.9991C90.2511 30.2142 90.1869 30.6336 90.4394 30.7654L90.3998 29.3206C88.1137 27.2599 87.5759 25.9055 86.7746 23.0935L86.7642 23.1444C86.4215 22.2502 86.5499 20.6323 86.5978 19.6644C86.6523 19.7851 86.7994 20.2904 86.8481 20.4444C87.1286 16.1056 90.1734 12.737 94.3924 11.7238C95.8984 11.3622 97.1319 11.4356 98.6565 11.4976C100.122 10.5314 101.908 9.18052 103.375 8.14209Z" fill="#FDFDFD"/>
<path d="M102.399 9.98032L102.797 9.90918C103.132 10.3454 102.991 20.1692 102.874 20.2738C102.87 19.872 102.892 19.2955 102.778 18.9259C102.737 19.5071 102.59 22.4738 102.504 22.828L102.445 23.9298C101.557 23.3063 99.1826 21.8603 98.2007 21.6031C97.4734 23.335 96.1996 25.331 95.3729 27.1922C94.6373 26.4418 93.7498 25.8634 92.739 25.5929C92.5265 25.5361 92.525 25.5434 92.397 25.3753C92.4329 25.1165 93.593 23.0417 93.8263 22.5834C92.7635 22.6309 91.4461 22.49 90.361 22.4357C90.135 22.4244 90.001 22.1989 89.9028 22.0326L89.9761 21.8957C90.5329 21.7092 93.2422 22.0016 94.0885 22.0164C94.4979 21.5165 94.7398 21.0081 94.9995 20.4249C93.9652 20.3077 90.1725 20.1336 89.5786 19.8708C89.6001 19.7566 89.74 19.6256 89.8338 19.5583C94.0509 16.5365 98.1548 12.932 102.399 9.98032Z" fill="#0D0C0C"/>
<path d="M102.399 9.98032L102.798 9.90918C103.132 10.3454 102.991 20.1692 102.874 20.2738C102.87 19.872 102.892 19.2955 102.778 18.9259C102.737 19.5071 102.59 22.4738 102.505 22.828C102.419 21.3509 102.653 10.5169 102.399 9.98032Z" fill="#C2C0C2"/>
<path d="M98.5398 23.2974C98.9695 23.3409 102.588 25.3466 102.87 25.7177C102.862 26.0093 102.904 25.9321 102.749 26.1314C102.358 26.0348 99.3226 24.222 98.7225 23.8844C97.1224 26.5026 96.0496 29.7746 93.7317 31.8067C92.7162 32.6928 91.9547 33.4567 90.7752 34.1208C90.6971 33.0816 91.2267 28.6322 91.9114 27.7616C93.0185 26.354 94.2055 28.76 95.152 28.6799C95.7616 28.2544 97.8096 24.357 98.5398 23.2974Z" fill="#0D0C0C"/>
<path d="M92.2519 28.1528C93.5356 28.1114 93.6954 28.6024 94.1799 29.6598C93.6989 30.8031 93.178 31.2275 92.3412 32.1209L91.619 33.0535C91.352 31.5931 91.0869 29.3152 92.2519 28.1528Z" fill="#F28D45"/>
<path d="M140.989 15.2628C141.024 15.2607 141.061 15.259 141.097 15.2578C143.906 15.1684 145.347 16.0168 147.365 17.915C147.301 17.1855 147.298 16.3237 147.277 15.5822C148.821 15.5326 150.365 15.5259 151.908 15.5621C152.028 17.5109 151.958 20.111 151.959 22.1001L151.958 33.6801C150.403 33.6982 148.848 33.6948 147.294 33.6699C147.24 33.0544 147.432 31.8049 147.179 31.397L146.937 31.5881C146.926 31.5998 146.916 31.6115 146.905 31.6231C144.149 34.6525 138.887 34.5933 135.961 31.863C132.151 28.3075 132.229 21.0998 135.764 17.3703C136.956 16.1125 139.263 15.3353 140.989 15.2628ZM143.006 29.8213C144.498 29.6377 145.436 28.8375 146.388 27.7071C147.249 26.6847 147.387 25.0593 147.224 23.7531C147.037 22.3589 146.312 21.0935 145.204 20.2278C144.381 19.5973 143.375 19.3224 142.348 19.3782C136.267 19.7702 136.314 29.9767 143.006 29.8213Z" fill="#0D0C0C"/>
<path d="M114.529 10.8335C117.612 10.8113 124.635 10.4608 127.124 11.6007C128.869 12.4002 130.082 13.43 130.762 15.2655C131.411 17.0158 131.329 19.2692 130.55 20.9661C129.683 22.8531 128.052 23.7889 126.191 24.4778C127.692 27.1769 129.325 29.7744 130.836 32.4607C130.997 32.7458 131.264 33.3222 131.161 33.6297C130.523 33.7438 127.822 33.6902 127.025 33.6879L125.978 33.6223C125.22 31.4198 123.492 29.4758 122.555 27.3311C122.178 26.4686 121.599 25.6313 121.03 24.8857C120.441 24.7596 119.671 24.8097 119.054 24.826C118.992 27.7139 119.053 30.7633 119.041 33.668C117.787 33.7567 115.76 33.6859 114.481 33.6641C114.633 26.1167 114.463 18.4054 114.529 10.8335ZM119.079 21.2783C121.519 21.3179 123.222 21.6559 125.467 20.5023C126.489 19.5465 126.508 18.6163 126.359 17.2908C125.985 13.9755 121.621 14.7267 119.084 14.7687C118.977 16.5939 119.008 19.4368 119.079 21.2783Z" fill="#0D0C0C"/>
<path d="M13.5162 10.5687C16.119 10.3474 18.7215 10.9981 20.9143 12.4183C22.9697 13.7334 24.445 15.6071 24.975 18.005C23.4222 18.0317 21.5271 18.0573 19.9945 17.9915C19.28 17.4502 18.5299 16.3184 17.776 15.7636C16.4705 14.8102 14.7088 14.6487 13.1529 14.872C7.61632 15.6669 6.05349 23.1997 9.13866 27.214C10.5665 29.0718 12.8613 29.9886 15.2047 29.63C17.0726 29.3441 18.2819 28.5399 19.3784 27.0405C20.0088 26.122 21.0608 26.4342 22.0833 26.4115C23.021 26.3906 23.9908 26.4278 24.9325 26.4328C23.5957 33.9746 12.3149 35.8783 7.11311 31.4701C6.54092 30.9852 5.91439 30.5432 5.44017 29.9493C0.260221 23.4612 2.92565 13.0333 11.2635 10.8719C11.9359 10.6977 12.8124 10.6428 13.5162 10.5687Z" fill="#0D0C0C"/>
<path d="M175.893 9.51192C177.427 9.50476 178.961 9.50696 180.496 9.51851C180.575 13.0466 180.474 16.5983 180.512 20.1286C180.522 21.1301 180.475 22.1479 180.645 23.1382C181.075 22.248 182.186 20.9392 182.83 20.1098C184.035 18.5594 185.018 16.7278 186.64 15.5876C188.175 15.4728 190.684 15.5373 192.266 15.5707C191.591 16.9432 189.928 18.193 189.188 19.3491C188.157 20.9585 185.516 23.1035 184.778 24.6524C184.791 24.9593 188.399 28.9149 188.937 29.5179C189.902 30.7312 191.423 32.2691 192.524 33.6205C190.599 33.6725 188.557 33.7282 186.635 33.6667C185.645 32.7156 184.265 30.8736 183.351 29.779C182.392 28.6315 181.612 27.4339 180.589 26.2715C180.38 28.1589 180.554 31.6166 180.489 33.7304C179.615 33.6547 176.313 33.8186 175.863 33.5425C175.693 33.0754 175.723 9.95593 175.893 9.51192Z" fill="#0D0C0C"/>
<path d="M63.3221 9.52257C64.3352 9.50358 66.2747 9.4431 67.2167 9.57888C67.0855 13.9674 67.2621 18.5696 67.1848 22.9982C67.866 22.4775 68.3194 21.7357 68.8521 21.0922C70.2013 19.4623 71.8461 16.8657 73.4139 15.5833C75.0216 15.4544 77.5461 15.5537 79.1902 15.5979C78.0532 17.17 76.2121 19.0132 74.9785 20.5732C74.6183 21.0286 74.1082 21.4914 73.7212 21.9525C72.9431 22.8799 72.0459 23.7195 71.3798 24.7377C72.8659 26.3446 74.6831 28.2032 76.0223 29.8893C76.4526 30.4304 79.1346 33.0694 78.982 33.4869C78.8838 33.5284 78.7202 33.5817 78.634 33.5875C77.926 33.6352 73.5192 33.874 73.1649 33.5277C71.9902 32.3791 68.2842 27.019 67.2793 26.2311C67.1213 28.5671 67.2032 31.3304 67.2245 33.7049C65.7288 33.6584 64.1777 33.695 62.6557 33.6549C62.4894 26.47 62.6748 19.2299 62.6143 12.0397C62.6081 11.3015 62.5969 10.4518 62.6544 9.72364C62.8953 9.50801 62.9347 9.5697 63.3221 9.52257Z" fill="#0D0C0C"/>
<path d="M163.783 15.3276C164.274 15.316 164.765 15.3085 165.257 15.3052C166.952 15.2993 168.576 15.653 169.966 16.6656C173.031 18.8985 172.621 22.873 172.621 26.1797L172.636 33.6766C171.203 33.7241 169.37 33.7006 167.949 33.6607C167.964 31.1778 168.252 23.9695 167.683 21.9918C167.414 21.0559 166.884 20.2033 166.011 19.7253C164.949 19.1443 163.738 19.1643 162.608 19.4942C159.379 20.7501 159.983 23.8757 159.927 26.7099C159.881 29.0314 159.983 31.3657 159.909 33.6893C158.401 33.6906 156.854 33.7092 155.351 33.6568C155.473 27.804 155.43 21.4259 155.371 15.5594L159.908 15.5322C159.926 16.3161 159.967 16.8522 160.062 17.6312C161.752 15.8449 161.72 16.2601 163.783 15.3276Z" fill="#0D0C0C"/>
<path d="M51.4542 15.2671C53.1285 15.0864 55.506 15.6974 56.9548 16.5726C57.9818 17.193 60.8716 20.4545 60.0777 21.6737C59.7114 21.7632 56.0042 21.7318 55.3334 21.7331C54.4894 19.9411 52.8815 18.8723 50.901 19.3054C46.8377 20.1938 46.538 27.2606 49.6683 29.3435C50.5864 29.9545 51.8079 30.0038 52.8518 29.8043C54.199 29.5471 54.741 28.5528 55.4139 27.5181C56.051 27.4869 56.8106 27.5018 57.4576 27.4981C58.4381 27.4926 59.3459 27.4775 60.326 27.5614C59.0249 33.8916 51.0926 35.6265 46.2974 32.2567C42.298 29.2817 41.9599 23.1688 44.2809 19.0633C44.6848 18.3489 45.6298 17.4919 46.1831 16.8077C46.5598 16.7378 47.142 16.4007 47.513 16.2259C49.0288 15.5118 49.8034 15.3298 51.4542 15.2671Z" fill="#0D0C0C"/>
<path d="M28.0376 9.52556C29.3299 9.45178 31.1792 9.50537 32.5143 9.50191C32.6359 14.5793 32.5318 20.0394 32.5339 25.1463L32.5438 30.4822C32.5452 31.4157 32.5856 32.8327 32.4763 33.72C31.1321 33.6324 29.3561 33.6906 27.9356 33.6548C27.9022 30.8856 27.868 9.94286 28.0376 9.52556Z" fill="#0D0C0C"/>
<path d="M36.3011 15.5536C37.6529 15.5009 39.2305 15.5343 40.5997 15.5294C40.5525 19.8799 40.6704 28.8126 40.5158 33.5682C40.514 33.6258 40.3709 33.6493 40.292 33.6721C38.8537 33.696 37.4149 33.6954 35.9765 33.6699C35.8916 32.1669 35.9319 15.9546 36.0801 15.6594C36.1131 15.5938 36.2313 15.577 36.3011 15.5536Z" fill="#0D0C0C"/>
<path d="M37.6903 8.16113C40.4674 7.93014 41.2768 9.22223 41.109 11.8285C40.5049 12.5933 39.9806 13.1531 39.0395 13.4501C38.8734 13.4787 38.7056 13.4954 38.5372 13.5C35.4757 13.6125 34.6291 10.4282 36.5809 8.43601L37.6903 8.16113Z" fill="#0D0C0C"/>
</svg>
