<svg width="196" height="65" viewBox="0 0 196 65" fill="none" xmlns="http://www.w3.org/2000/svg">
<path d="M152.305 36.9882C154.838 36.8696 156.354 36.9429 158.749 37.9597C170.702 43.0332 169.141 62.3921 155.775 64.4919L155.716 64.4995C141.625 66.2174 136.324 48.4038 145.908 39.8787C147.495 38.466 150.185 37.2245 152.305 36.9882Z" fill="black"/>
<path d="M152.871 39.902C154.956 39.6941 157.021 40.1435 158.764 41.3301C166.362 46.5037 164.703 59.9741 155.164 61.7201C142.064 63.0156 140.535 41.7971 152.871 39.902Z" fill="white"/>
<path d="M60.9082 0.780273C64.5226 0.873249 68.1747 0.75842 71.7937 0.818322C72.6074 0.831883 73.5129 0.805151 74.3143 0.922615C75.138 1.03764 75.9302 1.31696 76.644 1.74398C80.4452 4.03471 80.6665 10.2859 77.161 12.9394C76.369 13.5389 75.605 13.7508 74.6566 13.9793C76.8431 14.7219 78.5178 15.208 79.8639 17.2806C80.9398 18.937 80.9478 20.9461 80.5298 22.8203C78.9836 28.3465 73.8442 27.876 69.2712 27.8787L60.9729 27.8655C61.1834 20.9795 60.9208 13.9847 61.0249 7.08993C61.0559 5.03374 61.0612 2.82037 60.9082 0.780273Z" fill="#C4000C"/>
<path d="M62.3443 14.65C64.542 14.6129 66.8226 14.6429 69.0285 14.6413C70.7493 14.7044 72.5486 14.5088 74.2442 14.8461C79.3136 15.8545 81.3023 20.9974 77.7642 25.0032C77.0373 25.671 76.1522 26.1421 75.1924 26.3714C73.8722 26.7001 70.8758 26.6848 69.4427 26.6903L62.3627 26.6907C62.2452 22.8588 62.335 18.5199 62.3443 14.65Z" fill="white"/>
<path d="M62.3344 1.90455C65.3433 1.90221 68.3846 1.88241 71.3837 1.92143C73.3873 1.97246 75.6135 2.30758 77.0322 3.86455C79.09 6.12289 78.7687 9.88885 76.5558 11.9261C74.3172 13.7872 71.091 13.5478 68.3586 13.5467L62.3463 13.5386C62.2243 9.88855 62.3096 5.58728 62.3344 1.90455Z" fill="white"/>
<path d="M110.876 0.762207C113.607 0.93167 116.553 0.785427 119.302 0.833719C120.693 0.858207 122.423 0.746597 123.767 1.02387C124.748 1.23596 125.675 1.64845 126.49 2.23548C130.447 5.08972 131.05 10.4584 128.322 14.4408C127.071 16.267 124.888 16.8626 122.804 17.1926C124.02 18.338 125.222 20.2991 126.145 21.7047C127.305 23.4739 128.409 25.2136 129.641 26.9426C133.698 26.9892 137.877 26.9237 141.95 26.9304L177.043 26.9186L190.178 26.9136C191.666 26.9175 193.171 26.948 194.654 26.881C195.406 26.8471 195.593 27.5457 195.228 27.9537C194.39 28.1368 192.385 28.0607 191.441 28.053L128.62 28.1389C128.319 27.6666 128.004 27.117 127.727 26.6287C125.94 23.4744 123.689 20.4825 121.88 17.3577C118.726 17.2978 115.535 17.3356 112.363 17.2808C112.386 20.4183 112.321 24.8861 112.569 27.9422L111.112 27.9285L111.118 11.5115C111.109 8.28406 111.167 3.89196 110.876 0.762207Z" fill="#C4000C"/>
<path d="M112.271 1.89361C115.493 1.92971 120.315 1.61888 123.358 2.23108C128.914 3.34835 130.165 9.98161 126.809 14.2722C126.784 14.2981 126.759 14.3235 126.734 14.3482C124.735 16.2884 121.203 16.043 118.612 16.0475L112.34 16.0391C112.504 11.4721 112.355 6.47732 112.271 1.89361Z" fill="white"/>
<path d="M172.096 36.9944C172.948 36.9711 173.838 36.9896 174.693 36.9947C174.976 37.5475 176.065 38.9027 176.492 39.4502C177.923 41.2631 179.366 43.0657 180.822 44.8578L191.786 58.667C191.976 57.3241 191.886 53.2121 191.884 51.6571C191.86 46.7695 191.87 41.8817 191.912 36.9942C193.008 36.9905 194.104 36.9936 195.199 37.0033L195.334 64.2518C195.343 64.4688 195.368 64.3707 195.256 64.5563C194.859 64.6525 192.953 64.6054 192.383 64.6026C191.726 63.8331 190.985 62.7458 190.282 61.8915C187.188 58.1673 184.151 54.3961 181.173 50.5789C180.433 49.6309 176.219 43.8825 175.471 43.7167C175.316 45.8298 175.406 48.9555 175.407 51.1559L175.412 64.5696C174.275 64.5846 173.137 64.5813 171.999 64.5596C171.983 55.5887 171.817 45.9136 172.096 36.9944Z" fill="black"/>
<path d="M10.4444 36.994C11.2464 36.9728 12.0752 36.9905 12.8796 36.9973C14.6915 39.666 17.9778 43.3945 20.0802 46.0773C22.2366 48.8748 24.4213 51.6504 26.6338 54.4036C27.6978 55.7501 29.0204 57.5513 30.141 58.7893C30.2375 56.6779 30.1855 54.4344 30.2015 52.3066C30.2401 47.2218 30.1279 42.0819 30.2706 37.0027C31.3706 36.9856 32.4709 36.9863 33.5709 37.0047C33.332 45.8844 33.6131 55.2113 33.4971 64.1884L33.482 64.4022C33.043 64.7386 31.2945 64.608 30.7063 64.587C29.3603 62.8562 27.8299 61.1682 26.4586 59.4138L19.2108 50.2554C17.3031 47.8449 15.6387 45.6571 13.623 43.3132C13.4449 50.1259 13.6174 57.6851 13.6399 64.5551C12.5292 64.5734 11.3986 64.5661 10.2861 64.569L10.3008 48.3828C10.3066 44.7735 10.2611 40.5926 10.4444 36.994Z" fill="black"/>
<path d="M93.3209 36.897L95.9212 36.9459C96.4088 38.1608 97.0037 39.4259 97.5157 40.6619L102.06 51.7023C103.834 56.0026 105.521 60.362 107.354 64.6411C106.218 64.6473 104.777 64.6892 103.675 64.5949C103.336 63.3807 102.73 61.9016 102.274 60.7048C101.742 59.3132 101.19 57.7216 100.494 56.4189C99.2145 56.3474 97.3187 56.4309 95.9944 56.4495C93.5971 56.486 91.1993 56.4736 88.8025 56.4121C88.6362 56.7345 88.5252 57.0295 88.3894 57.3634C87.4143 59.7609 86.5417 62.2297 85.4922 64.594C84.3251 64.6265 83.1179 64.6264 81.9478 64.6357C82.3592 63.8665 82.9518 62.2416 83.3096 61.3441L85.6888 55.4448L93.3209 36.897Z" fill="black"/>
<path d="M94.681 41.293C95.2884 41.8015 98.9444 52.1388 99.6563 53.8264L94.6048 53.8318C92.9168 53.8474 91.2288 53.8318 89.5415 53.7849C89.8286 52.8575 90.6656 50.9612 91.0819 49.9892C92.0883 47.6396 93.4383 43.3221 94.681 41.293Z" fill="white"/>
<path d="M1.20456 0.0151218C1.94604 -0.000975729 2.71399 0.00478049 3.45809 0C3.34299 21.5224 3.38956 43.0454 3.59779 64.567L2.76906 64.6293C1.87468 64.6341 0.980277 64.6339 0.0859018 64.6284C0.0217441 59.3469 -0.119629 0.896976 0.208425 0.152586C0.439184 -0.0479997 0.877687 0.0104389 1.20456 0.0151218Z" fill="black"/>
<path d="M106.243 37.0868C113.255 37.0589 121.261 36.8966 128.246 37.1018C128.219 38.0264 128.183 38.9508 128.141 39.8748C125.223 39.9727 121.841 39.8766 118.896 39.8695C118.781 41.6299 118.853 43.9817 118.854 45.7791L118.842 55.9204L118.845 64.5419C117.789 64.5876 116.575 64.5654 115.506 64.5681L115.469 46.9789C115.45 44.8835 115.563 41.9075 115.444 39.9138C112.251 39.9111 109.059 39.9496 105.867 40.0295C105.856 39.4083 105.78 37.6345 105.987 37.1624L106.243 37.0868Z" fill="black"/>
<path d="M48.0396 37.0578C55.3235 36.954 62.8578 37.0464 70.162 37.0418L70.1191 39.9003C67.1159 40.0283 63.7023 39.942 60.6215 40.0137C60.5662 45.1353 60.6292 50.3742 60.6308 55.5055C60.624 58.5227 60.6432 61.54 60.6882 64.5568C59.6355 64.5863 58.5005 64.5693 57.4413 64.5723C57.3342 56.3881 57.4535 48.1168 57.3988 39.9182C54.2547 39.9004 51.1107 39.8986 47.9668 39.9127C47.9544 38.9656 48.0028 38.0052 48.0396 37.0578Z" fill="black"/>
<path d="M86.8887 0.814941C92.659 0.8846 98.4373 0.784307 104.208 0.856014C104.529 0.860014 104.914 0.94421 104.949 1.30528C104.568 1.89153 103.81 1.85601 103.191 1.84626C101.749 1.82362 100.304 1.83055 98.8616 1.83192C95.3294 1.86167 91.7975 1.86762 88.2655 1.84967C88.3179 5.65904 88.3386 9.46889 88.3275 13.2786C90.0301 13.3347 102.2 13.1803 102.746 13.5065C102.852 13.8125 102.804 14.1723 102.602 14.422C102.019 14.6888 91.0012 14.589 89.412 14.5847C89.0588 14.5758 88.7006 14.5406 88.3713 14.6627C88.2705 15.0418 88.3092 17.733 88.31 18.2534L88.3263 26.6919C90.006 26.7501 91.9859 26.7024 93.6906 26.7L105.113 26.6989C105.138 27.0543 105.121 27.4598 105.114 27.8198C99.2546 27.9886 92.8575 27.8715 86.9593 27.8771L86.9746 11.5214C86.9744 8.17923 87.0743 4.08694 86.8887 0.814941Z" fill="#C4000C"/>
<path d="M41.0942 36.9917L43.6547 37.0008L43.6639 58.3122C43.664 60.1463 43.6877 62.4984 43.6356 64.368C43.585 64.4302 43.5421 64.483 43.507 64.5264L42.9333 64.5499L40.3491 64.563C40.4362 57.4344 40.3399 44.7397 40.4355 37.1833C40.4899 37.119 40.5367 37.0637 40.576 37.0173L41.0942 36.9917Z" fill="black"/>
<path d="M74.7313 36.9938L77.9445 36.9907C77.7703 46.0545 78.0315 55.4662 77.9747 64.5726L74.6794 64.5694C74.8631 56.6259 74.6047 48.5975 74.6759 40.6467C74.6866 39.4605 74.6096 38.1645 74.7313 36.9938Z" fill="black"/>
<path d="M132.614 37.0163C133.7 37.0014 134.787 37.0032 135.874 37.0218L135.875 54.2506C135.876 57.568 135.967 61.26 135.865 64.5465L132.629 64.6193L132.614 37.0163Z" fill="black"/>
<path d="M19.8507 0.691416C20.3844 0.606343 21.5431 0.663904 22.0947 0.713758C26.4476 1.10712 28.4886 3.10244 31.1068 6.23366C30.727 6.47551 30.2745 6.69649 29.8713 6.90576C29.1319 5.99659 28.4102 5.09795 27.5134 4.33746C25.4159 2.5559 22.6952 1.6841 19.9534 1.91483C10.504 2.71854 6.65708 14.3583 11.6719 21.6C14.5089 25.6966 17.9102 27.1438 22.7462 26.6676C25.3586 26.2245 27.6502 24.7872 29.3274 22.7551C29.728 22.2698 30.014 21.1743 30.7168 21.4599C31.4502 22.2571 30.4699 23.2668 29.9096 23.9565C26.0182 28.7476 18.323 29.3894 13.5326 25.6027C4.2619 18.2745 7.37039 1.86742 19.8507 0.691416Z" fill="#C4000C"/>
<path d="M34.0935 0.585487C34.2103 0.570073 34.77 0.490365 34.842 0.608609C35.5245 1.73105 36.1632 2.87495 36.8661 3.98559L44.8118 16.4509C47.6997 11.2127 51.7781 5.90549 54.5136 0.701683C54.9667 0.625195 55.7986 0.594658 56.285 0.564024C54.6897 2.74178 52.8252 5.95232 51.3573 8.30539C49.3738 11.342 47.4476 14.6478 45.3387 17.5383C45.3596 21.0269 45.3611 24.5157 45.3435 28.0044C44.9282 28.014 44.433 27.9985 44.0117 27.9951C44.072 24.8454 43.8829 20.4834 44.0912 17.4953C43.0248 16.3434 41.7141 14.1224 40.8821 12.7654L37.6708 7.59085C36.5115 5.73319 35.3771 3.8571 34.1684 2.03212C33.8951 1.61944 33.6019 1.22207 33.3608 0.789488C33.6065 0.596219 33.7356 0.637975 34.0935 0.585487Z" fill="#C4000C"/>
</svg>
