<svg width="126" height="40" viewBox="0 0 126 40" fill="none" xmlns="http://www.w3.org/2000/svg">
<path d="M8.05683 8.09277C13.4514 8.09072 17.6876 7.38605 21.8763 11.5722C24.0421 13.7568 25.2544 16.7104 25.248 19.7867C25.266 22.9147 24.0202 25.9175 21.7931 28.114C18.1479 31.7296 14.7246 31.551 10.0919 31.5392L10.0996 33.1791C12.3982 33.1791 14.535 33.2915 16.786 32.7355C20.2401 31.8769 23.2043 29.666 25.0118 26.5998C26.9945 23.2885 27.278 19.7667 26.3586 16.0787C26.7078 16.3284 26.9441 17.655 26.8688 18.11L26.9464 18.1891C27.0361 18.1426 27.0766 18.1208 27.1753 18.0877C27.2761 18.2182 27.2637 18.2943 27.2746 18.4604C27.4604 18.6818 27.9142 18.6201 28.0379 18.7443C28.6894 19.3988 31.6532 22.451 32.3829 22.5456C32.507 22.4391 32.5914 22.3648 32.731 22.2741L32.8539 22.3433C32.8177 22.6446 32.709 23.1496 32.845 23.3909L32.8457 23.3913C32.8881 23.0283 32.9511 22.4119 33.0418 22.0777L33.1409 22.0478C33.1143 23.0556 32.8914 23.9497 32.6284 24.9155C31.7504 28.2545 30.0001 31.2999 27.5571 33.7394C24.4951 36.8046 20.2856 38.9752 15.9636 39.4307C13.7119 39.6679 10.3811 39.5752 8.05615 39.5763L8.05683 8.09277Z" fill="#FF5D40"/>
<path d="M0.0112617 0.0130038L9.90488 0.0160752C11.3466 0.0158704 14.1333 -0.0604394 15.4373 0.121257C14.5012 0.21156 7.42629 0.147535 7.20467 0.230944C7.15485 0.249782 7.07602 0.330529 7.03063 0.365613L7.06619 0.4381L7.32459 0.504104C7.85485 1.35771 8.2404 2.01139 9.01746 2.70153C9.98671 3.56237 10.8297 4.63951 11.8489 5.45694C12.0041 5.58144 12.1689 6.02933 12.0974 6.24918L12.1332 6.2311L11.8412 6.2986C12.3018 6.47061 14.3074 6.21676 14.5916 6.4001L14.5385 6.47552C11.9078 6.40576 9.10592 6.43825 6.46625 6.44938L6.47881 39.5745L0.0271647 39.5769C-0.00546002 37.4482 0.058902 35.3019 0 33.1694L4.40659 33.1781C4.39806 32.6409 4.40775 32.0806 4.40898 31.5413C2.94796 31.5301 1.48688 31.5346 0.0260045 31.5548C-0.0201342 28.3589 0.0214998 25.0611 0.0213633 21.8587L0.0112617 0.0130038Z" fill="#FF6A35"/>
<path d="M15.4374 0.121094C16.1344 0.124507 17.0932 0.336168 17.7875 0.49261C21.5015 1.31079 24.9005 3.18359 27.5764 5.88611C31.307 9.65184 33.3847 14.7323 33.2595 20.0165C33.2457 20.599 33.2364 21.4872 33.1408 22.0474L33.0418 22.0773C32.951 22.4116 32.8881 23.028 32.8457 23.3909L32.845 23.3905C32.7089 23.1493 32.8177 22.6442 32.8538 22.343L32.7309 22.2738C32.5914 22.3644 32.507 22.4387 32.3828 22.5453C31.6531 22.4506 28.6894 19.3984 28.0379 18.744C27.9142 18.6197 27.4603 18.6814 27.2746 18.46C27.2637 18.2939 27.276 18.2179 27.1753 18.0874C27.0765 18.1204 27.0361 18.1422 26.9464 18.1888L26.8688 18.1097C26.9441 17.6547 26.7078 16.328 26.3585 16.0783C26.2445 15.8886 25.9235 14.9095 25.8165 14.6491C23.8782 9.93258 19.5243 6.96598 14.5387 6.47536L14.5918 6.39993C14.3075 6.2166 12.3019 6.47044 11.8413 6.29844L12.1333 6.23093L12.0976 6.24902C12.169 6.02917 12.0043 5.58128 11.8491 5.45678C10.8298 4.63935 9.98685 3.5622 9.01759 2.70136C8.24054 2.01123 7.85498 1.35755 7.32473 0.50394L7.06632 0.437937L7.03076 0.365449C7.07615 0.330366 7.15498 0.249619 7.20481 0.23078C7.42642 0.147372 14.5013 0.211396 15.4374 0.121094Z" fill="#FE3460"/>
<path d="M36.7931 16.9921C38.9912 16.9909 42.2574 16.6806 43.885 18.31C45.527 19.9537 45.4038 22.9929 43.7865 24.6165C42.0913 26.147 39.0403 25.8019 36.7856 25.7984L36.7931 16.9921Z" fill="#3F3F43"/>
<path d="M39.0421 18.7275C40.0253 18.7338 41.2262 18.6568 41.9768 19.4007C43.0068 20.4215 42.945 22.4119 41.9686 23.4398C41.1077 24.1174 40.0877 24.1404 39.0402 24.1432C39.0316 22.338 39.0322 20.5328 39.0421 18.7275Z" fill="white"/>
<path d="M52.8267 19.0585C54.0234 18.9445 54.6426 19.3616 55.3934 20.2146L55.408 19.2375L57.487 19.2369C57.484 20.6697 57.6733 25.2918 57.3017 26.3845C57.0608 27.0931 56.545 27.6331 55.8818 27.9644C54.635 28.5869 52.6509 28.5267 51.3493 28.0939C51.1802 27.9185 51.2361 27.9009 51.2197 27.585L51.2328 26.4065C52.465 27.1294 54.763 27.5944 55.3098 25.7886C55.4227 25.4156 55.4152 25.0799 55.419 24.6949C55.023 25.1143 54.6226 25.5115 54.0467 25.6792C50.6008 26.6822 49.3405 21.8313 51.3981 19.8115C51.8524 19.3655 52.2349 19.2435 52.8267 19.0585Z" fill="#3F3F43"/>
<path d="M53.53 20.6281C55.8477 20.3658 55.9519 23.4517 54.3874 24.2625C52.1041 24.6209 52.0565 21.2615 53.53 20.6281Z" fill="white"/>
<path d="M89.7514 16.8747C91.5157 16.7777 92.1095 16.9207 93.7421 17.4891C93.7182 18.1326 93.7196 18.6968 93.7298 19.3378C92.2999 18.4582 89.72 17.9388 88.5419 19.4291C87.6512 20.5561 87.7133 22.948 88.9624 23.8123C89.935 24.4857 90.8222 24.375 91.8945 24.2136C91.9102 23.6435 91.9 23.0256 91.9013 22.4514L90.5131 22.4469C90.5049 21.9348 90.5131 21.4058 90.5151 20.8922L91.5389 20.8928L94.0144 20.895C93.9776 22.2656 94.0062 23.7848 94.0035 25.1668C92.1784 26.1406 88.9064 26.3395 87.198 25.0007C85.3225 23.5313 85.0897 20.3588 86.5141 18.5155C87.3305 17.4586 88.4791 17.0292 89.7514 16.8747Z" fill="#3F3F43"/>
<path d="M71.3517 19.0587C73.1543 18.8122 75.4551 19.2361 75.6223 21.3632C75.7322 22.7612 75.6762 24.3767 75.6707 25.7899C74.9746 25.7964 74.2777 25.7964 73.5815 25.7897L73.5829 24.8096C72.57 25.9775 71.4855 26.2766 70.0365 25.6887C69.3751 25.2746 69.0202 24.7099 68.9854 23.917C68.8735 21.3866 71.9441 21.5488 73.6778 21.5409C73.5201 21.1502 73.4082 20.8381 73.0068 20.6535C71.9714 20.1769 70.5265 20.5943 69.5307 20.9431L69.5287 19.3888C70.1593 19.2583 70.7115 19.1454 71.3517 19.0587Z" fill="#3F3F43"/>
<path d="M72.1534 22.8727C72.5807 22.8363 73.1827 22.8375 73.6236 22.8252C73.5103 23.6329 73.369 24.1884 72.5534 24.5035C71.073 24.8963 70.3625 23.1834 72.1534 22.8727Z" fill="white"/>
<path d="M95.8752 19.2168L98.019 19.2289C98.0061 20.5382 97.3515 25.8302 99.8707 24.0529C100.649 23.5039 100.426 20.125 100.421 19.2296C101.116 19.2214 101.823 19.2271 102.519 19.2261V21.6376L102.524 25.7863C101.819 25.7925 101.115 25.7915 100.411 25.7832L100.434 24.8143C100.331 24.9314 100.226 25.046 100.118 25.1578C99.2681 26.027 97.4157 26.2901 96.6096 25.3924C95.4964 24.1527 95.8636 20.8465 95.8752 19.2168Z" fill="#3F3F43"/>
<path d="M115.051 19.1865C115.712 19.2025 116.434 19.1891 117.1 19.1895L117.104 22.9601L117.107 25.7862C116.427 25.7983 115.717 25.7875 115.034 25.786L115.051 24.8296C114.303 25.5544 113.909 25.9121 112.829 25.9341C110.572 25.9803 110.479 24.1098 110.51 22.3984C110.529 21.3571 110.521 20.2614 110.528 19.2204L112.041 19.205C112.102 19.2026 112.229 19.1987 112.287 19.2031C112.347 19.2076 112.494 19.2183 112.495 19.2199C112.937 20.4334 112.134 23.0069 112.892 24.1073C113.023 24.2978 113.386 24.3753 113.557 24.3753C113.899 24.3815 114.187 24.2969 114.436 24.0529C115.028 23.4741 115.064 22.65 115.052 21.8812C115.038 20.9777 115.04 20.0846 115.051 19.1865Z" fill="#3F3F43"/>
<path d="M63.8722 17.3379L66.0256 17.3461C65.9867 17.8696 66.0078 18.6899 66.0051 19.2354L68.1632 19.2284L68.1516 20.6974L65.9996 20.707C65.9935 21.6742 65.9491 22.7738 66.0563 23.7322C66.171 24.7606 67.5114 24.0986 68.0302 24.4365L68.0247 25.7914C67.5783 25.7985 67.1319 25.8032 66.6856 25.8053C63.404 25.8137 63.9125 24.3252 63.8688 21.6666C63.8633 21.3484 63.8702 21.014 63.8715 20.6953C63.5985 20.7168 63.1835 20.7145 62.8989 20.7208L62.9078 19.2286L63.8777 19.2289L63.8722 17.3379Z" fill="#3F3F43"/>
<path d="M119.217 19.1729C119.782 19.2149 120.671 19.1941 121.264 19.1965C121.267 20.7575 121.495 25.9221 121.024 27.0487C120.752 27.7015 120.283 28.0416 119.649 28.2949C119.193 28.4162 118.245 28.3825 117.739 28.3807L117.735 27.0595C118.006 27.0423 118.743 27.0105 118.875 26.8089C119.36 26.0674 119.213 24.1686 119.211 23.3585L119.217 19.1729Z" fill="#3F3F43"/>
<path d="M77.6401 16.6644L79.7553 16.6543L79.7614 25.7895L77.6456 25.7926L77.6401 16.6644Z" fill="#3F3F43"/>
<path d="M108.319 19.0432C108.725 19.0057 109.072 19.0231 109.478 19.0358C109.47 19.6713 109.477 20.3068 109.498 20.942C106.05 19.6638 106.66 23.7483 106.676 25.7862L104.934 25.7971C104.777 25.8017 104.747 25.8067 104.602 25.7497C104.478 25.4253 104.562 20.0613 104.564 19.2282L106.647 19.2267L106.63 20.3205C107.219 19.54 107.408 19.4007 108.319 19.0432Z" fill="#3F3F43"/>
<path d="M123.322 19.1885C124.014 19.2027 124.753 19.1901 125.448 19.1905L125.445 25.7855L123.327 25.7922C123.297 23.613 123.323 21.3727 123.322 19.1885Z" fill="#3F3F43"/>
<path d="M59.5206 19.2363L61.6661 19.2404L61.6654 25.7885C60.961 25.8027 60.2212 25.7925 59.5137 25.792L59.5206 19.2363Z" fill="#3F3F43"/>
<path d="M46.7409 19.2393L48.8246 19.242L48.828 25.7895C48.1304 25.794 47.4326 25.7947 46.7349 25.7915L46.7409 19.2393Z" fill="#3F3F43"/>
<path d="M59.5137 16.6654L61.6697 16.6641L61.667 18.3314C60.9585 18.344 60.2255 18.3363 59.5149 18.3369L59.5137 16.6654Z" fill="#3F3F43"/>
<path d="M123.319 16.6484L125.435 16.6501L125.452 18.2896L123.323 18.2943L123.319 16.6484Z" fill="#3F3F43"/>
<path d="M46.7349 16.6679C47.4282 16.66 48.1344 16.6667 48.829 16.6667L48.8282 18.334C48.1369 18.3438 47.4287 18.3369 46.7359 18.3374L46.7349 16.6679Z" fill="#3F3F43"/>
<path d="M119.207 16.6541L121.27 16.6475L121.266 18.2889L119.208 18.2967C119.215 17.7525 119.208 17.1992 119.207 16.6541Z" fill="#3F3F43"/>
<path d="M37.176 11.6577C37.2455 11.6548 37.3149 11.6533 37.3845 11.6533C37.7084 11.6535 38.2591 11.6584 38.4984 11.8991C38.5982 12.3282 38.1951 12.4957 38.493 12.9137C38.6475 13.1305 38.6146 13.3665 38.5964 13.6264C38.053 13.8675 37.7381 13.8417 37.1571 13.8364C37.1223 13.2493 37.1233 12.2263 37.176 11.6577Z" fill="#121415"/>
<path d="M37.3684 12.6689C37.4893 12.6802 37.6101 12.6932 37.7306 12.7079C38.052 12.7488 38.1018 12.7769 38.2871 13.0152C38.3486 13.2699 38.3257 13.3332 38.2649 13.5904L37.3623 13.6373L37.3684 12.6689Z" fill="white"/>
<path d="M37.3724 11.8232C37.639 11.8381 38.009 11.8182 38.2006 11.9807C38.3079 12.2534 38.2689 12.2003 38.2232 12.5262C37.9948 12.5594 37.6236 12.6099 37.4423 12.4748C37.3069 12.295 37.3559 12.0555 37.3724 11.8232Z" fill="white"/>
<path d="M72.7252 11.4795L72.8494 11.5473C72.9784 11.7359 73.0132 13.6447 72.8303 13.8095C72.4501 13.8317 72.0379 13.8938 71.6925 13.7523C71.0783 12.8996 71.3765 12.0839 72.5471 12.2345L72.6058 12.2425C72.689 11.9757 72.6999 11.7542 72.7252 11.4795Z" fill="#121415"/>
<path d="M71.9594 12.333C72.8262 12.4082 72.9102 13.2499 72.3628 13.6789C71.5322 13.7651 71.5683 12.8212 71.9594 12.333Z" fill="white"/>
<path d="M43.6745 12.1074C43.8945 12.1175 44.0176 12.2025 44.2035 12.2694C44.248 12.2854 44.2451 12.1654 44.4685 12.1915C44.665 12.6391 44.7194 14.3729 43.9688 14.4416C43.7104 14.4653 43.4346 14.4413 43.2343 14.2741C43.5394 14.238 44.2889 14.2853 44.3805 13.8888L44.2275 13.7606C44.0459 13.7989 43.9042 13.8206 43.7205 13.8449C42.8247 13.5198 43.0075 12.5985 43.6745 12.1074Z" fill="#121415"/>
<path d="M43.6767 12.3379C44.502 12.3758 44.5418 13.1946 44.0614 13.65C44.0339 13.6498 44.0064 13.6492 43.9789 13.6482C43.2132 13.6189 43.2122 12.7293 43.6767 12.3379Z" fill="white"/>
<path d="M64.5978 11.4785L64.7493 11.5623C64.8613 11.8147 64.8183 11.786 64.7882 12.0977C64.9193 12.3488 65.049 12.1894 65.3745 12.2335C66.2161 12.3475 66.0789 13.0734 65.7991 13.6458C65.5049 13.8954 64.6156 13.8737 64.5944 13.7753C64.477 13.2278 64.5043 12.0147 64.5978 11.4785Z" fill="#121415"/>
<path d="M65.2904 12.333C66.0043 12.512 65.833 13.311 65.3655 13.7283L65.0611 13.6456C64.7464 13.3932 64.7075 12.9873 64.8631 12.6346C64.9621 12.408 65.0788 12.4126 65.2904 12.333Z" fill="white"/>
<path d="M58.8721 12.1309C58.9576 12.1311 59.0431 12.1346 59.1283 12.1415C59.9802 12.2171 60.1672 13.2764 59.4062 13.8517C59.3186 13.8588 59.2307 13.8628 59.1427 13.8639C58.1994 13.8692 58.1893 12.7614 58.8721 12.1309Z" fill="#121415"/>
<path d="M58.9453 12.3076C59.8079 12.4009 59.7752 13.1248 59.3132 13.6927C58.5286 13.8428 58.4733 12.8156 58.9453 12.3076Z" fill="white"/>
<path d="M54.235 12.1391C55.3495 12.1136 55.5355 13.3068 54.7406 13.8658C54.3782 13.8685 54.1444 13.8995 53.899 13.5911C53.7556 13.4141 53.6919 13.1855 53.7231 12.9598C53.7776 12.5379 53.9185 12.3909 54.235 12.1391Z" fill="#121415"/>
<path d="M54.3796 12.3057C55.155 12.4562 55.1843 13.295 54.5713 13.7295C53.794 13.6273 53.7844 12.7773 54.3796 12.3057Z" fill="white"/>
<path d="M67.8743 12.1534C68.6981 12.0883 68.8032 12.2152 69.0619 13.0152C69.3615 13.9415 68.3336 13.9854 67.7405 13.7455C67.2498 12.5514 68.5452 13.1334 68.7589 12.5711L68.6305 12.4326C68.3746 12.3406 68.0791 12.3954 67.804 12.422L67.7603 12.33L67.8743 12.1534Z" fill="#121415"/>
<path d="M68.6548 12.9785C68.7128 12.9989 68.7578 13.0625 68.8049 13.113C68.8275 13.5093 68.4391 13.6699 68.1156 13.7242L67.9245 13.5269C67.8555 13.2766 67.8426 13.3715 67.9552 13.1672C68.1913 13.007 68.3736 13.0085 68.6548 12.9785Z" fill="white"/>
<path d="M50.188 12.1309C50.6553 12.1281 51.1953 12.3042 51.2254 12.8603C50.9978 13.2292 50.4626 12.9977 49.9837 13.1837L49.9415 13.3046C50.136 13.65 50.2171 13.6445 50.6018 13.7101C50.8271 13.6419 50.8496 13.5948 51.0441 13.6451L51.0075 13.7387C49.7023 14.3038 49.2534 12.9177 50.188 12.1309Z" fill="#121415"/>
<path d="M50.2887 12.335C50.5691 12.3575 51.0121 12.4846 50.9427 12.8416L50.769 12.8797C50.4743 12.8981 50.1592 12.966 49.9478 12.7397C50.0444 12.4823 50.0507 12.5352 50.2887 12.335Z" fill="white"/>
<path d="M69.6246 12.0928C70.0846 12.344 70.2989 12.05 70.6259 12.2001C71.0907 12.4134 71.1023 13.3244 70.8921 13.7352L70.8149 13.7287C70.7146 13.4352 70.7446 13.0111 70.748 12.6903C70.6887 12.5183 70.6702 12.5024 70.531 12.3842C70.2744 12.3272 70.3624 12.3143 70.1181 12.3868C69.727 12.7441 69.9236 13.4163 69.7181 13.8181C69.5386 13.5839 69.6157 12.4499 69.6246 12.0928Z" fill="#121415"/>
<path d="M41.275 12.0957C41.7221 12.316 41.7261 12.1276 42.265 12.1883C42.7533 12.5065 42.7444 13.5977 42.484 13.7548C42.4035 13.4632 42.4116 12.8946 42.405 12.5679C42.2298 12.3741 42.0668 12.3233 41.8159 12.3698C41.4096 12.6877 41.6095 13.4715 41.3844 13.8661C41.2187 13.6517 41.2724 12.439 41.275 12.0957Z" fill="#121415"/>
<path d="M60.4055 12.1045L60.538 12.2067C60.5905 12.6905 60.4779 13.3727 60.8267 13.6878C61.0874 13.7096 60.9891 13.7313 61.2089 13.623C61.544 13.2254 61.4198 12.7446 61.5078 12.2122L61.6116 12.1489L61.7262 12.2293C61.7276 12.5651 61.7911 13.5883 61.6955 13.8097C61.6737 13.811 61.6525 13.8122 61.6314 13.8132C60.1107 13.8844 60.3114 13.4407 60.4055 12.1045Z" fill="#121415"/>
<path d="M56.5225 12.0947C56.8871 12.2105 57.1458 13.2563 57.2717 13.6396C57.4798 13.0125 57.5538 12.7789 57.944 12.2476L58.0151 12.2463L57.9606 12.4566L58.0112 12.2283L57.9365 12.3047L57.9943 12.3925C57.9642 12.5432 57.7872 12.9373 57.72 13.098C57.5708 13.4823 57.3914 14.0577 57.1413 14.3498C56.9623 14.4359 56.9366 14.4508 56.7411 14.4271C56.6704 14.1932 57.1214 14.1685 57.1283 13.966C57.1397 13.6331 56.6373 12.4129 56.5225 12.0947Z" fill="#121415"/>
<path d="M46.1845 11.6006L46.3264 11.6546C46.4962 11.8634 46.4109 13.2714 46.402 13.6203C46.8332 13.6 47.2574 13.4997 47.5652 13.8172C47.2388 13.8573 46.5146 13.8417 46.1582 13.8433C46.1603 13.0957 46.1691 12.3481 46.1845 11.6006Z" fill="#3F3F43"/>
<path d="M49.1434 11.5508C49.3022 11.5773 49.3759 11.5582 49.4599 11.6585C49.2638 11.7212 48.9411 11.8116 48.9587 12.0606C49.0887 12.1408 49.253 12.1781 49.4021 12.2221L49.4277 12.3143L49.3584 12.3934L49.0565 12.3958C48.9336 12.547 49.0101 13.278 49.0218 13.518L48.9981 13.726L48.9101 13.792C48.6935 13.5299 48.6474 12.4159 48.7159 12.0474C48.7614 11.8024 48.9486 11.6715 49.1434 11.5508Z" fill="#121415"/>
<path d="M52.6475 11.7471L52.7919 11.8047C53.0025 12.0841 52.8391 13.0398 52.8918 13.5141C53.0847 13.738 53.0921 13.5198 53.3858 13.6884L53.3946 13.8726C53.3082 13.8651 53.0511 13.8442 52.9837 13.821C52.3778 13.6117 52.5296 12.1726 52.6475 11.7471Z" fill="#121415"/>
<path d="M66.5115 12.0879C66.962 12.3076 66.717 13.3544 66.6965 13.8617L66.5859 13.8375C66.3669 13.5332 66.4999 12.5409 66.5115 12.0879Z" fill="#121415"/>
<path d="M47.9011 12.1016C47.9844 12.1317 48.0132 12.1807 48.0704 12.2487C48.1437 12.7902 48.1254 13.3657 48.0669 13.9082C47.6851 13.7 47.8728 12.5312 47.9011 12.1016Z" fill="#3F3F43"/>
<path d="M62.3201 12.1016L62.5065 12.2101C62.6682 12.4875 62.5037 13.3463 62.488 13.8206C62.3829 13.8316 62.4362 13.8411 62.3338 13.7592C62.2649 13.3484 62.3386 12.6048 62.3201 12.1016Z" fill="#121415"/>
<path d="M40.5427 12.0596L40.6573 12.2097C40.7116 12.7181 40.7148 13.4213 40.6259 13.9228C40.5812 13.8759 40.526 13.7922 40.4863 13.7369C40.4415 13.2902 40.4162 12.4816 40.5427 12.0596Z" fill="#121415"/>
<path d="M39.1944 12.084C39.6379 12.3354 39.3729 13.2982 39.3524 13.8225C39.2887 13.8306 39.289 13.8152 39.2125 13.7844C39.14 13.4692 39.2015 12.5119 39.1944 12.084Z" fill="#121415"/>
</svg>
