<svg width="156" height="156" viewBox="0 0 156 156" fill="none" xmlns="http://www.w3.org/2000/svg">
<rect width="156" height="156" rx="78" fill="white"/>
<path d="M61.7742 56.8405C71.6666 56.8368 79.4348 55.5445 87.1159 63.2211C91.0874 67.2271 93.3105 72.6432 93.2989 78.2844C93.3318 84.0205 91.0474 89.5269 86.9634 93.5548C80.2789 100.185 74.0014 99.8574 65.5061 99.8359L65.5201 102.843C69.7352 102.843 73.6537 103.049 77.7815 102.03C84.1155 100.455 89.5511 96.4008 92.8657 90.7782C96.5014 84.7059 97.0213 78.2478 95.3353 71.4848C95.9758 71.9427 96.4091 74.3755 96.271 75.2099L96.4133 75.3549C96.5778 75.2696 96.652 75.2295 96.8331 75.1689C97.0178 75.4083 96.9952 75.5477 97.0152 75.8523C97.3558 76.2583 98.1881 76.1452 98.4149 76.373C99.6096 77.5731 105.044 83.1701 106.383 83.3437C106.61 83.1483 106.765 83.012 107.021 82.8458L107.246 82.9727C107.18 83.5252 106.981 84.4513 107.23 84.8938L107.231 84.8944C107.309 84.2289 107.424 83.0985 107.591 82.4856L107.773 82.4308C107.724 84.279 107.315 85.9184 106.833 87.6896C105.223 93.8125 102.013 99.397 97.5331 103.871C91.9182 109.491 84.1989 113.472 76.2734 114.307C72.1443 114.742 66.0364 114.572 61.7729 114.574L61.7742 56.8405Z" fill="#FF5D40"/>
<path d="M47.0207 42.0238L65.1633 42.0295C67.807 42.0291 72.9171 41.8892 75.3084 42.2224C73.5919 42.388 60.6181 42.2705 60.2117 42.4235C60.1203 42.458 59.9758 42.6061 59.8925 42.6704L59.9578 42.8034L60.4316 42.9244C61.404 44.4897 62.111 45.6884 63.5359 46.954C65.3133 48.5326 66.8592 50.5078 68.7282 52.0068C69.0128 52.2351 69.3149 53.0564 69.1839 53.4596L69.2495 53.4264L68.714 53.5502C69.5586 53.8656 73.2364 53.4001 73.7577 53.7363L73.6603 53.8746C68.8362 53.7467 63.6981 53.8063 58.8576 53.8267L58.8806 114.57L47.0498 114.575C46.99 110.671 47.108 106.736 47 102.825L55.0807 102.841C55.065 101.856 55.0828 100.828 55.085 99.8395C52.4059 99.819 49.7266 99.8273 47.0477 99.8642C46.9631 94.0037 47.0394 87.9562 47.0392 82.0838L47.0207 42.0238Z" fill="#FF6A35"/>
<path d="M75.3085 42.2222C76.5866 42.2284 78.3448 42.6166 79.618 42.9034C86.4286 44.4038 92.6616 47.8381 97.5686 52.7939C104.41 59.6994 108.22 69.0158 107.99 78.7057C107.965 79.7738 107.948 81.4026 107.772 82.43L107.591 82.4848C107.424 83.0977 107.309 84.2281 107.231 84.8936L107.23 84.893C106.98 84.4505 107.18 83.5244 107.246 82.9719L107.021 82.845C106.765 83.0112 106.61 83.1475 106.382 83.3429C105.044 83.1693 99.6095 77.5723 98.4148 76.3722C98.188 76.1444 97.3557 76.2575 97.0151 75.8515C96.9951 75.5469 97.0177 75.4075 96.833 75.1681C96.6519 75.2287 96.5777 75.2688 96.4132 75.3541L96.2709 75.2091C96.409 74.3747 95.9757 71.9419 95.3352 71.484C95.1261 71.1361 94.5375 69.3407 94.3412 68.8632C90.7868 60.2142 82.8029 54.7741 73.6604 53.8744L73.7577 53.7361C73.2365 53.3999 69.5586 53.8654 68.7141 53.55L69.2495 53.4262L69.1839 53.4594C69.315 53.0562 69.0128 52.2349 68.7282 52.0066C66.8592 50.5076 65.3134 48.5324 63.536 46.9538C62.111 45.6882 61.404 44.4895 60.4316 42.9242L59.9578 42.8032L59.8926 42.6703C59.9758 42.6059 60.1204 42.4579 60.2117 42.4233C60.6181 42.2704 73.5919 42.3878 75.3085 42.2222Z" fill="#FE3460"/>
</svg>
