<svg width="137" height="38" viewBox="0 0 137 38" fill="none" xmlns="http://www.w3.org/2000/svg">
<path d="M11.9937 27.8288C10.3855 23.3016 10.7262 17.9085 12.7885 13.5693C14.9608 9.01863 18.8594 5.52217 23.62 3.85501C25.9786 3.01858 27.98 2.8234 30.4705 2.85349C38.2469 2.94744 45.1657 8.14377 47.7506 15.4459C49.4158 20.1657 49.1397 25.3529 46.9831 29.8695C46.3902 31.1099 45.3016 32.8258 44.3775 33.8774L25.0589 33.8835C24.6629 33.9179 24.2645 33.9161 23.8669 33.913C20.7788 33.888 17.6869 33.9745 14.6004 33.8726C14.0438 33.8542 13.5194 33.8748 12.9639 33.8178C12.9236 32.9656 13.2075 31.2395 13.2589 30.225C13.0926 30.1105 12.8897 29.9465 12.725 29.8212C12.1838 31.6019 10.1604 32.7294 8.39184 32.8834C7.58272 32.9538 5.32137 32.8391 5.44957 31.6569C5.61669 30.1159 8.52663 30.2978 9.59217 29.75C10.5657 29.2495 11.2412 28.5759 11.9937 27.8288Z" fill="#F6891E"/>
<path d="M32.439 23.7777C33.3519 23.2468 34.7621 22.1555 35.6581 21.5013L41.2484 17.4208C41.8729 16.9661 43.9788 15.1571 44.6948 15.4609C44.9075 16.0833 41.7069 18.1484 41.0906 18.5898L35.6914 22.4408C34.9178 22.9895 33.7915 23.7236 33.1272 24.3935C32.702 24.8224 32.6213 25.9226 32.443 26.5094C31.9657 28.0806 30.4171 29.4428 28.8884 29.9619C27.796 30.333 26.572 30.2714 25.4259 30.2795C25.3899 31.1935 25.443 33.2219 25.0589 33.8836C24.6629 33.918 24.2645 33.9163 23.8669 33.9131C20.7788 33.8881 17.6869 33.9746 14.6004 33.8727C14.0438 33.8543 13.5194 33.8749 12.9639 33.8179C12.9236 32.9657 13.2075 31.2396 13.2589 30.2251C13.0926 30.1106 12.8897 29.9466 12.725 29.8213C12.1838 31.602 10.1604 32.7295 8.39184 32.8835C7.58272 32.9539 5.32137 32.8392 5.44957 31.657C5.61669 30.116 8.52663 30.2979 9.59217 29.7501C10.5657 29.2496 11.2412 28.5761 11.9937 27.8289C12.2909 27.5542 13.551 26.1253 13.6296 26.0729C15.2151 25.0172 17.9649 24.0816 19.8973 24.2038C20.7237 24.2561 21.5328 24.3888 22.2584 24.7537C24.0746 25.6671 26.8902 28.1641 28.9405 26.4087C29.8748 25.6087 30.0559 23.6792 31.777 23.7131C31.988 23.7172 32.2313 23.752 32.439 23.7777Z" fill="black"/>
<path d="M19.0528 14.4428C21.454 14.0485 23.7213 15.6717 24.1205 18.0711C24.5197 20.4704 22.9001 22.7398 20.5005 23.1435C18.0943 23.5483 15.8162 21.924 15.4159 19.5181C15.0156 17.1121 16.645 14.8382 19.0528 14.4428Z" fill="black"/>
<path d="M66.9965 9.98008C68.4181 9.93783 69.9235 9.98533 71.3412 9.96501C73.3151 9.9367 74.998 10.0898 76.4382 11.58C77.9636 13.1578 78.5126 15.2299 78.474 17.3765C78.4308 19.7783 77.8466 21.4292 76.1299 23.1145C74.3201 24.8266 71.9513 24.488 69.6596 24.5137C68.5637 24.5259 67.2643 24.6503 66.2737 24.1544C65.9051 23.4004 65.9667 23.4171 65.9812 22.5845C66.0033 21.3153 66.0019 20.0383 66.0013 18.7683L65.9919 13.8305C65.9861 12.977 65.9689 12.1228 65.9649 11.2694C65.9613 10.5211 66.3014 10.1715 66.9965 9.98008ZM68.6049 22.0791C70.43 22.0215 73.1889 22.4309 74.4244 21.1195C74.4822 21.0583 74.5381 20.9962 74.5932 20.9331C76.1963 18.8607 76.207 14.7312 74.0396 13.0145C72.5162 11.8081 70.3143 12.6122 68.6228 12.3076C68.5464 15.6877 68.5284 18.695 68.6049 22.0791Z" fill="black"/>
<path d="M54.1155 10.7912C54.3935 10.2963 54.7007 10.0119 55.2946 9.99444C57.2381 9.9373 59.1847 9.97345 61.1297 9.96189C61.6843 9.95856 62.3267 9.94176 62.873 10.0509C63.7616 10.2794 63.913 11.7506 63.0974 12.1587C62.085 12.5035 58.034 12.3069 56.6925 12.3457C56.6902 12.8508 56.6373 15.5085 56.7362 15.7805C56.9317 15.8521 57.0427 15.8096 57.243 15.7633C58.1586 16.0167 60.7551 15.8005 61.8443 15.8118C62.6787 16.3415 62.6845 16.5354 62.671 17.4923C62.4232 17.8715 62.2476 17.9994 61.8798 18.2584C60.6327 18.378 58.0423 18.2899 56.712 18.2833C56.6991 19.5419 56.6954 20.8007 56.7009 22.0594C58.13 22.0561 59.5824 22.062 61.0102 22.0414C62.5461 22.0192 64.0995 21.9553 63.4241 24.0651C62.4389 24.7952 60.0252 24.4685 58.7478 24.496C57.637 24.5199 55.2129 24.7287 54.3831 24.1075C53.7991 23.0823 54.2886 15.8952 54.1303 14.3636C54.0668 13.749 54.0859 11.4467 54.1155 10.7912Z" fill="black"/>
<path d="M81.718 9.98255C82.7056 9.90808 82.8093 10.0351 83.4068 10.7509C83.5398 13.299 83.339 15.8844 83.4215 18.4389C83.4573 19.5373 83.7498 20.5364 84.5819 21.3081C85.2213 21.9011 85.9324 22.0852 86.7945 22.0507C88.1437 21.9966 89.3746 21.1123 89.78 19.8085C90.3808 17.8783 89.3733 11.26 90.3523 10.2422C90.5802 10.0052 90.888 9.97637 91.1983 9.97292C91.4855 9.9698 91.7978 10.0073 92.0105 10.219C92.6539 10.8598 92.3096 13.0199 92.3169 13.9676C92.3143 14.7659 92.3063 15.6271 92.3269 16.42C92.3714 18.1333 92.5801 19.5031 91.9421 21.1407C91.4197 22.4712 90.3935 23.5422 89.0861 24.121C86.4509 25.2678 82.8047 24.4059 81.494 21.6866C81.2753 21.2326 81.175 20.6048 80.957 20.1012L80.9158 20.2165L81.0115 20.1416L80.8653 20.1818C80.7662 19.9998 80.8041 11.4159 80.8261 10.6529C81.0773 10.4219 81.4089 10.1059 81.718 9.98255Z" fill="black"/>
<path d="M118.613 9.97891C121.62 9.79748 124.964 10.062 128.001 9.9904C129.254 9.86916 129.713 11.2867 128.914 12.0249C128.363 12.5349 125.562 12.3566 124.847 12.3197C124.786 15.2715 124.764 18.0152 124.772 20.9782C124.783 21.8485 124.818 22.811 124.742 23.671C124.031 24.7096 122.224 24.8774 122.131 23.4657C122.05 22.236 122.107 20.8554 122.111 19.6112C122.119 17.1924 122.113 14.7734 122.091 12.3546C120.965 12.3293 118.659 12.6562 117.784 11.8843C117.465 11.6023 117.509 11.1397 117.523 10.7394C117.88 10.1812 117.967 10.1359 118.613 9.97891Z" fill="black"/>
<path d="M106.721 10.0508C107.628 10.8911 108.969 13.1638 109.819 14.1846C110.118 14.5434 110.349 15.0333 110.736 15.3855C111.024 15.0734 111.541 14.2682 111.797 13.8877C112.377 13.0118 112.971 12.1447 113.578 11.2867C114.126 10.5193 114.808 9.37716 115.926 10.1239C116.193 10.3019 116.378 10.5789 116.44 10.8936C116.564 11.5592 115.872 12.4874 115.499 13.0161C114.685 14.1693 113.847 15.2979 113.058 16.47C112.747 16.9549 112.3 17.5223 111.948 17.9919C111.675 19.7293 112.144 22.3659 111.663 23.9773C111.342 24.235 110.965 24.4909 110.54 24.4774C109.464 24.4432 109.391 23.2397 109.391 22.4906C109.391 20.9465 109.433 19.4246 109.381 17.9001C108.116 16.2436 106.888 14.5523 105.622 12.8977C104.779 11.7953 103.994 10.5391 105.837 9.91195C106.138 9.89329 106.429 9.97972 106.721 10.0508Z" fill="black"/>
<path d="M96.7636 9.99454C96.8713 9.98417 97.2933 10.0355 97.4242 10.0491L98.0257 10.678C98.0895 11.8597 98.0503 13.3567 98.049 14.5535C98.0291 17.0605 98.047 19.5677 98.1028 22.0743C98.9928 22.028 103.803 21.8937 104.354 22.2664C104.56 22.4053 104.68 22.6695 104.726 22.9066C104.792 23.2566 104.769 23.729 104.556 24.028C104.307 24.3745 103.907 24.4329 103.518 24.5028C102.102 24.5148 100.686 24.5184 99.2699 24.5137C98.4385 24.5133 97.6103 24.5347 96.7789 24.4732C95.9667 24.4131 95.4742 24.0552 95.4549 23.2037C95.4363 22.4047 95.4529 21.6031 95.4549 20.8035L95.4543 16.441C95.4529 14.6725 95.4124 12.8821 95.4928 11.1186C95.5327 10.2416 95.972 10.0268 96.7636 9.99454Z" fill="black"/>
<path d="M107.593 30.5646C107.913 30.5465 108.391 30.6486 108.714 30.7125C109.182 31.1521 109.235 31.3291 109.428 31.925C109.319 32.3784 109.211 32.5722 108.972 32.9707C108.766 33.0804 108.554 33.1762 108.343 33.2748C107.649 33.2974 107.491 33.3188 106.851 33.0133C106.189 31.944 106.306 31.006 107.593 30.5646ZM108.229 32.913C108.771 32.7358 109.066 32.153 108.888 31.6121C108.71 31.071 108.126 30.7771 107.585 30.9559C107.046 31.1343 106.752 31.716 106.93 32.2558C107.108 32.7956 107.689 33.0897 108.229 32.913Z" fill="black"/>
<path d="M78.5142 30.655C79.24 30.565 79.9205 30.5715 80.3339 31.2939C80.5034 31.5862 80.5506 31.934 80.4636 32.2608C80.3193 32.7841 79.9937 33.0158 79.551 33.2644C79.0918 33.2905 78.7422 33.3479 78.3148 33.1414C77.2082 32.6071 77.3584 31.0077 78.5142 30.655ZM79.2074 33.0262C80.5387 32.6462 80.1286 31.0344 79.107 30.8308C77.8927 31.0474 77.7379 31.9424 78.4258 32.851C78.6877 32.9137 78.9429 32.976 79.2074 33.0262Z" fill="black"/>
<path d="M89.6546 30.646C90.1006 30.5726 90.399 30.6218 90.835 30.6863C91.3893 31.1184 91.4478 31.3414 91.6232 31.9991C91.4837 32.4161 91.4106 32.5863 91.1686 32.9561L90.621 33.2704C89.8832 33.3086 89.741 33.314 89.073 33.0106C88.53 32.1383 88.5094 30.9814 89.6546 30.646ZM90.2255 32.9863C91.6053 32.7454 91.4252 31.1207 90.062 30.8294C88.7553 31.2366 88.7407 32.8644 90.2255 32.9863Z" fill="black"/>
<path d="M60.4684 30.6104C61.1869 30.6673 61.8829 30.4812 62.5555 30.9177C63.342 31.4283 63.1034 32.3083 62.668 32.9608C61.831 33.3699 61.4037 33.2627 60.4668 33.2846C60.5178 32.5028 60.5063 31.3809 60.4684 30.6104ZM60.8383 32.9408C61.3773 32.9947 61.8845 33.0474 62.3669 32.7126C62.683 32.4268 62.8337 31.6977 62.4781 31.3707C62.0543 30.9811 61.6317 30.8778 61.0741 30.8657C60.9971 30.8641 60.92 30.8637 60.8429 30.8643C60.8359 31.5564 60.8343 32.2486 60.8383 32.9408Z" fill="black"/>
<path d="M101.597 30.5908C101.932 30.5617 102.619 30.5848 102.814 30.8444C103.916 32.3074 102.469 32.4316 101.487 32.4491L101.394 32.4655C101.411 32.7879 101.439 33.174 101.181 33.3997L101.049 33.3767C100.984 32.7937 100.978 31.2831 101.036 30.6972C101.171 30.5995 101.405 30.6102 101.597 30.5908ZM101.409 32.1535C101.754 32.1539 102.244 32.1834 102.555 32.0659C103.211 31.0455 102.213 30.8968 101.457 30.8218C101.388 31.2827 101.404 31.6896 101.409 32.1535Z" fill="black"/>
<path d="M97.0454 30.417C97.4023 30.6528 98.1254 32.076 98.3434 32.4928C98.5648 32.1249 99.2374 30.7349 99.4972 30.576L99.6182 30.6221C99.8548 30.9945 99.8382 33.05 99.5604 33.3397C99.4195 33.0511 99.369 32.4659 99.3198 32.1182L99.3018 31.523L99.2327 31.531C98.9901 32.1614 98.6758 32.6262 98.3275 33.2017C98.059 32.6316 97.5831 31.8409 97.2348 31.3154C97.296 31.6597 97.4395 33.1307 97.163 33.3134C96.7609 32.9518 96.8194 30.8873 97.0454 30.417Z" fill="black"/>
<path d="M71.6694 30.4736C71.8608 30.6429 72.8884 32.9343 72.7847 33.2121C72.3985 33.1667 72.5448 32.6897 71.5172 32.6487C70.598 32.6632 70.9463 32.8678 70.4 33.3201L70.3109 33.2508C70.2112 32.7583 71.1696 30.7693 71.6694 30.4736ZM71.7306 32.355L72.0077 32.3397C72.1327 32.0771 71.6887 31.3937 71.609 31.0626C71.4548 31.3353 71.1118 31.8615 71.1032 32.1456C71.2314 32.4698 71.391 32.3799 71.7306 32.355Z" fill="black"/>
<path d="M122.108 30.4711L122.218 30.5666C122.347 30.8639 122.303 33.0564 122.302 33.5226C121.935 33.2154 121.716 33.0083 121.407 32.6425C121.165 32.3546 120.799 31.6897 120.522 31.4971L120.432 31.5267C120.253 32.0147 120.58 33.1758 120.139 33.3665C119.952 32.9596 120.035 30.9517 120.041 30.4062C120.739 30.8603 121.577 31.9868 121.915 32.7193C121.879 32.2962 121.9 30.7906 122.108 30.4711Z" fill="black"/>
<path d="M113.394 31.3823C113.385 31.8538 113.547 33.1688 113.225 33.434L113.152 33.3793C113.064 33.0033 113.008 31.0572 113.126 30.6584L113.239 30.6359C113.633 30.874 114.209 31.9019 114.399 32.3352L114.514 32.3444C114.957 31.9137 115.319 30.6694 115.8 30.6309C115.952 30.8147 115.908 30.7471 115.936 31.0197C115.812 31.3008 115.757 31.4457 115.436 31.531C115.331 31.6272 114.737 32.7585 114.448 33.0985C114.119 32.5251 113.746 31.9448 113.394 31.3823Z" fill="black"/>
<path d="M65.9849 30.5049L66.1323 30.5514C66.3988 30.9398 66.3224 32.6729 65.8654 33.0662C65.3781 33.4855 64.7915 33.5198 64.3446 33.0416C63.8682 32.5318 63.9469 31.9009 63.9559 31.2756C63.9469 31.1087 63.9262 30.9505 63.9796 30.7919C64.1413 30.6206 64.08 30.6373 64.2751 30.5985C64.6883 31.1465 63.9446 32.6863 64.9602 32.9734C66.2376 33.3345 65.7886 31.3726 65.9795 30.528L65.9849 30.5049Z" fill="black"/>
<path d="M117.109 30.4951C117.586 30.5092 118.556 30.507 118.97 30.7189L118.915 30.789C118.456 30.9091 117.969 30.881 117.494 30.8768C117.485 31.5085 117.357 31.732 117.963 31.7093C118.162 31.7018 118.748 31.7617 118.869 31.8863L118.839 31.9831C118.645 32.1378 117.806 32.1227 117.47 32.1456C117.476 32.3816 117.454 32.7707 117.579 32.9486C117.454 33.2401 117.378 33.2098 117.05 33.2612C117.052 32.3789 117.031 31.3639 117.109 30.4951Z" fill="black"/>
<path d="M94.8825 30.5902C95.1723 30.5777 95.7765 30.4631 95.8828 30.7451C95.6256 30.9695 94.7582 30.8512 94.3827 30.8305C94.3648 31.1462 94.3754 31.4804 94.3801 31.798C94.729 31.7564 95.5698 31.6537 95.7552 31.9635L95.6602 32.0569C95.3278 32.1336 94.8015 32.089 94.4465 32.0745C94.3608 32.152 94.3515 32.5204 94.3355 32.6701L94.3841 32.9146C94.6313 33.0604 95.5744 32.8494 95.8908 33.0361L95.8974 33.1834C95.8702 33.2095 95.8383 33.2398 95.8024 33.2743C95.2807 33.2677 94.5363 33.2616 94.0531 33.3343L94.0444 30.5982C94.3355 30.6206 94.5914 30.6038 94.8825 30.5902Z" fill="black" fill-opacity="0.988235"/>
<path d="M58.4016 30.5918C58.6928 30.5768 59.0505 30.5917 59.322 30.702L59.3056 30.7616C58.7961 30.9408 58.4306 30.8629 57.8973 30.8089L57.8754 31.8229C58.2526 31.7779 59.0189 31.6077 59.2137 31.9819L59.1453 32.077C58.8204 32.1805 58.3931 32.0133 57.9576 32.0831C57.8632 32.1968 57.8677 32.5967 57.8587 32.7673L57.8766 32.8676C58.1573 33.1596 59.022 32.839 59.3786 33.0258L59.4021 33.1312C59.1275 33.386 58.0181 33.275 57.6359 33.2313C57.4706 33.0464 57.532 30.9633 57.5329 30.5913C57.8424 30.6196 58.091 30.605 58.4016 30.5918Z" fill="black" fill-opacity="0.988235"/>
<path d="M68.2205 30.6427C68.6133 30.5877 69.1158 30.5902 69.476 30.7726C69.6196 30.9761 69.579 30.8918 69.6043 31.1711C69.3464 31.2184 68.8572 30.7992 68.6525 30.8297C67.3631 31.0218 67.1272 32.9384 68.7914 32.9837C69.0088 32.9532 69.3092 32.7791 69.6129 32.7081L69.6375 32.8253C69.3604 33.4988 68.1035 33.3644 67.6323 32.9758C67.2442 32.6557 67.2295 32.0605 67.2109 31.5893C67.4535 30.9886 67.5991 30.8261 68.2205 30.6427Z" fill="black"/>
<path d="M109.897 30.46C109.969 30.4719 110.038 30.4971 110.1 30.5343C110.377 30.7012 110.958 31.6889 111.051 32.0414C111.324 31.6215 111.768 30.6238 112.131 30.4783L112.232 30.5366C112.266 30.7715 111.966 31.2425 111.842 31.4528C111.622 31.8207 111.502 32.0504 111.186 32.349C111.188 32.6385 111.216 33.213 111.07 33.4395L110.993 33.4243C110.856 33.0927 110.839 32.3707 110.726 32.1375C110.463 31.5989 109.941 31.1218 109.897 30.46Z" fill="black"/>
<path d="M81.4409 31.0324C81.4894 30.7629 81.4383 30.7932 81.6264 30.6572C82.2584 30.7863 82.9144 32.2548 83.2846 32.5C83.4767 32.6417 83.6661 32.9173 83.7359 33.1424C83.712 33.1768 83.6402 33.2422 83.607 33.2749C82.9689 33.2392 82.4033 31.8516 81.8856 31.4334C81.7852 31.3692 81.5399 31.1257 81.4409 31.0324Z" fill="black"/>
<path d="M73.1455 30.54C73.6985 30.5854 74.3558 30.6685 74.8942 30.5758C75.1235 30.5364 75.2876 30.5141 75.4757 30.6487C75.3541 31.084 74.8124 30.7157 74.5372 30.9259C74.4475 31.2006 74.4854 31.8847 74.4901 32.204C74.496 32.4921 74.6077 33.1717 74.3186 33.2794C74.1232 33.0167 74.1225 31.2343 74.0959 30.7949C73.854 30.8438 73.6141 30.9071 73.3695 30.8874C73.1608 30.7627 73.2239 30.8235 73.1455 30.54Z" fill="black" fill-opacity="0.984314"/>
<path d="M123.223 30.5059C123.588 30.5817 125.094 30.5896 125.25 30.7323C125.009 30.8288 124.709 30.8229 124.445 30.834C124.396 31.3298 124.412 32.0715 124.409 32.5874C124.417 32.8125 124.427 33.1558 124.313 33.3472L124.208 33.3133C124.027 32.9707 124.09 31.3322 124.07 30.804C123.821 30.8471 123.432 30.9476 123.213 30.8599C123.138 30.6798 123.16 30.7365 123.223 30.5059Z" fill="black"/>
<path d="M86.1066 30.5887C86.5073 30.5838 87.8579 30.5395 88.1623 30.6649L88.1782 30.7736C87.9775 30.89 87.6532 30.8506 87.3634 30.8797C87.1101 31.1404 87.1999 32.2072 87.2045 32.6352C87.2158 32.9699 87.148 33.3952 87.1042 33.7346C86.8244 32.7023 87.0304 31.8428 86.8436 30.8225C86.5539 30.8339 86.2029 30.8525 85.9337 30.7517L85.9185 30.675L86.1066 30.5887Z" fill="black" fill-opacity="0.980392"/>
<path d="M104.138 33.2901C104.101 32.9556 104.08 30.8185 104.223 30.6095L104.35 30.5977C104.672 30.9632 104.343 32.6265 104.567 32.9823C104.476 33.2319 104.402 33.236 104.138 33.2901Z" fill="black" fill-opacity="0.984314"/>
<path d="M83.2847 32.5003C83.3192 32.0147 83.2561 30.825 83.4688 30.576L83.6123 30.5664C83.8589 30.803 83.7433 32.6755 83.736 33.1428C83.6662 32.9176 83.4767 32.642 83.2847 32.5003Z" fill="#343335"/>
<path d="M76.4111 30.4541C76.7774 30.7968 76.673 33.0319 76.4683 33.5025C76.4065 33.4144 76.3593 33.3168 76.3287 33.2136C76.2131 32.8198 76.2078 30.8394 76.4111 30.4541Z" fill="black"/>
<path d="M115.936 31.0195C115.937 31.5699 116.077 32.8346 115.878 33.2189C115.729 33.3084 115.792 33.2919 115.598 33.2506C115.423 32.9514 115.499 31.9984 115.437 31.5309C115.757 31.4455 115.812 31.3006 115.936 31.0195Z" fill="#343335"/>
<path d="M81.4413 31.0322C81.5403 31.1256 81.7855 31.369 81.8859 31.4333C81.8713 31.795 81.8912 33.0619 81.6725 33.2773L81.5842 33.271C81.3735 32.9134 81.4419 31.5234 81.4413 31.0322Z" fill="#343335"/>
<path d="M117.578 32.9489C117.883 32.9056 118.819 32.8602 119.042 33.0553C118.807 33.3174 117.29 33.4448 117.049 33.2614C117.378 33.21 117.453 33.2403 117.578 32.9489Z" fill="#343335" fill-opacity="0.988235"/>
<path d="M104.567 32.9828C104.98 32.965 105.46 32.9168 105.853 33.0282L105.944 33.1129C105.725 33.373 104.298 33.387 104.138 33.2906C104.402 33.2365 104.476 33.2324 104.567 32.9828Z" fill="#343335"/>
</svg>
