<svg width="156" height="156" viewBox="0 0 156 156" fill="none" xmlns="http://www.w3.org/2000/svg">
<rect width="156" height="156" rx="78" fill="white"/>
<path d="M45.3325 98.6621C41.8131 88.7549 42.5587 76.9526 47.072 67.4566C51.8256 57.4981 60.3573 49.8465 70.7754 46.1981C75.9369 44.3676 80.3168 43.9405 85.767 44.0063C102.785 44.2119 117.926 55.5835 123.582 71.5635C127.227 81.8921 126.622 93.2438 121.903 103.128C120.605 105.842 118.223 109.597 116.201 111.899L73.9242 111.912C73.0577 111.987 72.1858 111.983 71.3156 111.977C64.5578 111.922 57.7915 112.111 51.037 111.888C49.8189 111.848 48.6714 111.893 47.4556 111.768C47.3675 109.903 47.9889 106.126 48.1013 103.906C47.7374 103.655 47.2933 103.296 46.9329 103.022C45.7487 106.919 41.3205 109.387 37.4503 109.723C35.6796 109.877 30.7309 109.627 31.0115 107.039C31.3772 103.667 37.7453 104.065 40.0771 102.866C42.2074 101.771 43.6858 100.297 45.3325 98.6621Z" fill="#F6891E"/>
<path d="M90.0748 89.7966C92.0725 88.6348 95.1586 86.2465 97.1194 84.815L109.353 75.8852C110.72 74.8901 115.328 70.9315 116.895 71.5963C117.361 72.9582 110.356 77.4776 109.008 78.4435L97.1923 86.8709C95.4994 88.0718 93.0346 89.6782 91.5809 91.1443C90.6503 92.0829 90.4737 94.4905 90.0835 95.7747C89.039 99.213 85.6501 102.194 82.3048 103.33C79.9141 104.142 77.2355 104.007 74.7274 104.025C74.6487 106.025 74.7648 110.464 73.9242 111.912C73.0577 111.987 72.1859 111.984 71.3156 111.977C64.5578 111.922 57.7915 112.111 51.037 111.888C49.8189 111.848 48.6714 111.893 47.4556 111.768C47.3675 109.904 47.9889 106.126 48.1013 103.906C47.7374 103.655 47.2933 103.296 46.9329 103.022C45.7487 106.919 41.3205 109.387 37.4503 109.724C35.6796 109.878 30.7309 109.627 31.0115 107.04C31.3772 103.667 37.7453 104.065 40.0771 102.867C42.2074 101.771 43.6858 100.297 45.3325 98.6623C45.983 98.061 48.7405 94.9339 48.9126 94.8194C52.3823 92.5091 58.3999 90.4617 62.6286 90.729C64.4371 90.8435 66.2078 91.1339 67.7958 91.9324C71.7703 93.9312 77.9319 99.3957 82.4187 95.5541C84.4634 93.8036 84.8597 89.581 88.6261 89.6551C89.0879 89.6641 89.6203 89.7403 90.0748 89.7966Z" fill="black"/>
<path d="M60.7807 69.3684C66.0354 68.5054 70.9972 72.0577 71.8708 77.3085C72.7444 82.5591 69.2001 87.5254 63.9488 88.4089C58.683 89.2947 53.6977 85.7401 52.8218 80.4751C51.9458 75.2099 55.5116 70.2337 60.7807 69.3684Z" fill="black"/>
</svg>
