<svg width="175" height="176" viewBox="0 0 175 176" fill="none" xmlns="http://www.w3.org/2000/svg">
<path d="M86.8456 139.97C96.5436 139.613 104.697 147.181 105.061 156.878C105.426 166.576 97.8625 174.734 88.1655 175.105C78.4591 175.475 70.2913 167.904 69.9267 158.198C69.562 148.491 77.1388 140.329 86.8456 139.97Z" fill="black"/>
<path d="M119.483 130.893C124.092 130.071 128.839 131.137 132.654 133.85C136.432 136.529 138.992 140.599 139.769 145.164C140.584 149.8 139.5 154.568 136.764 158.398C134.079 162.155 130.025 164.708 125.475 165.505C124.164 165.728 121.608 165.973 120.32 165.569C107.194 161.445 106.97 135.979 119.398 131.163L119.483 130.893Z" fill="black"/>
<path d="M55.6228 165.449C52.882 166.024 50.0709 165.756 47.4156 164.901C42.9032 163.468 39.1592 160.276 37.0309 156.047C34.9205 151.801 34.5966 146.888 36.1314 142.403C37.633 137.991 40.8409 134.367 45.0368 132.341C61.105 124.497 68.1095 143.844 63.6027 156.244C62.0464 160.526 59.8887 163.283 55.7387 165.224L55.6228 165.449Z" fill="black"/>
<path d="M147.047 104.978C153.627 104.609 159.862 107.943 163.208 113.619C166.555 119.296 166.456 126.365 162.95 131.944C159.444 137.523 153.117 140.679 146.551 140.126L146.437 139.995C145.713 139.212 144.869 138.649 144.275 137.725C140.422 131.738 140.271 121.008 141.759 114.163C142.449 110.993 143.641 107.2 146.543 105.399L146.68 105.316L146.649 105.145L147.047 104.978Z" fill="black"/>
<path d="M26.17 104.985C26.6179 104.945 28.0827 104.968 28.4224 105.186C29.8104 106.078 31.1123 107.887 31.7312 109.418C34.8705 117.183 34.8603 126.782 32.1767 134.688C31.55 136.463 29.7822 139.568 28.0091 140.104C25.7291 140.793 21.4383 139.477 19.3543 138.553C18.7444 138.254 18.1489 137.926 17.5699 137.57C13.5631 135.082 10.7428 131.069 9.75918 126.455C8.75206 121.887 9.60184 117.105 12.1215 113.163C14.424 109.558 17.9747 106.928 22.0945 105.776C23.5597 105.375 24.7438 105.295 26.17 104.985Z" fill="black"/>
<path d="M17.7289 105.212C8.00272 105.279 0.0641549 97.4478 0.000386498 87.7221C-0.0633819 77.9956 7.77181 70.0605 17.498 70.001L17.573 70.2178C17.4912 70.9773 17.5519 72.7618 17.5572 73.5905L17.5504 79.1435L17.5557 96.1625C17.5601 98.948 17.6616 102.225 17.5603 104.966L17.7289 105.212Z" fill="black"/>
<path d="M157.52 70.1659C157.639 70.1163 158.199 70.1021 158.383 70.0908C163.405 70.4857 167.524 72.3986 170.82 76.2579C179.546 86.4779 173.869 102.425 160.678 104.889C159.618 105.087 158.716 105.183 157.641 105.177L157.526 104.954C157.378 104.303 157.434 99.7504 157.435 98.8117L157.454 83.6455L157.451 74.8496C157.448 73.6696 157.376 71.2219 157.52 70.1659Z" fill="black"/>
<path d="M141.371 36.3761C146.091 34.5795 150.634 34.5664 155.296 36.6527C159.56 38.5777 162.881 42.123 164.523 46.5037C166.175 50.9862 165.986 55.9405 163.998 60.2841C162.048 64.529 158.466 67.8051 154.063 69.3677C152.561 69.9061 151.252 70.1454 149.688 70.3732L149.431 70.1872C150.764 69.5912 152.061 67.7311 152.659 66.4156C155.987 59.0998 156.062 49.0158 153.623 41.4111C153.017 39.521 151.498 36.2163 149.623 35.4654C147.623 34.6638 143.305 35.8096 141.397 36.5709L141.371 36.3761Z" fill="black"/>
<path d="M26.6272 70.4482C25.8214 70.4818 25.0788 70.2921 24.291 70.1527C21.3916 69.6394 18.7537 68.7688 16.308 67.0646C12.455 64.3944 9.84023 60.2848 9.05402 55.6633C8.23048 51.0336 9.30286 46.2671 12.03 42.4362C15.3916 37.7152 19.3842 36.0055 24.8563 35.0918L25.1297 35.2446C17.3677 39.3227 17.4552 63.1626 23.6076 69.1826C24.4817 70.0379 25.4201 70.3242 26.6215 70.2832L26.6272 70.4482Z" fill="black"/>
<path d="M53.5967 44.6467C50.5475 45.1466 45.8954 43.6054 43.2579 41.9875C39.3359 39.589 36.5316 35.7261 35.4657 31.2541C34.3307 26.6251 35.1128 21.7338 37.635 17.6897C40.122 13.7492 44.0711 10.9569 48.6152 9.92578C48.8725 10.0371 48.8125 9.98866 49.0208 10.1611C45.2902 11.9428 43.0794 15.1261 41.6922 18.9616C39.6149 24.7048 39.8673 31.4961 42.4601 37.0434C43.8473 40.011 46.2498 42.9303 49.4097 44.1083C50.7596 44.6116 52.9414 44.5258 54.375 44.4442L53.5967 44.6467Z" fill="black"/>
<path d="M123.942 9.48242C128.624 9.93425 132.942 12.1988 135.976 15.7923C138.945 19.3604 140.383 23.9579 139.975 28.5818C139.559 33.3351 137.231 37.7158 133.525 40.7201C131.054 42.726 127.02 44.5071 123.826 44.6006L123.849 44.4532C130.922 43.7911 134.648 33.8739 134.717 27.8052C134.797 20.7268 131.869 11.1525 123.944 9.63966L123.942 9.48242Z" fill="black"/>
<path d="M96.7347 32.6907C91.7293 35.649 85.4693 36.1557 80.1435 33.7095C75.8529 31.7503 72.5302 28.1483 70.9227 23.7139C69.3388 19.3136 69.5509 14.4666 71.5132 10.2216C73.4952 6.00631 77.0549 2.73917 81.4243 1.12525C82.1216 0.870179 85.0653 -0.023667 85.6535 0.246655C84.7584 0.566983 84.1363 0.516779 83.3097 0.720759C81.8152 1.08961 80.161 1.77571 78.8347 2.54449C74.7228 4.8759 71.7461 8.79092 70.5989 13.3766C69.4673 17.8442 70.1382 22.5779 72.4667 26.5552C74.8262 30.5266 78.6621 33.4023 83.1359 34.5534C87.7844 35.7319 92.5363 34.9594 96.6535 32.5287L96.7347 32.6907Z" fill="black" fill-opacity="0.847059"/>
<path d="M28.7232 105.31C28.8089 105.297 29.0912 105.256 29.162 105.265C43.3534 106.898 49.552 124.285 39.8439 134.694C37.0534 137.688 32.7547 140.029 28.6121 140.216L28.5137 140.128C28.5685 140.066 31.6508 139.477 32.0703 139.344C33.9614 138.75 35.7176 137.913 37.3075 136.721C40.9666 133.979 43.5566 129.692 44.1805 125.149C44.8105 120.478 43.5511 115.748 40.6818 112.009C37.9422 108.456 33.9642 106.125 29.505 105.468C29.2554 105.431 29.1735 105.431 28.9179 105.364L28.7232 105.31Z" fill="black" fill-opacity="0.815686"/>
<path d="M55.739 165.224C56.5581 165.494 58.6561 164.573 59.4735 164.246C63.7453 162.533 67.2525 158.89 68.9357 154.621C70.6677 150.284 70.5813 145.432 68.6958 141.159C66.8044 136.866 63.546 133.786 59.2396 131.955C58.2029 131.514 57.0513 131.341 55.9982 130.931C57.9481 130.958 60.3841 132.205 62.0344 133.165C66.2776 135.631 70.2955 141.584 70.3052 146.62C70.282 147.519 70.2733 149.042 70.3363 149.936C69.5545 155.13 67.4388 159.195 63.1846 162.387C61.7503 163.463 57.3723 165.776 55.623 165.449L55.739 165.224Z" fill="black" fill-opacity="0.8"/>
<path d="M132.857 131.523C129.732 126.227 129.594 119.685 132.493 114.263C135.392 108.84 140.908 105.321 147.046 104.978L146.648 105.145C142.098 105.503 137.699 107.831 134.75 111.308C131.738 114.879 130.285 119.511 130.72 124.164C130.918 126.497 131.78 129.367 133.019 131.368L132.857 131.523Z" fill="black" fill-opacity="0.807843"/>
<path d="M139.89 86.1416L140.055 86.6585C139.874 91.6758 141.28 95.7534 144.701 99.529C147.468 102.584 152.04 104.85 156.194 104.97C156.637 104.981 157.081 104.975 157.525 104.952L157.639 105.175C148.778 105.507 140.993 98.6547 139.935 89.9162C139.785 88.6844 139.841 87.3793 139.89 86.1416Z" fill="black" fill-opacity="0.784314"/>
<path d="M24.8555 35.0937C28.8056 34.5262 33.9166 36.1533 37.0175 38.586C41.1218 41.806 43.1523 45.646 43.9225 50.6936L43.7686 51.1441C43.112 46.8351 41.7985 43.4002 38.6213 40.2485C35.8291 37.5009 32.1999 35.7638 28.3087 35.3126C27.4052 35.213 26.0659 35.2444 25.1289 35.2465L24.8555 35.0937Z" fill="black" fill-opacity="0.74902"/>
<path d="M48.6172 9.9268C58.4055 7.69778 67.8328 13.8353 69.8699 23.6792C69.9314 23.9765 69.9876 24.0926 69.8569 24.3821C69.4638 23.4428 69.3048 22.0578 68.792 20.7395C67.0595 16.2988 63.5871 12.7592 59.1805 10.942C56.1139 9.67717 52.2373 9.1192 49.0228 10.1622C48.8145 9.98968 48.8745 10.0381 48.6172 9.9268Z" fill="black" fill-opacity="0.815686"/>
<path d="M33.2816 80.0594L33.475 79.9893C37.4416 88.2476 34.4116 98.1683 26.5076 102.8L26.3926 102.663C29.5665 100.954 32.5811 97.2593 33.8167 93.9035C35.5867 89.0971 35.3015 84.667 33.2816 80.0594Z" fill="black" fill-opacity="0.811765"/>
<path d="M109.235 136.466L109.333 136.675C106.068 140.477 104.717 144.923 105.099 149.912C105.26 152.027 106.259 155.372 107.49 157.118L107.272 157.195C103.637 151.019 104.04 143.163 108.446 137.449C108.703 137.116 108.969 136.792 109.235 136.466Z" fill="black" fill-opacity="0.847059"/>
<path d="M130.496 52.8396C130.434 50.249 130.876 48.0075 131.904 45.6096C133.72 41.4032 137.122 38.0834 141.372 36.3711L141.398 36.5659C136.867 38.5609 133.675 41.6738 131.833 46.3369C131.294 47.7006 130.493 50.8075 130.647 52.2403L130.496 52.8396Z" fill="black" fill-opacity="0.792157"/>
<path d="M130.668 54.4824C131.876 61.5768 134.599 65.6249 141.129 68.8854L141.073 69.0568C134.796 66.1871 131.735 61.6408 130.545 54.9832L130.668 54.4824Z" fill="black" fill-opacity="0.752941"/>
<path d="M104.882 16.5732C105.102 16.9684 104.896 17.5058 105.056 18.1602C105.316 23.9706 101.482 29.6284 96.7355 32.6918L96.6543 32.5298C101.217 29.5527 104.108 25.1462 104.831 19.7141C104.946 18.846 104.848 17.4977 104.882 16.5732Z" fill="#19151D" fill-opacity="0.741176"/>
<path d="M123.944 9.63969C118.871 9.58276 115.619 10.2774 111.418 13.5298C110.458 14.2742 109.903 15.0149 109.089 15.7257L108.98 15.7027C109.45 14.8833 111.308 13.3889 112.089 12.7825C115.026 10.5007 120.211 8.91339 123.942 9.48245L123.944 9.63969Z" fill="black" fill-opacity="0.760784"/>
<path d="M104.881 16.573C104.589 11.8426 102.373 7.43804 98.749 4.3835C98.4806 4.15239 97.6993 3.6058 97.6191 3.38331C97.833 3.34845 97.8905 3.44163 98.0786 3.58323C102.495 6.89185 105.44 12.5834 105.055 18.1599C104.895 17.5055 105.101 16.9681 104.881 16.573Z" fill="black" fill-opacity="0.819608"/>
<path d="M144.082 76.0647C147.022 72.4447 153.692 69.2232 158.381 70.0898C158.197 70.101 157.638 70.1152 157.519 70.1648C156.798 70.2214 156.139 70.2072 155.424 70.3021C150.72 70.9267 147.337 72.784 144.186 76.2735L144.082 76.0647Z" fill="black" fill-opacity="0.737255"/>
<path d="M17.498 70.0013C22.5829 69.9702 27.4327 72.1392 30.7995 75.9499L30.521 75.9661C30.2576 75.661 29.9954 75.3972 29.7074 75.1155C26.4755 71.9335 22.1084 70.1709 17.5731 70.2182L17.498 70.0013Z" fill="black" fill-opacity="0.756863"/>
<path d="M123.826 44.5982C120.096 44.9133 116.365 44.0195 113.183 42.049C112.526 41.6436 109.858 39.7484 109.703 39.0986C109.859 39.1163 111.574 40.6928 111.902 40.9417C112.974 41.757 114.138 42.4438 115.369 42.9878C118.538 44.381 120.519 44.4236 123.849 44.4508L123.826 44.5982Z" fill="black" fill-opacity="0.839216"/>
<path d="M109.234 136.469C110.882 134.262 116.681 130.686 119.483 130.896L119.398 131.166C118.916 130.931 117.623 131.369 117.108 131.548C114.122 132.569 111.446 134.334 109.332 136.678L109.234 136.469Z" fill="black" fill-opacity="0.721569"/>
<path d="M43.765 54.3887L43.9315 54.6629C43.1356 59.2617 41.5753 62.5358 38.1264 65.7734L37.9668 65.6895C41.4272 62.6306 43.035 58.834 43.765 54.3887Z" fill="black" fill-opacity="0.854902"/>
<path d="M133.02 131.364C134.969 134.704 137.5 136.786 140.919 138.476L140.865 138.661C137.518 137.171 134.719 134.674 132.857 131.519L133.02 131.364Z" fill="black" fill-opacity="0.72549"/>
<path d="M144.082 76.0635L144.186 76.2723C141.667 79.1632 140.211 82.8268 140.055 86.6578L139.891 86.141C139.836 85.6211 139.98 84.8537 140.085 84.3295C140.757 80.9625 141.982 78.6845 144.082 76.0635Z" fill="black" fill-opacity="0.823529"/>
<path d="M37.3802 66.21L37.4642 66.3915C33.8719 68.9653 31.1228 70.039 26.6267 70.4543L26.6211 70.2894C27.5955 70.0733 28.4932 70.0023 29.4599 69.8152C32.6212 69.2032 34.8438 68.1344 37.3802 66.21Z" fill="black" fill-opacity="0.745098"/>
<path d="M107.491 157.122C108.965 159.528 110.547 161.184 112.888 162.773L112.685 162.888C110.485 161.474 108.618 159.433 107.273 157.199L107.491 157.122Z" fill="black" fill-opacity="0.733333"/>
<path d="M141.129 68.8877C143.787 69.8513 146.559 70.6142 149.431 70.1856L149.688 70.3716C149.388 70.4594 148.641 70.4719 148.314 70.4824C145.652 70.5677 143.517 69.9887 141.072 69.0591L141.129 68.8877Z" fill="black" fill-opacity="0.858824"/>
<path d="M25.1229 103.346L25.0476 103.564C22.7549 104.632 20.2588 105.195 17.7292 105.213L17.5605 104.968C20.5796 105.023 22.3542 104.531 25.1229 103.346Z" fill="black" fill-opacity="0.760784"/>
<path d="M105.066 24.4111L105.152 24.59C105.033 25.8038 105.025 27.9654 105.117 29.1921C105.18 30.0097 105.798 31.7606 105.74 32.583C105.109 30.8427 104.371 26.1068 105.066 24.4111Z" fill="#19151D" fill-opacity="0.752941"/>
<path d="M112.886 162.769C114.278 163.642 115.511 164.256 117.084 164.787C117.657 164.981 118.903 165.199 119.363 165.448C119.265 165.532 119.279 165.556 119.142 165.531C116.815 165.114 114.679 164.126 112.683 162.883L112.886 162.769Z" fill="black" fill-opacity="0.866667"/>
<path d="M60.4608 42.6172L60.5101 42.807C58.3202 43.7944 56.0342 44.6295 53.5977 44.6478L54.3759 44.4453C54.6302 44.3692 56.0196 44.1478 56.4579 44.0468C58.0566 43.6784 59.0064 43.2936 60.4608 42.6172Z" fill="black" fill-opacity="0.741176"/>
<path d="M60.4609 42.6201C63.1519 41.0982 63.3989 40.6809 65.5752 38.7812C64.7052 40.2863 62.0343 42.0125 60.5103 42.8099L60.4609 42.6201Z" fill="black" fill-opacity="0.615686"/>
<path d="M30.5215 75.9684L30.8 75.9521C31.8736 77.1672 32.7741 78.5248 33.4761 79.9863L33.2827 80.0564C33.0713 79.7952 32.5303 78.7456 32.3035 78.3869C31.7273 77.4758 31.2058 76.79 30.5215 75.9684Z" fill="black" fill-opacity="0.6"/>
<path d="M140.919 138.478C142.321 139.027 144.946 139.926 146.436 139.993L146.551 140.123C144.587 139.958 142.665 139.464 140.865 138.663L140.919 138.478Z" fill="black" fill-opacity="0.85098"/>
<path d="M43.9228 50.6914C44.0053 51.7911 44.0522 53.56 43.9322 54.6624L43.7656 54.3882L43.7689 51.1419L43.9228 50.6914Z" fill="black" fill-opacity="0.694118"/>
<path d="M130.648 52.2432C130.731 53.1242 130.611 53.7268 130.668 54.4842L130.546 54.9849C130.493 54.1948 130.481 53.6343 130.496 52.8424L130.648 52.2432Z" fill="black" fill-opacity="0.682353"/>
<path d="M25.1222 103.348C25.3182 103.208 26.136 102.797 26.3923 102.661L26.5073 102.799C26.0327 103.077 25.5454 103.333 25.0469 103.566L25.1222 103.348Z" fill="black" fill-opacity="0.556863"/>
<path d="M70.3064 146.619C70.3769 147.365 70.4803 149.22 70.3375 149.935C70.2745 149.041 70.2832 147.518 70.3064 146.619Z" fill="black" fill-opacity="0.458824"/>
<path d="M37.9655 65.6914L38.1249 65.7752L37.4628 66.3866L37.3789 66.2053C37.5235 66.0542 37.7979 65.835 37.9655 65.6914Z" fill="black" fill-opacity="0.596078"/>
<circle cx="122.317" cy="26.9974" r="17.4908" stroke="black" stroke-width="0.253489"/>
<circle cx="87.4612" cy="17.6175" r="17.4908" stroke="black" stroke-width="0.253489"/>
<circle cx="52.7347" cy="26.9974" r="17.4908" stroke="black" stroke-width="0.253489"/>
</svg>
