<svg preserveAspectRatio="none" width="100%" height="100%" overflow="visible" style="display: block;" viewBox="0 0 237 236" fill="none" xmlns="http://www.w3.org/2000/svg">
<g id="Frame 2147229960" opacity="0.2">
<line id="Line 809" x1="0.50001" y1="2.18558e-08" x2="0.5" y2="236" stroke="var(--stroke-0, black)" stroke-dasharray="2 2"/>
<line id="Line 810" x1="4.50001" y1="2.18558e-08" x2="4.5" y2="236" stroke="var(--stroke-0, black)" stroke-dasharray="2 2"/>
<line id="Line 811" x1="8.50001" y1="2.18558e-08" x2="8.5" y2="236" stroke="var(--stroke-0, black)" stroke-dasharray="2 2"/>
<line id="Line 812" x1="12.5" y1="2.18558e-08" x2="12.5" y2="236" stroke="var(--stroke-0, black)" stroke-dasharray="2 2"/>
<line id="Line 813" x1="16.5" y1="2.18558e-08" x2="16.5" y2="236" stroke="var(--stroke-0, black)" stroke-dasharray="2 2"/>
<line id="Line 814" x1="20.5" y1="2.18558e-08" x2="20.5" y2="236" stroke="var(--stroke-0, black)" stroke-dasharray="2 2"/>
<line id="Line 815" x1="24.5" y1="2.18558e-08" x2="24.5" y2="236" stroke="var(--stroke-0, black)" stroke-dasharray="2 2"/>
<line id="Line 816" x1="28.5" y1="2.18558e-08" x2="28.5" y2="236" stroke="var(--stroke-0, black)" stroke-dasharray="2 2"/>
<line id="Line 817" x1="32.5" y1="2.18558e-08" x2="32.5" y2="236" stroke="var(--stroke-0, black)" stroke-dasharray="2 2"/>
<line id="Line 818" x1="36.5" y1="2.18558e-08" x2="36.5" y2="236" stroke="var(--stroke-0, black)" stroke-dasharray="2 2"/>
<line id="Line 819" x1="40.5" y1="2.18558e-08" x2="40.5" y2="236" stroke="var(--stroke-0, black)" stroke-dasharray="2 2"/>
<line id="Line 820" x1="44.5" y1="2.18558e-08" x2="44.5" y2="236" stroke="var(--stroke-0, black)" stroke-dasharray="2 2"/>
<line id="Line 821" x1="48.5" y1="2.18558e-08" x2="48.5" y2="236" stroke="var(--stroke-0, black)" stroke-dasharray="2 2"/>
<line id="Line 822" x1="52.5" y1="2.18558e-08" x2="52.5" y2="236" stroke="var(--stroke-0, black)" stroke-dasharray="2 2"/>
<line id="Line 823" x1="56.5" y1="2.18558e-08" x2="56.5" y2="236" stroke="var(--stroke-0, black)" stroke-dasharray="2 2"/>
<line id="Line 824" x1="60.5" y1="2.18558e-08" x2="60.5" y2="236" stroke="var(--stroke-0, black)" stroke-dasharray="2 2"/>
<line id="Line 825" x1="64.5" y1="2.18558e-08" x2="64.5" y2="236" stroke="var(--stroke-0, black)" stroke-dasharray="2 2"/>
<line id="Line 826" x1="68.5" y1="2.18558e-08" x2="68.5" y2="236" stroke="var(--stroke-0, black)" stroke-dasharray="2 2"/>
<line id="Line 827" x1="72.5" y1="2.18558e-08" x2="72.5" y2="236" stroke="var(--stroke-0, black)" stroke-dasharray="2 2"/>
<line id="Line 828" x1="76.5" y1="2.18558e-08" x2="76.5" y2="236" stroke="var(--stroke-0, black)" stroke-dasharray="2 2"/>
<line id="Line 829" x1="80.5" y1="2.18558e-08" x2="80.5" y2="236" stroke="var(--stroke-0, black)" stroke-dasharray="2 2"/>
<line id="Line 830" x1="84.5" y1="2.18558e-08" x2="84.5" y2="236" stroke="var(--stroke-0, black)" stroke-dasharray="2 2"/>
<line id="Line 831" x1="88.5" y1="2.18558e-08" x2="88.5" y2="236" stroke="var(--stroke-0, black)" stroke-dasharray="2 2"/>
<line id="Line 832" x1="92.5" y1="2.18558e-08" x2="92.5" y2="236" stroke="var(--stroke-0, black)" stroke-dasharray="2 2"/>
<line id="Line 833" x1="96.5" y1="2.18558e-08" x2="96.5" y2="236" stroke="var(--stroke-0, black)" stroke-dasharray="2 2"/>
<line id="Line 834" x1="100.5" y1="2.18558e-08" x2="100.5" y2="236" stroke="var(--stroke-0, black)" stroke-dasharray="2 2"/>
<line id="Line 835" x1="104.5" y1="2.18558e-08" x2="104.5" y2="236" stroke="var(--stroke-0, black)" stroke-dasharray="2 2"/>
<line id="Line 836" x1="108.5" y1="2.18558e-08" x2="108.5" y2="236" stroke="var(--stroke-0, black)" stroke-dasharray="2 2"/>
<line id="Line 837" x1="112.5" y1="2.18558e-08" x2="112.5" y2="236" stroke="var(--stroke-0, black)" stroke-dasharray="2 2"/>
<line id="Line 838" x1="116.5" y1="2.18558e-08" x2="116.5" y2="236" stroke="var(--stroke-0, black)" stroke-dasharray="2 2"/>
<line id="Line 839" x1="120.5" y1="2.18558e-08" x2="120.5" y2="236" stroke="var(--stroke-0, black)" stroke-dasharray="2 2"/>
<line id="Line 840" x1="124.5" y1="2.18558e-08" x2="124.5" y2="236" stroke="var(--stroke-0, black)" stroke-dasharray="2 2"/>
<line id="Line 841" x1="128.5" y1="2.18558e-08" x2="128.5" y2="236" stroke="var(--stroke-0, black)" stroke-dasharray="2 2"/>
<line id="Line 842" x1="132.5" y1="2.18558e-08" x2="132.5" y2="236" stroke="var(--stroke-0, black)" stroke-dasharray="2 2"/>
<line id="Line 843" x1="136.5" y1="2.18558e-08" x2="136.5" y2="236" stroke="var(--stroke-0, black)" stroke-dasharray="2 2"/>
<line id="Line 844" x1="140.5" y1="2.18558e-08" x2="140.5" y2="236" stroke="var(--stroke-0, black)" stroke-dasharray="2 2"/>
<line id="Line 845" x1="144.5" y1="2.18558e-08" x2="144.5" y2="236" stroke="var(--stroke-0, black)" stroke-dasharray="2 2"/>
<line id="Line 846" x1="148.5" y1="2.18558e-08" x2="148.5" y2="236" stroke="var(--stroke-0, black)" stroke-dasharray="2 2"/>
<line id="Line 847" x1="152.5" y1="2.18558e-08" x2="152.5" y2="236" stroke="var(--stroke-0, black)" stroke-dasharray="2 2"/>
<line id="Line 848" x1="156.5" y1="2.18558e-08" x2="156.5" y2="236" stroke="var(--stroke-0, black)" stroke-dasharray="2 2"/>
<line id="Line 849" x1="160.5" y1="2.18558e-08" x2="160.5" y2="236" stroke="var(--stroke-0, black)" stroke-dasharray="2 2"/>
<line id="Line 850" x1="164.5" y1="2.18558e-08" x2="164.5" y2="236" stroke="var(--stroke-0, black)" stroke-dasharray="2 2"/>
<line id="Line 851" x1="168.5" y1="2.18558e-08" x2="168.5" y2="236" stroke="var(--stroke-0, black)" stroke-dasharray="2 2"/>
<line id="Line 852" x1="172.5" y1="2.18558e-08" x2="172.5" y2="236" stroke="var(--stroke-0, black)" stroke-dasharray="2 2"/>
<line id="Line 853" x1="176.5" y1="2.18558e-08" x2="176.5" y2="236" stroke="var(--stroke-0, black)" stroke-dasharray="2 2"/>
<line id="Line 854" x1="180.5" y1="2.18558e-08" x2="180.5" y2="236" stroke="var(--stroke-0, black)" stroke-dasharray="2 2"/>
<line id="Line 855" x1="184.5" y1="2.18558e-08" x2="184.5" y2="236" stroke="var(--stroke-0, black)" stroke-dasharray="2 2"/>
<line id="Line 856" x1="188.5" y1="2.18558e-08" x2="188.5" y2="236" stroke="var(--stroke-0, black)" stroke-dasharray="2 2"/>
<line id="Line 857" x1="192.5" y1="2.18558e-08" x2="192.5" y2="236" stroke="var(--stroke-0, black)" stroke-dasharray="2 2"/>
<line id="Line 858" x1="196.5" y1="2.18558e-08" x2="196.5" y2="236" stroke="var(--stroke-0, black)" stroke-dasharray="2 2"/>
<line id="Line 859" x1="200.5" y1="2.18558e-08" x2="200.5" y2="236" stroke="var(--stroke-0, black)" stroke-dasharray="2 2"/>
<line id="Line 860" x1="204.5" y1="2.18558e-08" x2="204.5" y2="236" stroke="var(--stroke-0, black)" stroke-dasharray="2 2"/>
<line id="Line 861" x1="208.5" y1="2.18558e-08" x2="208.5" y2="236" stroke="var(--stroke-0, black)" stroke-dasharray="2 2"/>
<line id="Line 862" x1="212.5" y1="2.18558e-08" x2="212.5" y2="236" stroke="var(--stroke-0, black)" stroke-dasharray="2 2"/>
<line id="Line 863" x1="216.5" y1="2.18558e-08" x2="216.5" y2="236" stroke="var(--stroke-0, black)" stroke-dasharray="2 2"/>
<line id="Line 864" x1="220.5" y1="2.18558e-08" x2="220.5" y2="236" stroke="var(--stroke-0, black)" stroke-dasharray="2 2"/>
<line id="Line 865" x1="224.5" y1="2.18558e-08" x2="224.5" y2="236" stroke="var(--stroke-0, black)" stroke-dasharray="2 2"/>
<line id="Line 866" x1="228.5" y1="2.18558e-08" x2="228.5" y2="236" stroke="var(--stroke-0, black)" stroke-dasharray="2 2"/>
<line id="Line 867" x1="232.5" y1="2.18558e-08" x2="232.5" y2="236" stroke="var(--stroke-0, black)" stroke-dasharray="2 2"/>
<line id="Line 868" x1="236.5" y1="2.18558e-08" x2="236.5" y2="236" stroke="var(--stroke-0, black)" stroke-dasharray="2 2"/>
</g>
</svg>
