<svg width="141" height="84" viewBox="0 0 141 84" fill="none" xmlns="http://www.w3.org/2000/svg">
<path d="M16.7855 16.1523V21.0859H11.3983V36H5.89761V21.0859H0.51037V16.1523H16.7855ZM24.4745 36.5104C19.4842 36.5104 15.9116 33.0795 15.9116 28.3445C15.9116 23.6094 19.4842 20.2069 24.4745 20.2069C29.4648 20.2069 33.0657 23.6094 33.0657 28.3445C33.0657 33.0795 29.4648 36.5104 24.4745 36.5104ZM24.4745 31.7753C26.4026 31.7753 27.7919 30.3859 27.7919 28.3728C27.7919 26.3597 26.4026 24.942 24.4745 24.942C22.5748 24.942 21.1854 26.3313 21.1854 28.3728C21.1854 30.3859 22.5748 31.7753 24.4745 31.7753ZM47.7858 20.6889L51.3301 20.7173V34.3271C51.3301 39.1189 48.1828 42.0961 43.1358 42.0961C38.7976 42.0961 35.7638 39.9128 35.0549 36.2835H40.1303C40.4989 37.3043 41.8031 37.8714 43.0791 37.8714C44.8654 37.8714 46.2831 36.7372 46.2831 34.9226V34.4689C45.1206 35.1777 43.7596 35.603 42.2852 35.603C37.8903 35.603 34.6296 32.3423 34.6296 27.9191C34.6296 23.5526 37.8903 20.2069 42.2852 20.2069C44.1282 20.2069 45.801 20.8874 47.1053 21.9932L47.7858 20.6889ZM43.1641 31.2649C45.0638 31.2649 46.4248 29.8756 46.4248 27.9191C46.4248 25.9911 45.0638 24.5734 43.1641 24.5734C41.2644 24.5734 39.8751 25.9911 39.8751 27.9191C39.8751 29.8756 41.2361 31.2649 43.1641 31.2649ZM70.4344 28.2027C70.4344 28.6847 70.406 29.1384 70.3493 29.6204H58.9794C59.3196 31.3783 60.4254 32.2856 62.0983 32.2856C63.3175 32.2856 64.3666 31.7469 64.8487 30.8396H70.1225C69.045 34.3271 65.9261 36.5104 62.0983 36.5104C57.3065 36.5104 53.7906 33.0228 53.7906 28.3445C53.7906 23.6661 57.2782 20.2069 62.0983 20.2069C67.0319 20.2069 70.4344 23.7228 70.4344 28.2027ZM62.0983 24.3466C60.5672 24.3466 59.4898 25.1688 59.0645 26.6999H65.2456C64.7919 25.1688 63.6861 24.3466 62.0983 24.3466ZM80.92 31.4067H82.9331V36H79.3038C75.9297 36 73.8599 33.9302 73.8599 30.5277V24.7719H71.0528V23.5243L77.9145 16.2373H79.0203V20.6889H82.8481V24.7719H79.1337V29.6487C79.1337 30.7262 79.8142 31.4067 80.92 31.4067ZM94.7616 20.2636C98.2774 20.2636 100.546 22.8154 100.546 26.785V36H95.2719V27.4088C95.2719 25.6508 94.6481 24.7435 93.2588 24.7435C91.671 24.7435 90.6786 25.8777 90.6786 27.8341V36H85.4048V15.1599H90.6786V21.7096C91.8128 20.8023 93.2305 20.2636 94.7616 20.2636ZM119.445 28.2027C119.445 28.6847 119.416 29.1384 119.359 29.6204H107.99C108.33 31.3783 109.436 32.2856 111.108 32.2856C112.328 32.2856 113.377 31.7469 113.859 30.8396H119.133C118.055 34.3271 114.936 36.5104 111.108 36.5104C106.317 36.5104 102.801 33.0228 102.801 28.3445C102.801 23.6661 106.288 20.2069 111.108 20.2069C116.042 20.2069 119.445 23.7228 119.445 28.2027ZM111.108 24.3466C109.577 24.3466 108.5 25.1688 108.075 26.6999H114.256C113.802 25.1688 112.696 24.3466 111.108 24.3466ZM130.407 20.6322H131.825V25.4524H129.755C127.912 25.4524 127.118 26.2746 127.118 28.231V36H121.844V20.6889H125.388L126.21 22.3901C127.288 21.1426 128.592 20.6322 130.407 20.6322Z" fill="#DB4A2B"/>
<path d="M14.9168 46.5475C19.6235 46.5475 22.9693 49.9216 22.9693 54.6851C22.9693 59.4485 19.6235 62.8226 14.9168 62.8226C13.1305 62.8226 11.5427 62.2272 10.2951 61.1781L9.8131 62.3123H5.90026V41.4722H11.1174V47.5966C12.2232 46.9161 13.4991 46.5475 14.9168 46.5475ZM14.208 58.1442C16.1644 58.1442 17.6388 56.6698 17.6388 54.6851C17.6388 52.6719 16.1927 51.1975 14.208 51.1975C12.2515 51.1975 10.7771 52.6719 10.7771 54.6851C10.7771 56.6698 12.2515 58.1442 14.208 58.1442ZM32.7095 62.8226C28.2013 62.8226 25.1674 60.0439 25.1674 55.7625V47.0012H30.4412V55.5357C30.4412 57.1518 31.3202 58.0875 32.7095 58.0875C34.1272 58.0875 34.9778 57.1235 34.9778 55.5357V47.0012H40.2517V55.7625C40.2517 60.0439 37.2461 62.8226 32.7095 62.8226ZM53.7131 47.0012H59.3839L52.9476 61.6318C50.8777 66.3385 49.0064 68.0114 45.0368 68.0114H43.2222V63.5031H44.6966C46.7097 63.5031 47.3051 62.9644 48.014 61.0647L41.6911 47.0012H47.4185L50.6792 55.4506L53.7131 47.0012ZM60.975 45.1014V40.6215H66.1921V45.1014H60.975ZM60.9467 62.3123V47.0012H66.2205V62.3123H60.9467ZM78.7737 46.5759C82.318 46.5759 84.6713 49.0993 84.6713 52.9838V62.3123H79.3975V53.721C79.3975 51.9347 78.717 51.0558 77.3844 51.0558C75.7399 51.0558 74.8042 52.1899 74.8042 54.1463V62.3123H69.5304V47.0012H73.2447L73.9536 48.589C75.0877 47.3131 76.789 46.5759 78.7737 46.5759ZM100.083 47.0012L103.627 47.0295V60.6394C103.627 65.4312 100.48 68.4083 95.4325 68.4083C91.0944 68.4083 88.0605 66.2251 87.3517 62.5958H92.427C92.7956 63.6165 94.0999 64.1836 95.3758 64.1836C97.1621 64.1836 98.5798 63.0495 98.5798 61.2348V60.7811C97.4173 61.49 96.0563 61.9153 94.5819 61.9153C90.1871 61.9153 86.9264 58.6546 86.9264 54.2314C86.9264 49.8649 90.1871 46.5191 94.5819 46.5191C96.4249 46.5191 98.0978 47.1996 99.4021 48.3054L100.083 47.0012ZM95.4609 57.5772C97.3606 57.5772 98.7216 56.1878 98.7216 54.2314C98.7216 52.3033 97.3606 50.8856 95.4609 50.8856C93.5612 50.8856 92.1718 52.3033 92.1718 54.2314C92.1718 56.1878 93.5328 57.5772 95.4609 57.5772ZM106.768 62.3123V57.4354H111.9V62.3123H106.768ZM115.052 45.1014V40.6215H120.269V45.1014H115.052ZM115.024 62.3123V47.0012H120.298V62.3123H115.024ZM132.851 46.5759C136.395 46.5759 138.749 49.0993 138.749 52.9838V62.3123H133.475V53.721C133.475 51.9347 132.794 51.0558 131.462 51.0558C129.817 51.0558 128.881 52.1899 128.881 54.1463V62.3123H123.608V47.0012H127.322L128.031 48.589C129.165 47.3131 130.866 46.5759 132.851 46.5759Z" fill="black"/>
<path d="M82.8071 4.80981L96.6871 12.4313" stroke="#DB4A2B" stroke-width="3.86948"/>
<path d="M84.2559 4.80981L70.3759 12.4313" stroke="#DB4A2B" stroke-width="3.86948"/>
</svg>
