<svg width="130" height="55" viewBox="0 0 130 55" fill="none" xmlns="http://www.w3.org/2000/svg">
<path d="M23.4385 19.512L26.8625 25.56C28.7505 28.856 29.5825 30.456 30.3185 31.96C31.0225 30.456 31.8545 28.888 33.7425 25.592L37.1665 19.512C37.9345 18.136 39.0865 17.24 40.8145 17.24C42.4785 17.24 43.9505 18.2 44.5265 20.184L49.9345 39H43.3425L41.3265 31.544C40.6545 29.112 40.2065 27.384 39.8545 25.656C39.1505 27.16 38.3505 28.792 36.8785 31.576L33.9985 36.952C32.8785 39.064 31.7905 39.352 30.1905 39.352C28.5905 39.352 27.5025 39.064 26.3825 36.952L23.5025 31.544C21.9345 28.6 21.1665 27.096 20.4945 25.656C20.1745 27.352 19.6945 29.144 19.0545 31.544L17.0385 39H10.5425L16.0785 20.184C16.6545 18.2 18.1585 17.24 19.8225 17.24C21.5185 17.24 22.6705 18.104 23.4385 19.512ZM86.3118 39H61.4158L65.4158 33.496H70.7918C72.0718 33.496 73.5758 33.496 74.5998 33.56C74.0238 32.792 73.1278 31.48 72.4238 30.456L68.5838 24.792L58.5358 39H50.6958L64.4238 19.64C65.3198 18.392 66.6318 17.24 68.7118 17.24C70.6958 17.24 72.0078 18.296 72.9358 19.64L86.3118 39ZM110.496 17.592H119.072L112.32 23.768C109.344 26.456 108.352 27.32 107.552 27.928C108.32 28.44 109.28 29.336 112.736 32.568L119.584 39H110.24L102.944 31.928L95.4243 39H87.2003L94.1763 32.568C97.4403 29.56 98.3683 28.792 99.1683 28.184C98.3683 27.608 97.5363 26.872 94.1763 23.736L87.6163 17.592H96.8003L103.616 24.248L110.496 17.592Z" fill="#323232"/>
</svg>
