<svg width="166" height="171" viewBox="0 0 166 171" fill="none" xmlns="http://www.w3.org/2000/svg">
<path d="M151.433 6.97919C151.918 4.5061 152.532 2.68101 154.752 1.18537C156.336 0.133884 158.276 -0.238821 160.138 0.150737C164.258 0.994911 166.734 4.87286 165.806 8.96462C165.407 10.7808 164.289 12.3578 162.707 13.3345C161.014 14.3988 158.96 14.7256 157.02 14.2392C153.613 13.4166 151.89 10.8787 151.499 7.52909C148.201 7.30189 143.597 7.43392 140.189 7.44043C135.509 7.44942 130.355 7.34549 125.729 7.54864L125.684 133.598L106.187 133.579L99.3769 133.587C98.378 133.588 96.8735 133.642 95.9105 133.579C95.8588 135.022 95.8015 136.384 95.6296 137.821C93.3217 157.137 76.5611 171.421 57.0593 170.691C47.1809 170.299 37.8596 166.012 31.1326 158.767C24.333 151.482 20.7515 141.766 21.195 131.809C21.5711 121.767 25.992 112.302 33.4526 105.568C40.7953 98.9571 50.4532 95.5166 60.3217 95.9964C70.3328 96.4952 79.7293 100.975 86.4193 108.439C92.461 115.224 95.8251 123.977 95.8835 133.061C105.357 133.224 115.634 133.177 125.134 133.069C125.118 129.944 125.128 126.819 125.162 123.696C125.163 122.372 125.277 120.142 125.075 118.874C122.928 105.394 112.133 94.5649 98.6443 92.4053C98.0858 92.3154 97.5746 92.2401 97.0049 92.248L95.924 92.0446C104.431 91.403 112.325 87.3793 117.845 80.8734C121.424 76.6763 123.865 71.6291 124.932 66.2167C125.331 64.1141 125.165 59.4794 125.162 57.1476L125.163 41.1413L125.166 18.5964L125.162 11.3335C125.159 10.0358 125.201 8.40011 125.096 7.13897C125.091 7.07705 125.085 7.01526 125.079 6.95357L151.433 6.97919Z" fill="black"/>
<path d="M29.2331 1.53383C31.443 1.33214 34.531 1.62619 36.6909 2.04586C42.5979 3.18667 48.0471 6.01639 52.3782 10.192C57.4863 15.1434 60.7241 21.7096 61.5422 28.7764C61.8617 31.6984 61.7873 35.4049 61.784 38.3725L61.7649 52.7063C61.7585 62.3193 61.3066 69.3583 67.0979 77.9079C71.4262 84.3993 77.9723 89.0915 85.5095 91.105C87.7163 91.6758 89.4377 91.6848 91.5928 92.1017C90.2535 92.1174 88.6894 91.9949 87.295 91.9927L72.221 91.9972L64.2746 92.0152C62.396 92.0298 60.8756 92.132 58.9922 91.9983C48.3253 91.2556 38.4017 86.2667 31.443 78.1482C26.1299 72.0081 22.8371 64.3808 22.0122 56.3032C21.702 53.2479 21.6616 48.4412 21.8867 45.3774C24.0538 45.2518 27.1132 45.3496 29.3207 45.3533L41.735 45.3433C42.649 45.3453 43.5849 45.3675 44.4937 45.3547C46.1507 45.3077 47.9847 45.5032 49.6131 45.1766C55.4039 44.0149 60.085 39.0429 61.1196 33.2614C61.3583 31.9276 61.2266 30.5373 61.0831 29.2177C60.5254 23.9616 58.6038 18.9424 55.5088 14.6576C54.8015 13.6534 54.0307 12.6954 53.201 11.7898C47.8897 6.04774 40.2117 2.33744 32.3768 2.04103C24.1998 1.66563 16.2185 4.61333 10.2485 10.2137C6.0066 14.1781 2.9952 19.2796 1.5736 24.9089C0.265593 30.0887 0.608968 37.9711 0.612901 43.5147L0.620993 62.9783C0.625712 66.9292 0.718409 71.1366 0.570765 75.0631C1.41078 73.5719 1.81383 72.4106 2.94048 71.0796C5.12344 68.4616 8.27002 66.8347 11.6682 66.5671C15.1307 66.2949 18.5589 67.4145 21.1933 69.678C23.7215 71.8759 25.2755 74.986 25.5153 78.3274C25.7764 81.6756 24.6992 84.9903 22.5197 87.5465C17.7519 93.0242 9.80185 93.5871 4.29758 88.8443C-1.0341 84.2498 0.099521 78.1612 0.103566 71.857L0.101543 54.9125L0.106488 40.2362C0.0990717 35.1833 -0.216442 30.09 0.922345 25.1363C3.95611 11.9403 15.6823 2.16474 29.2331 1.53383Z" fill="black"/>
<path d="M93.9026 92.0407C94.3565 92.0362 95.5273 91.9969 95.9228 92.0418L97.0038 92.2452C96.4678 92.2654 95.8453 92.2452 95.3026 92.2418C94.7992 92.1879 94.4014 92.1306 93.9026 92.0407Z" fill="black" fill-opacity="0.545098"/>
<path d="M95.304 92.2451C94.4781 92.3417 93.4522 92.2552 92.6309 92.1215C92.7252 92.0282 93.6949 92.044 93.9039 92.044C94.4028 92.1339 94.8006 92.1912 95.304 92.2451Z" fill="black" fill-opacity="0.129412"/>
</svg>
