<svg width="176" height="176" viewBox="0 0 176 176" fill="none" xmlns="http://www.w3.org/2000/svg">
<path d="M0.115755 0.17081C1.09502 0.140317 2.06146 0.188474 3.04023 0.224132C3.8982 2.11785 5.12007 5.99327 5.82607 8.04295L11.1785 23.7812L13.9535 31.7817C14.7903 34.1633 15.7211 36.0998 15.7114 38.6772C15.6991 41.9731 15.6919 45.2755 15.6862 48.5706L15.6857 73.3619L15.6841 120.576L15.7021 132.336C15.7066 133.726 15.8002 137.792 15.5586 138.987C15.1137 141.186 13.749 144.524 12.9814 146.773L6.11268 166.528C5.29604 169.253 4.03416 172.595 3.06589 175.308C1.90583 175.273 1.18184 175.246 0.0249461 175.363C0.230398 170.691 0.00894532 164.634 0.0171101 159.833L0.154915 131.86L0.0414421 45.3645L0.0262784 14.0852L0.0144455 5.55137C0.00878016 4.11388 -0.0492059 1.54665 0.115755 0.17081Z" fill="#0E0E0E"/>
<path d="M5.42053 61.9413C5.80794 61.9445 5.61632 61.8952 5.96874 62.2301C6.07971 63.5246 5.78744 64.033 4.60472 64.5965C3.92321 64.1978 3.82141 64.0952 3.86373 63.3533C4.2778 62.6678 4.76435 62.4096 5.42053 61.9413Z" fill="#131313"/>
<path d="M172.754 0.176563L175.122 0.128906L175.14 113.847L175.15 150.186C175.165 158.454 175.284 167.108 175.047 175.34C174.097 175.265 172.944 175.331 171.976 175.356C171.576 173.453 170.29 170.006 169.612 168.08C167.086 160.883 164.611 153.67 162.188 146.438C161.44 144.144 160.415 141.256 159.799 138.958C159.557 138.057 159.639 134.403 159.644 133.323L159.659 125.158L159.666 94.6453L159.647 54.7005L159.632 43.1111C159.632 42.4148 159.576 37.2507 159.777 36.5883C163.426 24.5875 167.87 12.5611 171.863 0.640621C171.996 0.238883 172.448 0.231217 172.754 0.176563Z" fill="#0E0E0E"/>
<path d="M155.551 0.183299C156.259 0.199628 157.069 0.169964 157.787 0.161133L157.772 175.237C156.964 175.245 156.046 175.315 155.231 175.357C154.826 173.552 154.055 171.609 153.403 169.859C150.822 162.158 147.554 153.865 145.288 146.025C144.987 144.984 145.148 140.776 145.152 139.368L145.158 128.398L145.16 89.6634L145.167 47.1064L145.143 35.8635C145.14 34.6903 145.073 30.2612 145.257 29.4582C146.088 25.8191 147.918 21.2905 149.154 17.7142L152.973 6.64993C153.338 5.60052 154.888 0.70251 155.551 0.183299Z" fill="#0E0E0E"/>
<path d="M18.1639 0.164062L19.9363 0.280866C22.3856 6.80466 24.5816 13.6111 26.8789 20.2048C27.6479 22.4118 29.6244 27.2797 29.913 29.2124C30.1774 30.9831 30.1704 35.8913 30.1789 37.8913L30.1781 53.619L30.1651 106.04L30.1806 133.68C30.1814 137.279 30.2947 142.136 30.1183 145.645C30.0355 147.293 27.6912 153.254 27.0365 155.057C25.4655 159.416 23.9299 163.789 22.4298 168.173C21.6174 170.556 20.7595 172.922 19.856 175.27L17.5039 175.378L17.6195 41.0818L17.4354 9.76563C17.4344 8.52092 17.3078 1.07418 17.5901 0.313528L18.1639 0.164062Z" fill="#0E0E0E"/>
<path d="M138.659 0.167798C139.149 0.208455 139.78 0.170126 140.28 0.154297C140.059 13.6051 140.28 27.748 140.29 41.2634L140.287 131.406C140.37 146.055 140.354 160.705 140.24 175.355C139.669 175.334 139.056 175.34 138.481 175.334C138.009 173.796 137.453 172.289 136.908 170.775L133.613 161.627C132.602 158.831 130.801 154.633 130.759 151.811C130.679 146.189 130.837 140.488 130.763 134.868C130.539 112.425 130.486 89.9803 130.604 67.5353L130.614 46.5752C130.643 40.7819 130.573 27.5877 130.689 22.3431C130.723 20.8218 138.289 0.572369 138.659 0.167798Z" fill="#0E0E0E"/>
<path d="M34.9419 0.118164C35.5414 0.132327 35.908 0.159653 36.5042 0.230803C37.9739 1.73178 41.8406 15.8763 43.3986 18.6974C44.7378 21.1229 44.5286 25.9139 44.5246 28.7904L44.5033 40.7073L44.512 82.149L44.5013 132.234L44.5076 145.894C44.5221 153.485 44.6864 153.595 42.1177 160.74L38.812 169.907C38.4177 171.033 37.0824 175.91 35.6539 175.612C34.7943 174.711 34.9356 173.061 34.9259 171.888C34.8731 165.429 34.9681 158.973 34.9922 152.517V115.869L34.9419 0.118164Z" fill="#0E0E0E"/>
<path d="M121.905 0C122.374 0.0869795 122.36 0.0589874 122.739 0.337755C122.937 1.73842 122.807 8.46401 122.805 10.1589L122.799 31.8328L122.804 117.066L122.95 156.57C122.948 162.046 122.915 167.521 122.938 172.996C122.942 173.728 122.927 174.954 122.075 175.084C121.067 174.341 120.757 172.843 120.347 171.61C119.191 168.153 117.023 163.964 116.357 160.468C116.108 159.166 116.152 155.204 116.147 153.711L116.2 140.624L116.12 93.4135L116.152 61.0036C116.157 57.1419 116.29 52.9199 116.237 49.1156C116.14 41.7943 116.103 34.4724 116.125 27.1504C116.12 24.5154 116.032 17.1251 116.233 15.0931C116.39 13.497 121.161 0.973104 121.905 0Z" fill="#0E0E0E"/>
<path d="M58.9838 31.3203C59.0831 39.9953 58.9725 48.7339 58.9837 57.4158L59.0192 117.827L59.0132 146.161L59.0427 155.037C59.0488 156.743 59.1526 158.533 58.9637 160.227C58.7581 162.068 54.4747 173.817 53.4691 174.984C53.2219 175.272 53.0954 175.339 52.7095 175.345C52.0566 173.789 52.414 128.453 52.4245 122.743L52.4312 47.7065C52.4462 42.76 52.1971 37.0365 52.3427 32.1849L52.3036 31.7654L52.8073 31.6199C53.2482 32.4685 55.2612 32.3131 56.2133 32.3699L57.4915 31.8895C57.7951 31.804 58.6507 31.4491 58.9838 31.3203Z" fill="#0E0E0E"/>
<path d="M52.3047 31.7666L52.8084 31.6211C53.2493 32.4697 55.2623 32.3143 56.2144 32.3711C54.9574 32.6195 53.802 33.7433 52.7188 33.375C52.3187 32.8763 52.4425 32.9325 52.3439 32.1861L52.3047 31.7666Z" fill="#131313"/>
<path d="M69.8954 0.146484C70.8592 0.696022 71.9928 3.86427 72.4888 5.07782C74.0388 8.86993 73.4794 14.9983 73.4759 19.1227L73.4619 38.8499L73.4586 106.561L73.4603 148.208C73.4671 154.657 73.6974 161.122 73.4856 167.569C73.4446 168.815 71.9255 171.964 71.3706 173.269L70.0424 176C69.7053 169.886 69.9068 163.601 69.9021 157.486L69.792 139.635L69.8006 75.1142L69.7721 24.7122L69.7651 9.56776C69.7636 6.64195 69.663 2.99781 69.8954 0.146484Z" fill="#0E0E0E"/>
<path d="M105.121 0.0214844C105.551 0.843624 105.351 26.8573 105.356 29.715L105.384 102.419L105.441 148.577C105.444 157.49 105.641 167.066 105.277 175.914L104.211 173.781C103.713 172.578 101.996 168.942 101.883 167.881C101.673 165.906 101.74 162.765 101.74 160.677L101.77 147.547L101.751 107.828L101.765 41.6868L101.74 19.4381C101.74 15.7898 101.658 11.862 101.816 8.23588C101.893 6.47996 104.034 1.48964 105.121 0.0214844Z" fill="#0E0E0E"/>
<path d="M103.257 133.518C103.729 133.505 103.965 133.448 104.369 133.69C104.145 134.095 103.64 134.305 103.194 134.583C102.991 134.771 102.929 134.778 102.682 134.915L102.516 134.743C102.651 134.043 102.707 134.026 103.257 133.518Z" fill="#012D43"/>
<path d="M52.3047 26.9653L52.3179 26.7638C52.4981 23.7006 52.0193 1.45931 52.6265 0.325409L52.9407 0.175781C53.6655 0.501871 54.1927 1.48164 54.3932 2.25895C55.4326 6.28767 58.2726 11.1657 58.9058 15.1606C59.4573 18.6398 58.7302 23.0296 58.9919 26.5936C59.0146 27.7299 58.9033 29.6112 59.1304 30.6573L58.9854 31.3241C58.6524 31.4529 57.7967 31.8078 57.4931 31.8933L56.2149 32.3737C55.2628 32.3169 53.2498 32.4723 52.8089 31.6237L52.3052 31.7692C52.3672 30.4202 52.3532 28.9222 52.3698 27.5603L52.3047 26.9653Z" fill="#131313"/>
<path d="M52.3047 26.9634C52.8634 26.814 55.5736 25.2482 56.0043 26.8061C55.3841 28.0125 53.8578 28.2521 52.6528 27.8972L52.3698 27.5585L52.3047 26.9634Z" fill="#0E0E0E"/>
<path d="M52.8086 31.6224C54.5037 31.3493 54.8886 31.3058 56.5381 31.4423C57.0123 31.6136 57.0889 31.5969 57.4928 31.892L56.2146 32.3724C55.2625 32.3156 53.2495 32.471 52.8086 31.6224Z" fill="#003C5E"/>
<path d="M56.5352 31.4416C57.5308 31.0105 58.0355 30.7243 59.1272 30.6553L58.9822 31.3221C58.6492 31.4509 57.7935 31.8058 57.4899 31.8913C57.086 31.5962 57.0094 31.6129 56.5352 31.4416Z" fill="#012D43"/>
<path d="M53.2931 28.3213C53.9739 28.3021 55.059 28.5634 55.5586 29.054C55.7708 29.695 55.71 29.483 55.4901 30.2503C54.3119 30.2029 54.3777 30.0084 53.3489 29.2359C53.1703 29.1018 53.2748 28.6314 53.2931 28.3213Z" fill="#0E0E0E"/>
<path d="M87.429 0.0283203C87.469 0.0584799 87.7939 0.277265 87.7955 0.359912C87.9988 8.27705 87.9172 24.2603 87.9189 31.1792L87.9022 141.583L87.9738 165.872C87.9772 167.46 88.0871 174.395 87.8172 175.476C87.5789 175.298 87.6373 175.323 87.4606 175.066C87.3123 169.704 87.4073 164.136 87.3956 158.755L87.2857 134.881L87.2907 50.0992L87.304 14.3993L87.264 5.60601C87.2573 4.24116 87.189 1.27186 87.429 0.0283203Z" fill="#0E0E0E"/>
</svg>
