<svg width="133" height="31" viewBox="0 0 133 31" fill="none" xmlns="http://www.w3.org/2000/svg">
<path d="M20.7112 0C23.5786 1.61687 26.4679 3.32489 29.3221 4.97423L29.3214 14.8801C27.4152 16.039 25.309 17.2024 23.3655 18.3246L23.3269 18.2904C23.2094 18.0418 23.2663 9.39608 23.267 8.45887L14.6875 3.50741C16.5842 2.32441 18.7554 1.15228 20.7112 0Z" fill="#FF7A39"/>
<path d="M23.1331 18.4502C23.2228 18.4693 23.1732 18.45 23.271 18.5311L23.2805 25.359C20.497 27.0273 17.5041 28.7022 14.6776 30.3201C12.658 29.1992 10.5951 27.9731 8.58717 26.8156L6.06543 25.367C8.07821 24.2614 10.1289 23.0105 12.1472 21.8749L14.6696 23.3404C17.3954 21.8654 20.4292 20.0225 23.1331 18.4502Z" fill="#FF7A39"/>
<path d="M8.62658 0.0078125C9.15065 0.257039 10.0582 0.82336 10.6112 1.14287C11.964 1.92098 13.3128 2.70602 14.6571 3.498C11.9815 5.14771 8.83786 6.87076 6.08389 8.46194L6.09426 11.3681C5.47867 11.7752 4.56584 12.2746 3.90961 12.6579L0.0405084 14.8775C-0.0421777 11.6954 0.0273023 8.17476 0.0274483 4.96759L8.62658 0.0078125Z" fill="#FF7A39"/>
<path d="M14.5734 8.60484C14.8989 8.57361 18.2786 10.6284 18.8362 10.954L18.8442 15.7521L14.7909 18.0967L14.696 18.0589C14.6092 16.9637 14.6734 14.5358 14.6749 13.3533L10.5352 10.9585C11.7493 10.1933 13.3131 9.33581 14.5734 8.60484Z" fill="#FF7A39"/>
<path d="M13.2565 17.7988C13.4025 17.9546 13.6703 18.4482 13.7907 18.6559C10.8564 20.4876 7.20352 22.4686 4.16136 24.2267C3.99 23.9924 3.78252 23.626 3.62598 23.3699L13.2565 17.7988Z" fill="#FF7A39"/>
<path d="M9.53137 11.5215L9.62333 11.5306C9.84621 11.7388 9.98509 12.0604 10.1325 12.3371L0.646814 17.8253L0.574859 17.8134C0.38555 17.6853 0.166317 17.2378 0.0395508 17.0166C3.07033 15.1684 6.43842 13.3074 9.53137 11.5215Z" fill="#FF7A39"/>
<path d="M9.24883 15.9766L9.33327 15.9879C9.55089 16.1853 9.70291 16.5356 9.84405 16.8053C6.7789 18.5156 3.67003 20.3567 0.623199 22.1161L0.580869 22.1095C0.383969 21.9913 0.161456 21.5205 0.0341797 21.2948L9.24883 15.9766Z" fill="#FF7A39"/>
<path d="M46.63 17.6295C46.63 18.5924 46.2862 19.4176 45.5984 20.1053C44.6051 21.0681 43.1914 21.5496 41.3575 21.5496C39.7834 21.5496 38.4156 21.1598 37.2541 20.3804C37.2541 20.6708 37.2388 20.8848 37.2082 21.0223C37.1318 21.2515 36.9026 21.3662 36.5205 21.3662V16.575H37.2999C37.3305 17.0641 37.4069 17.5226 37.5292 17.9505C38.0335 19.9219 39.2561 20.9077 41.197 20.9077C41.7319 20.9077 42.2286 20.8083 42.6871 20.6097C43.6652 20.1818 44.1542 19.4329 44.1542 18.3631C44.1542 17.981 44.0702 17.6295 43.9021 17.3086C43.5506 16.6667 42.7024 16.0249 41.3575 15.383C39.8751 14.6953 39.0192 14.2826 38.79 14.1451C37.3534 13.3198 36.6351 12.2653 36.6351 10.9816C36.6351 10.1105 36.9484 9.3616 37.575 8.73501C38.492 7.80277 39.8063 7.33664 41.518 7.33664C42.8934 7.33664 44.1619 7.63466 45.3233 8.23068C45.3233 8.09314 45.331 7.97088 45.3463 7.8639C45.4074 7.58881 45.6443 7.45127 46.0569 7.45127V11.5088H45.2775C45.2775 10.6683 45.0712 9.94999 44.6585 9.35396C44.0014 8.45228 43.0386 8.00144 41.7701 8.00144C41.3269 8.00144 40.9143 8.07021 40.5322 8.20776C39.6 8.57454 39.1339 9.23934 39.1339 10.2022C39.1339 10.5842 39.2179 10.9281 39.386 11.2337C39.7222 11.8756 40.5551 12.5022 41.8847 13.1135C43.3672 13.8012 44.2306 14.2215 44.4752 14.3743C45.9117 15.2149 46.63 16.2999 46.63 17.6295ZM48.0972 12.1507V11.5776H49.7018V9.39981L51.9025 8.9184V11.5776H55.2265V12.1507H51.9025V19.1196C51.9178 20.2658 52.3152 20.8542 53.0946 20.8848C53.8587 20.8695 54.4089 20.1818 54.7451 18.8216L55.3641 18.9362C55.3182 19.1807 55.2571 19.4176 55.1807 19.6469C54.7528 20.9306 53.8893 21.5725 52.5903 21.5725C52.468 21.5725 52.3381 21.5648 52.2006 21.5496C50.5347 21.3967 49.7018 20.3193 49.7018 18.3173V12.1507H48.0972ZM58.7339 16.3916C58.7339 16.896 58.7568 17.3545 58.8027 17.7671C59.0166 19.9067 59.8878 20.9765 61.416 20.9765C63.143 20.9459 64.0217 19.3871 64.0523 16.2999C64.0523 15.7039 64.0217 15.1614 63.9606 14.6723C63.7008 12.7773 62.845 11.8298 61.3931 11.8298C59.7731 11.952 58.8867 13.4726 58.7339 16.3916ZM61.4619 11.2567C62.5928 11.2567 63.5938 11.5547 64.4649 12.1507C65.8098 13.0982 66.4822 14.4966 66.4822 16.3458C66.4822 17.7212 66.062 18.8904 65.2214 19.8532C64.228 20.9841 62.9367 21.5496 61.3473 21.5496C60.1858 21.5496 59.1618 21.2133 58.2754 20.5409C56.9611 19.5628 56.304 18.1492 56.304 16.2999C56.304 14.9704 56.709 13.8471 57.5189 12.9301C58.5123 11.8145 59.8266 11.2567 61.4619 11.2567ZM68.1328 16.4833C68.1328 15.2607 68.4308 14.2062 69.0268 13.3198C69.9438 11.9444 71.3269 11.2567 73.1761 11.2567C74.1542 11.2567 75.0176 11.463 75.7665 11.8756C76.6682 12.3799 77.119 12.9912 77.119 13.7095C77.119 13.8012 77.1037 13.9006 77.0731 14.0075C76.9509 14.5424 76.5612 14.8022 75.904 14.787C75.6442 14.7717 75.4226 14.7105 75.2392 14.6036C74.9947 14.4355 74.8189 14.0228 74.712 13.3657C74.6814 13.1059 74.6508 12.9225 74.6203 12.8155C74.4522 12.1583 73.986 11.8298 73.2219 11.8298C71.4644 11.845 70.578 13.3657 70.5627 16.3916C70.5627 17.278 70.6621 18.0498 70.8607 18.707C71.3192 20.1741 72.198 20.9077 73.497 20.9077C73.7415 20.9077 73.986 20.8848 74.2306 20.8389C75.4073 20.6249 76.2479 19.9678 76.7522 18.8674L77.3482 19.0508C77.2107 19.3871 77.0273 19.7003 76.7981 19.9907C75.9728 21.0299 74.7655 21.5496 73.1761 21.5496C72.1216 21.5496 71.1817 21.305 70.3564 20.816C68.874 19.9296 68.1328 18.4854 68.1328 16.4833ZM83.0563 20.7472C83.1633 20.7472 83.255 20.7549 83.3314 20.7701C83.5301 20.8007 83.6294 20.9841 83.6294 21.3203H78.013V20.7472C78.4104 20.7472 78.7237 20.7166 78.9529 20.6555C79.4878 20.5333 79.7553 20.1283 79.7553 19.4405V6.99278H78.013V6.41968H81.956V16.3687L86.4949 12.1048H84.7986V11.5317H88.6956C88.6956 11.6082 88.688 11.6846 88.6727 11.761C88.6421 11.9902 88.4511 12.1048 88.0996 12.1048C87.9621 12.1048 87.8245 12.1201 87.687 12.1507C87.4272 12.2118 87.0298 12.4946 86.4949 12.9989L84.5235 14.8557L88.2142 20.7472H88.8332C88.9402 20.7472 89.0319 20.7549 89.1083 20.7701C89.3069 20.8007 89.4063 20.9841 89.4063 21.3203H86.0594L83.0105 16.2999L81.956 17.2857V20.7472H83.0563ZM102.427 21.3203H96.8337V20.7243C97.2157 20.7243 97.5214 20.6937 97.7506 20.6326C98.2091 20.5103 98.4384 20.1283 98.4384 19.4864V7.33664C97.7201 7.04627 96.9559 6.90109 96.146 6.90109C95.5194 6.90109 95.0303 7.05392 94.6788 7.35957C94.0675 7.89446 93.7619 9.23934 93.7619 11.3942V11.5317H96.1918V12.1278H93.7619V20.7243H94.8164C94.9081 20.7243 94.9921 20.7319 95.0685 20.7472C95.2672 20.7778 95.3665 20.9688 95.3665 21.3203H89.8189V20.7243C90.9498 20.7243 91.5306 20.3269 91.5611 19.5322V12.1278H89.8418V11.5317H91.5611V11.1879C91.5611 10.0417 91.7827 9.06359 92.2259 8.25361C92.9595 6.95458 94.1516 6.30506 95.8021 6.30506C96.2911 6.30506 96.9101 6.34327 97.6589 6.41968H100.662V20.7243H101.877C101.969 20.7243 102.053 20.7319 102.129 20.7472C102.328 20.7778 102.427 20.9688 102.427 21.3203ZM106.164 16.3916C106.164 16.896 106.187 17.3545 106.233 17.7671C106.446 19.9067 107.318 20.9765 108.846 20.9765C110.573 20.9459 111.452 19.3871 111.482 16.2999C111.482 15.7039 111.452 15.1614 111.39 14.6723C111.131 12.7773 110.275 11.8298 108.823 11.8298C107.203 11.952 106.317 13.4726 106.164 16.3916ZM108.892 11.2567C110.023 11.2567 111.024 11.5547 111.895 12.1507C113.24 13.0982 113.912 14.4966 113.912 16.3458C113.912 17.7212 113.492 18.8904 112.651 19.8532C111.658 20.9841 110.367 21.5496 108.777 21.5496C107.616 21.5496 106.592 21.2133 105.705 20.5409C104.391 19.5628 103.734 18.1492 103.734 16.2999C103.734 14.9704 104.139 13.8471 104.949 12.9301C105.942 11.8145 107.256 11.2567 108.892 11.2567ZM119.712 12.1048H118.13L120.766 19.5552L122.509 14.1909L121.592 11.5317H125.466V12.1048H123.953L126.474 19.5322L128.859 12.1048H127.323V11.5317H130.67C130.67 11.6234 130.662 11.7075 130.647 11.7839C130.601 11.9979 130.425 12.1048 130.119 12.1048C130.043 12.1048 129.967 12.1125 129.89 12.1278C129.646 12.1736 129.447 12.4181 129.294 12.8613L126.474 21.4349H125.947C125.672 21.4349 125.451 21.3967 125.282 21.3203C125.038 21.1828 124.763 20.6784 124.457 19.8073L122.852 15.1767L120.812 21.4349H120.216C119.972 21.4349 119.773 21.4044 119.62 21.3432C119.299 21.2057 118.978 20.6937 118.657 19.8073L115.861 12.1048H114.875V11.5317H119.712V12.1048Z" fill="black"/>
</svg>
