<svg width="156" height="156" viewBox="0 0 156 156" fill="none" xmlns="http://www.w3.org/2000/svg">
<rect width="156" height="156" rx="78" fill="white"/>
<path d="M31.481 55.8772V60.1334H26.8334V73H22.0879V60.1334H17.4403V55.8772H31.481ZM38.1144 73.4403C33.8092 73.4403 30.7271 70.4805 30.7271 66.3955C30.7271 62.3105 33.8092 59.3751 38.1144 59.3751C42.4195 59.3751 45.5261 62.3105 45.5261 66.3955C45.5261 70.4805 42.4195 73.4403 38.1144 73.4403ZM38.1144 69.3553C39.7777 69.3553 40.9763 68.1567 40.9763 66.4199C40.9763 64.6832 39.7777 63.4602 38.1144 63.4602C36.4755 63.4602 35.2769 64.6587 35.2769 66.4199C35.2769 68.1567 36.4755 69.3553 38.1144 69.3553ZM58.2253 59.791L61.2829 59.8154V71.5568C61.2829 75.6907 58.5677 78.2591 54.2136 78.2591C50.4711 78.2591 47.8537 76.3756 47.2422 73.2446H51.6207C51.9387 74.1252 53.064 74.6144 54.1647 74.6144C55.7058 74.6144 56.9288 73.636 56.9288 72.0705V71.6791C55.9259 72.2906 54.7518 72.6575 53.4798 72.6575C49.6883 72.6575 46.8753 69.8445 46.8753 66.0286C46.8753 62.2616 49.6883 59.3751 53.4798 59.3751C55.0698 59.3751 56.513 59.9622 57.6382 60.9162L58.2253 59.791ZM54.2381 68.915C55.877 68.915 57.0511 67.7164 57.0511 66.0286C57.0511 64.3652 55.877 63.1422 54.2381 63.1422C52.5992 63.1422 51.4006 64.3652 51.4006 66.0286C51.4006 67.7164 52.5747 68.915 54.2381 68.915ZM77.7644 66.2732C77.7644 66.689 77.7399 67.0804 77.691 67.4962H67.8821C68.1756 69.0128 69.1296 69.7956 70.5728 69.7956C71.6246 69.7956 72.5297 69.3308 72.9455 68.5481H77.4953C76.5658 71.5568 73.875 73.4403 70.5728 73.4403C66.4389 73.4403 63.4057 70.4316 63.4057 66.3955C63.4057 62.3594 66.4144 59.3751 70.5728 59.3751C74.829 59.3751 77.7644 62.4083 77.7644 66.2732ZM70.5728 62.9465C69.2519 62.9465 68.3224 63.6558 67.9554 64.9767H73.288C72.8966 63.6558 71.9426 62.9465 70.5728 62.9465ZM86.8104 69.0373H88.5471V73H85.4161C82.5052 73 80.7196 71.2143 80.7196 68.279V63.3134H78.2979V62.2371L84.2175 55.9506H85.1715V59.791H88.4738V63.3134H85.2694V67.5207C85.2694 68.4502 85.8564 69.0373 86.8104 69.0373ZM98.7517 59.4241C101.785 59.4241 103.742 61.6256 103.742 65.0501V73H99.192V65.5883C99.192 64.0717 98.6538 63.2889 97.4552 63.2889C96.0854 63.2889 95.2292 64.2674 95.2292 65.9552V73H90.6795V55.0211H95.2292V60.6716C96.2077 59.8888 97.4308 59.4241 98.7517 59.4241ZM120.046 66.2732C120.046 66.689 120.021 67.0804 119.972 67.4962H110.164C110.457 69.0128 111.411 69.7956 112.854 69.7956C113.906 69.7956 114.811 69.3308 115.227 68.5481H119.777C118.847 71.5568 116.157 73.4403 112.854 73.4403C108.72 73.4403 105.687 70.4316 105.687 66.3955C105.687 62.3594 108.696 59.3751 112.854 59.3751C117.111 59.3751 120.046 62.4083 120.046 66.2732ZM112.854 62.9465C111.533 62.9465 110.604 63.6558 110.237 64.9767H115.569C115.178 63.6558 114.224 62.9465 112.854 62.9465ZM129.503 59.7421H130.726V63.9005H128.941C127.351 63.9005 126.666 64.6098 126.666 66.2976V73H122.116V59.791H125.174L125.883 61.2586C126.812 60.1824 127.938 59.7421 129.503 59.7421Z" fill="#DB4A2B"/>
<path d="M29.8688 82.0993C33.9293 82.0993 36.8157 85.0102 36.8157 89.1197C36.8157 93.2291 33.9293 96.14 29.8688 96.14C28.3277 96.14 26.9579 95.6263 25.8816 94.7213L25.4658 95.6997H22.0901V77.7208H26.591V83.0044C27.545 82.4173 28.6457 82.0993 29.8688 82.0993ZM29.2573 92.1039C30.9451 92.1039 32.2171 90.8319 32.2171 89.1197C32.2171 87.3829 30.9695 86.1109 29.2573 86.1109C27.5694 86.1109 26.2975 87.3829 26.2975 89.1197C26.2975 90.8319 27.5694 92.1039 29.2573 92.1039ZM45.2187 96.14C41.3294 96.14 38.7121 93.7428 38.7121 90.0492V82.4907H43.2618V89.8535C43.2618 91.2478 44.0201 92.055 45.2187 92.055C46.4418 92.055 47.1756 91.2233 47.1756 89.8535V82.4907H51.7254V90.0492C51.7254 93.7428 49.1325 96.14 45.2187 96.14ZM63.3387 82.4907H68.2309L62.6783 95.1126C60.8926 99.1732 59.2782 100.616 55.8536 100.616H54.2881V96.7271H55.5601C57.2968 96.7271 57.8105 96.2623 58.422 94.6234L52.9672 82.4907H57.9083L60.7214 89.7801L63.3387 82.4907ZM69.6036 80.8518V76.9869H74.1045V80.8518H69.6036ZM69.5792 95.6997V82.4907H74.1289V95.6997H69.5792ZM84.9587 82.1238C88.0164 82.1238 90.0467 84.3008 90.0467 87.652V95.6997H85.4969V88.288C85.4969 86.7469 84.9098 85.9886 83.7601 85.9886C82.3414 85.9886 81.5342 86.9671 81.5342 88.6549V95.6997H76.9844V82.4907H80.1888L80.8003 83.8605C81.7788 82.7598 83.2465 82.1238 84.9587 82.1238ZM103.342 82.4907L106.4 82.5151V94.2565C106.4 98.3904 103.685 100.959 99.3304 100.959C95.5879 100.959 92.9705 99.0753 92.359 95.9443H96.7375C97.0555 96.8249 98.1807 97.3141 99.2815 97.3141C100.823 97.3141 102.046 96.3357 102.046 94.7702V94.3788C101.043 94.9903 99.8686 95.3573 98.5966 95.3573C94.8051 95.3573 91.9921 92.5442 91.9921 88.7283C91.9921 84.9613 94.8051 82.0748 98.5966 82.0748C100.187 82.0748 101.63 82.6619 102.755 83.6159L103.342 82.4907ZM99.3549 91.6147C100.994 91.6147 102.168 90.4161 102.168 88.7283C102.168 87.0649 100.994 85.8419 99.3549 85.8419C97.716 85.8419 96.5174 87.0649 96.5174 88.7283C96.5174 90.4161 97.6915 91.6147 99.3549 91.6147ZM109.11 95.6997V91.4924H113.537V95.6997H109.11ZM116.257 80.8518V76.9869H120.757V80.8518H116.257ZM116.232 95.6997V82.4907H120.782V95.6997H116.232ZM131.612 82.1238C134.669 82.1238 136.7 84.3008 136.7 87.652V95.6997H132.15V88.288C132.15 86.7469 131.563 85.9886 130.413 85.9886C128.994 85.9886 128.187 86.9671 128.187 88.6549V95.6997H123.637V82.4907H126.842L127.453 83.8605C128.432 82.7598 129.899 82.1238 131.612 82.1238Z" fill="black"/>
<path d="M88.4385 46.1494L100.413 52.7246" stroke="#DB4A2B" stroke-width="3.33823"/>
<path d="M89.6885 46.1494L77.7141 52.7246" stroke="#DB4A2B" stroke-width="3.33823"/>
</svg>
