<svg width="141" height="84" viewBox="0 0 141 84" fill="none" xmlns="http://www.w3.org/2000/svg">
<path d="M16.7855 16.1523V21.0859H11.3983V36H5.89761V21.0859H0.51037V16.1523H16.7855ZM24.4745 36.5104C19.4842 36.5104 15.9116 33.0795 15.9116 28.3445C15.9116 23.6094 19.4842 20.2069 24.4745 20.2069C29.4648 20.2069 33.0657 23.6094 33.0657 28.3445C33.0657 33.0795 29.4648 36.5104 24.4745 36.5104ZM24.4745 31.7753C26.4026 31.7753 27.7919 30.3859 27.7919 28.3728C27.7919 26.3597 26.4026 24.942 24.4745 24.942C22.5748 24.942 21.1854 26.3313 21.1854 28.3728C21.1854 30.3859 22.5748 31.7753 24.4745 31.7753ZM47.7858 20.6889L51.3301 20.7173V34.3271C51.3301 39.1189 48.1828 42.0961 43.1358 42.0961C38.7976 42.0961 35.7638 39.9128 35.0549 36.2835H40.1303C40.4989 37.3043 41.8031 37.8714 43.0791 37.8714C44.8654 37.8714 46.2831 36.7372 46.2831 34.9226V34.4689C45.1206 35.1777 43.7596 35.603 42.2852 35.603C37.8903 35.603 34.6296 32.3423 34.6296 27.9191C34.6296 23.5526 37.8903 20.2069 42.2852 20.2069C44.1282 20.2069 45.801 20.8874 47.1053 21.9932L47.7858 20.6889ZM43.1641 31.2649C45.0638 31.2649 46.4248 29.8756 46.4248 27.9191C46.4248 25.9911 45.0638 24.5734 43.1641 24.5734C41.2644 24.5734 39.8751 25.9911 39.8751 27.9191C39.8751 29.8756 41.2361 31.2649 43.1641 31.2649ZM70.4344 28.2027C70.4344 28.6847 70.406 29.1384 70.3493 29.6204H58.9794C59.3196 31.3783 60.4254 32.2856 62.0983 32.2856C63.3175 32.2856 64.3666 31.7469 64.8487 30.8396H70.1225C69.045 34.3271 65.9261 36.5104 62.0983 36.5104C57.3065 36.5104 53.7906 33.0228 53.7906 28.3445C53.7906 23.6661 57.2782 20.2069 62.0983 20.2069C67.0319 20.2069 70.4344 23.7228 70.4344 28.2027ZM62.0983 24.3466C60.5672 24.3466 59.4898 25.1688 59.0645 26.6999H65.2456C64.7919 25.1688 63.6861 24.3466 62.0983 24.3466ZM80.92 31.4067H82.9331V36H79.3038C75.9297 36 73.8599 33.9302 73.8599 30.5277V24.7719H71.0528V23.5243L77.9145 16.2373H79.0203V20.6889H82.8481V24.7719H79.1337V29.6487C79.1337 30.7262 79.8142 31.4067 80.92 31.4067ZM94.7616 20.2636C98.2774 20.2636 100.546 22.8154 100.546 26.785V36H95.2719V27.4088C95.2719 25.6508 94.6481 24.7435 93.2588 24.7435C91.671 24.7435 90.6786 25.8777 90.6786 27.8341V36H85.4048V15.1599H90.6786V21.7096C91.8128 20.8023 93.2305 20.2636 94.7616 20.2636ZM119.445 28.2027C119.445 28.6847 119.416 29.1384 119.359 29.6204H107.99C108.33 31.3783 109.436 32.2856 111.108 32.2856C112.328 32.2856 113.377 31.7469 113.859 30.8396H119.133C118.055 34.3271 114.936 36.5104 111.108 36.5104C106.317 36.5104 102.801 33.0228 102.801 28.3445C102.801 23.6661 106.288 20.2069 111.108 20.2069C116.042 20.2069 119.445 23.7228 119.445 28.2027ZM111.108 24.3466C109.577 24.3466 108.5 25.1688 108.075 26.6999H114.256C113.802 25.1688 112.696 24.3466 111.108 24.3466ZM130.407 20.6322H131.825V25.4524H129.755C127.912 25.4524 127.118 26.2746 127.118 28.231V36H121.844V20.6889H125.388L126.21 22.3901C127.288 21.1426 128.592 20.6322 130.407 20.6322Z" fill="#DB4A2B"/>
<path d="M14.9169 46.5473C19.6237 46.5473 22.9694 49.9214 22.9694 54.6848C22.9694 59.4483 19.6237 62.8224 14.9169 62.8224C13.1306 62.8224 11.5428 62.227 10.2952 61.1779L9.81322 62.312H5.90038V41.4719H11.1175V47.5963C12.2233 46.9159 13.4992 46.5473 14.9169 46.5473ZM14.2081 58.144C16.1645 58.144 17.6389 56.6696 17.6389 54.6848C17.6389 52.6717 16.1928 51.1973 14.2081 51.1973C12.2517 51.1973 10.7773 52.6717 10.7773 54.6848C10.7773 56.6696 12.2517 58.144 14.2081 58.144ZM32.7096 62.8224C28.2014 62.8224 25.1675 60.0437 25.1675 55.7623V47.0009H30.4413V55.5354C30.4413 57.1516 31.3203 58.0873 32.7096 58.0873C34.1273 58.0873 34.978 57.1233 34.978 55.5354V47.0009H40.2518V55.7623C40.2518 60.0437 37.2463 62.8224 32.7096 62.8224ZM53.7132 47.0009H59.384L52.9477 61.6315C50.8778 66.3383 49.0065 68.0111 45.0369 68.0111H43.2223V63.5029H44.6967C46.7098 63.5029 47.3053 62.9642 48.0141 61.0644L41.6912 47.0009H47.4187L50.6794 55.4504L53.7132 47.0009ZM60.9751 45.1012V40.6213H66.1923V45.1012H60.9751ZM60.9468 62.312V47.0009H66.2206V62.312H60.9468ZM78.7739 46.5756C82.3181 46.5756 84.6715 49.0991 84.6715 52.9836V62.312H79.3976V53.7208C79.3976 51.9345 78.7171 51.0555 77.3845 51.0555C75.74 51.0555 74.8043 52.1897 74.8043 54.1461V62.312H69.5305V47.0009H73.2448L73.9537 48.5887C75.0879 47.3128 76.7891 46.5756 78.7739 46.5756ZM100.083 47.0009L103.627 47.0293V60.6391C103.627 65.4309 100.48 68.4081 95.4326 68.4081C91.0945 68.4081 88.0606 66.2248 87.3518 62.5956H92.4271C92.7957 63.6163 94.1 64.1834 95.3759 64.1834C97.1622 64.1834 98.5799 63.0492 98.5799 61.2346V60.7809C97.4174 61.4897 96.0564 61.9151 94.582 61.9151C90.1872 61.9151 86.9265 58.6544 86.9265 54.2312C86.9265 49.8647 90.1872 46.5189 94.582 46.5189C96.425 46.5189 98.0979 47.1994 99.4022 48.3052L100.083 47.0009ZM95.461 57.5769C97.3607 57.5769 98.7217 56.1876 98.7217 54.2312C98.7217 52.3031 97.3607 50.8854 95.461 50.8854C93.5613 50.8854 92.172 52.3031 92.172 54.2312C92.172 56.1876 93.5329 57.5769 95.461 57.5769ZM106.768 62.312V57.4351H111.9V62.312H106.768ZM115.052 45.1012V40.6213H120.27V45.1012H115.052ZM115.024 62.312V47.0009H120.298V62.312H115.024ZM132.851 46.5756C136.395 46.5756 138.749 49.0991 138.749 52.9836V62.312H133.475V53.7208C133.475 51.9345 132.794 51.0555 131.462 51.0555C129.817 51.0555 128.882 52.1897 128.882 54.1461V62.312H123.608V47.0009H127.322L128.031 48.5887C129.165 47.3128 130.866 46.5756 132.851 46.5756Z" fill="black"/>
<path d="M82.8071 4.80957L96.6871 12.4311" stroke="#DB4A2B" stroke-width="3.86948"/>
<path d="M84.2559 4.80957L70.3759 12.4311" stroke="#DB4A2B" stroke-width="3.86948"/>
</svg>
