<svg width="156" height="192" viewBox="0 0 156 192" fill="none" xmlns="http://www.w3.org/2000/svg">
<path d="M65.9283 81.6119L66.0023 81.5547C67.1272 81.6426 68.8051 81.5942 69.9756 81.5913L76.8296 81.5816L99.0547 81.581L132.439 81.5818L143.12 81.5864C144.927 81.5889 147.019 81.6457 148.798 81.588C148.783 87.2152 147.596 92.7767 145.311 97.9196C144.71 99.2804 144.076 100.379 143.447 101.676C143.135 102.138 142.161 103.525 142.013 103.975C136.886 111.126 130.659 116.847 122.221 119.852C124.095 124.009 124.494 125.638 125.553 129.98L124.476 129.989C123.13 124.497 122.247 121.363 119.029 116.45C114.714 109.883 108.412 104.869 101.046 102.136C98.5388 101.231 96.6143 100.826 94.0297 100.283C94.0311 99.9437 94.0559 99.9191 93.8944 99.6115C93.3125 99.4427 93.209 100.018 92.6506 100.109C81.6976 99.2879 74.6087 101.443 65.7166 107.76C70.5709 113.052 73.437 118.111 74.6084 125.312C74.8749 126.949 74.9138 128.386 75.1084 129.966C72.1809 129.827 68.4634 129.928 65.4867 129.93H48.0403H23.7017C19.5673 129.932 15.0914 129.842 10.9863 129.944C10.9837 122.034 14.3293 113.894 19.875 108.215C20.5431 107.531 21.2443 106.882 21.919 106.188C22.2441 105.975 22.8969 105.428 23.2277 105.168C30.7521 99.5559 38.9662 97.236 48.3588 98.8008C54.9619 99.8999 60.0214 102.652 64.9923 107.071C66.504 105.63 70.0011 103.513 71.9195 102.665C68.277 96.8216 65.8241 88.5279 65.9283 81.6119Z" fill="#262626"/>
<path d="M65.9481 80.6588C65.8768 79.1955 66.1806 76.4574 66.4072 75.0039C68.0538 64.0667 74.0059 54.2426 82.9375 47.72C91.8594 41.2167 103.014 38.5581 113.91 40.3381C122.831 41.7326 131.043 46.0271 137.278 52.5575C139.257 54.6374 140.398 56.1945 142.066 58.4899C142.358 59.0146 143.07 60.24 143.437 60.7262C146.809 67.231 148.804 73.3221 148.801 80.7735C145.853 80.6308 142.081 80.7301 139.059 80.7304L121.131 80.7316L66.0188 80.7269L65.9481 80.6588Z" fill="#262626"/>
<path d="M10.9277 130.86L54.8788 130.85L68.5945 130.852C70.288 130.853 73.6099 130.972 75.1351 130.843C74.8822 132.787 74.8719 134.433 74.4872 136.418C73.0222 144.134 68.7782 151.045 62.5594 155.84C61.367 156.756 60.2 157.496 58.9313 158.298C67.5429 169.352 79.2314 174.282 93.1477 172.865L93.15 173.831C84.359 175.283 73.9609 172.495 66.7946 167.334C65.9547 166.73 65.0899 166.015 64.2263 165.474L64.1415 165.421C63.6507 164.896 63.2426 164.498 62.7134 164.01C61.014 162.393 59.4407 160.649 58.0069 158.793C51.0267 162.741 42.0894 163.48 34.4087 161.351C26.1175 159.002 19.1043 153.445 14.9208 145.91C12.173 141.052 11.263 136.333 10.9277 130.86Z" fill="#262626"/>
<path d="M92.6508 100.113C93.2092 100.022 93.3127 99.446 93.8946 99.6148C94.0561 99.9224 94.0313 99.947 94.0299 100.287C93.8277 107.075 93.9659 114.501 93.9734 121.332L93.9795 127.003C93.9802 127.759 94.0181 129.298 93.9301 129.999L124.476 129.992L125.553 129.983L125.697 130.82L124.632 130.834C121.046 130.641 116.241 130.78 112.588 130.784L94.01 130.79C93.8184 142.131 94.0756 153.533 93.9656 164.881C93.9563 165.836 93.8808 172.218 94.09 172.757C93.9396 172.991 93.9952 173.405 94.0032 173.708C93.9655 177.159 94.1503 182.019 93.9391 185.312L130.4 185.318C130.475 178.715 130.415 171.987 130.421 165.376C127.925 165.309 125.343 165.417 122.83 165.404C119.425 165.388 116.071 165.334 112.665 165.402C113.188 164.85 113.506 164.529 114.086 164.044C119.074 163.883 125.375 163.987 130.417 164.044L130.424 149.601L123.784 149.587C123.42 149.606 123.007 149.596 122.638 149.597L103.027 149.61L102.904 149.472L102.935 148.98C103.58 148.377 122.037 149.234 122.968 148.667C123.365 148.81 123.584 148.776 124.001 148.767C126.039 148.821 128.797 148.603 130.764 148.904C131.402 149.002 131.208 154.415 131.208 155.084C131.218 158.07 131.211 161.054 131.185 164.038C134.731 163.958 138.522 164.02 142.083 164.026L142.077 122.315L142.081 110.138C142.08 108.647 142.157 105.302 142.014 103.978C142.161 103.528 143.135 102.141 143.447 101.679L143.439 142.514C143.44 149.608 143.542 156.942 143.419 164.018C147.612 164.006 151.806 164.016 156 164.049L155.971 165.352L147.682 165.351C146.456 165.351 144.6 165.407 143.428 165.34C143.442 168.743 143.56 172.914 143.376 176.246C142.958 176.249 142.504 176.24 142.088 176.254C142.084 172.731 142.014 168.915 142.082 165.414C138.492 165.267 134.793 165.417 131.193 165.337L131.201 182.242C131.201 185.019 131.202 187.85 131.201 190.632C131.201 190.799 131.141 190.885 131.049 191.013C130.767 191.073 130.783 191.085 130.516 190.989C130.334 190.202 130.412 187.131 130.42 186.131H105.515C103.901 186.131 94.2982 186.264 93.3067 185.914C93.0519 185.048 93.1555 175.416 93.1491 173.836L93.1468 172.869L93.1556 130.794L80.2166 130.771C78.9746 130.77 77.737 130.768 76.495 130.805C76.0039 130.82 75.4413 130.866 75.1407 130.435L75.2273 130.243C75.8885 129.805 77.1935 130 78.0062 130.004H82.7209C85.9143 130.001 90.0368 129.875 93.1598 130.031C93.1607 127.204 93.2415 100.461 93.0441 100.18L92.6508 100.113Z" fill="black" fill-opacity="0.988235"/>
<path d="M21.9186 0C22.3697 0.0176236 22.8207 0.0325768 23.2718 0.0446463C23.3405 5.06993 23.2701 10.2159 23.2904 15.2488C23.2969 16.8527 23.4032 21.7799 23.2249 23.1247C26.24 22.9719 30.6806 23.1206 33.7884 23.1229L55.329 23.132C73.5141 23.1309 92.0971 22.9003 110.254 23.1406L110.268 24.5164L52.8103 24.479C43.0996 24.4783 32.9732 24.6351 23.2975 24.453L23.2798 64.074C23.2799 69.6145 23.3437 75.2585 23.2801 80.7899C24.7709 80.6626 28.7788 80.7834 30.4443 80.7829L53.8347 80.7827C55.0988 80.7831 65.6271 80.8762 65.9489 80.6588L66.0196 80.7268L66.0025 81.5569L65.9285 81.6142C63.6392 81.5192 61.2895 81.5954 58.9927 81.5782C47.1018 81.4894 35.1743 81.7087 23.2867 81.5764L23.2803 96.2717C23.2815 99.0038 23.3843 102.488 23.2279 105.17C22.897 105.431 22.2443 105.977 21.9192 106.19C21.7934 98.1323 21.9292 89.6783 21.9275 81.5793L11.3547 81.5791C9.88359 81.5801 8.37623 81.573 6.90347 81.6083C6.59013 81.6158 6.59621 81.5786 6.40334 81.425L6.36916 80.9611L6.48322 80.8466C7.26638 80.7142 10.0077 80.7902 10.9797 80.7874C14.6284 80.7742 18.2772 80.7817 21.9258 80.8098L21.9285 24.4809C19.3047 24.5836 15.9113 24.4824 13.2422 24.4792C8.8282 24.5083 4.414 24.5025 0 24.462C0.0316124 24.0229 0.0206121 23.5677 0.0194373 23.1262C0.948801 23.0979 1.91992 23.1145 2.85217 23.1246C9.2005 23.1935 15.5876 23.0245 21.932 23.1581L21.9186 0Z" fill="black"/>
<path d="M62.7125 164.015C63.2417 164.503 63.6498 164.9 64.1406 165.426C61.895 165.223 58.2174 165.342 55.9014 165.349C51.0248 165.382 46.1478 165.39 41.271 165.371L15.0011 165.346C10.0828 165.345 4.93242 165.274 0.0337676 165.4C0.0574769 164.938 0.0385729 164.484 0.0274658 164.02L41.6573 164.012L55.1388 164.018C57.5488 164.023 60.3261 164.098 62.7125 164.015Z" fill="black"/>
<path d="M142.076 22.3877L143.425 22.4274L143.438 60.7249C143.07 60.2387 142.358 59.0132 142.066 58.4885C142.198 46.5093 142.041 34.3832 142.076 22.3877Z" fill="black"/>
<path d="M122.638 149.596C123.006 149.595 123.42 149.604 123.784 149.585C121.201 155.663 118.913 159.416 114.085 164.043C113.506 164.528 113.187 164.848 112.665 165.4C111.183 166.459 109.821 167.542 108.269 168.524C104.428 170.959 98.5527 173.28 94.0029 173.706C93.9949 173.404 93.9394 172.989 94.0897 172.755C107.562 170.147 117.425 162.366 122.638 149.596Z" fill="#262626"/>
<path d="M124.633 130.832L125.697 130.818C125.796 132.324 125.984 134.038 126.033 135.521C126.166 139.561 125.54 144.983 124.001 148.766C123.585 148.774 123.366 148.808 122.969 148.665C125.039 142.243 125.449 137.575 124.633 130.832Z" fill="#262626"/>
</svg>
