<svg width="156" height="156" viewBox="0 0 156 156" fill="none" xmlns="http://www.w3.org/2000/svg">
<g clip-path="url(#clip0_41_6295)">
<rect width="156" height="156" rx="78" fill="white"/>
<rect width="161.377" height="161.377" transform="translate(-3 -3)" fill="url(#paint0_radial_41_6295)"/>
<path d="M68.4921 74.3987C67.992 72.8244 67.478 68.2817 67.478 68.2817L67.6684 68.3719L68.0724 69.8007L68.9763 72.2379L70.1559 75.0038C78.3088 91.7639 94.9231 104.818 103.575 108.381C103.575 108.381 104.318 107.456 102.947 109.464C101.576 111.473 100.966 111.931 100.966 111.931C100.966 111.931 76.059 98.214 68.4921 74.3987Z" fill="url(#paint1_linear_41_6295)"/>
<path d="M102.235 109.346C101.055 110.502 97.0821 107.292 97.0821 107.292L96.8036 107.005L98.5081 107.313L98.805 106.339L100.292 107.774L101.932 105.159C106.939 97.7871 112.632 79.051 115.975 64.4964C117.866 56.267 118.925 45.4181 120.828 43.4263C122.731 41.4345 121.039 54.8319 121.039 54.8319C121.039 54.8319 120.086 91.859 102.235 109.346Z" fill="#D65144"/>
<path d="M94.0545 112.446C89.8935 109.203 85.6401 104.497 82.1933 100.468C81.6845 99.8724 79.2799 96.501 78.8069 96.5048C76.1761 100.379 73.3285 104.182 70.1381 107.629C62.061 116.358 55.8119 120.14 47.9497 108.517C37.8882 93.6441 30.0957 65.6646 31.2133 47.7843C31.4752 43.5799 33.2467 39.4038 37.3116 37.6757C46.7625 33.6598 62.9505 43.1728 70.4 48.9413C77.5838 54.5063 84.3115 61.4338 89.085 69.1773C89.477 69.4431 90.7547 66.7048 90.9997 66.2978C91.3389 65.7362 92.8183 63.1864 93.1481 62.981C93.8547 62.5401 96.853 62.7587 96.821 63.9968C95.8505 67.338 93.7096 70.2534 92.2887 73.4232C93.6644 76.0671 95.1965 78.6678 96.3291 81.4324C96.7192 82.3841 97.7557 84.849 97.8914 85.7159C98.3098 87.0841 98.3098 87.0841 98.8751 88.8743C99.3463 90.0993 99.2916 89.9071 99.7269 91.4166C101.434 97.3434 102.081 103.534 102.175 109.696C108.288 101.717 112.427 91.7859 115.367 82.1824C118.256 72.7447 120.377 62.7605 120.924 52.8762C121.267 46.7044 121.444 30.816 110.962 35.9419C101.042 40.7927 99.987 53.2569 103.5 62.5796C104.205 64.4491 106.76 67.6019 103.882 68.6233C101.881 69.3338 101.129 67.1948 100.353 65.7287C94.6519 54.9831 95.8184 41.3618 105.869 33.673C111.722 29.1953 119.69 28.4434 123.598 35.6988C128.615 45.0102 125.2 65.6269 122.722 75.7788C120.165 86.2492 114.377 103.915 107.269 111.962C102.631 117.21 99.1823 116.437 94.0602 112.446H94.0545ZM77.0184 89.1551L77.4745 88.9573C80.8007 84.0198 83.7613 78.8694 86.7294 73.7134C81.1983 65.0314 74.039 57.2577 65.6906 51.199C60.3216 47.3037 53.4393 43.3782 46.9321 41.8782C36.6482 39.5074 35.8548 45.0366 36.3052 53.6357C36.9987 66.833 40.8017 81.5209 46.0746 93.6177C47.6143 97.1512 53.2697 108.845 56.4922 110.337C58.2298 111.144 59.5263 110.152 60.8982 109.127C61.4956 108.681 65.146 105.518 65.1441 105.083C59.564 95.766 54.244 85.927 51.291 75.3981C50.8066 73.6681 50.1772 71.5443 49.9247 69.7917C49.8305 69.1396 49.6156 67.6038 49.7004 67.0252C49.8813 65.7682 51.4606 64.5 52.7081 65.1237C53.1246 65.331 53.8765 67.8544 54.0744 68.4688C54.7717 70.6303 55.2899 72.8559 56.0098 75.0137C59.0684 84.1819 63.3764 92.8676 68.3402 101.129C68.5532 101.348 68.6568 101.158 68.8264 101.037C69.1958 100.771 70.4057 99.1525 70.7882 98.6644C72.4447 96.5594 73.9448 94.2961 75.4411 92.0761C70.9277 84.8867 67.0461 76.6642 67.195 67.9634C67.6662 67.9634 67.5719 67.9634 67.5864 68.3331C69.0111 76.0728 72.7368 82.6799 77.0184 89.1551ZM99.627 111.017C99.4593 104.096 97.9404 97.0909 95.679 90.5629C94.2147 86.3397 92.3264 81.994 89.9236 78.2306L81.0004 93.5385C83.8197 97.1116 87.1666 100.541 90.4871 103.675C93.2856 106.319 96.2971 109.093 99.6289 111.017H99.627Z" fill="url(#paint2_linear_41_6295)"/>
</g>
<defs>
<radialGradient id="paint0_radial_41_6295" cx="0" cy="0" r="1" gradientUnits="userSpaceOnUse" gradientTransform="translate(80.6887 80.6887) rotate(90) scale(80.6887)">
<stop stop-color="#A1E6FF"/>
<stop offset="1" stop-color="#00B7FB"/>
</radialGradient>
<linearGradient id="paint1_linear_41_6295" x1="83.6713" y1="66.8036" x2="87.8996" y2="113.124" gradientUnits="userSpaceOnUse">
<stop stop-color="#D65144"/>
<stop offset="1" stop-color="#D65144"/>
</linearGradient>
<linearGradient id="paint2_linear_41_6295" x1="78.6427" y1="30.2729" x2="78.6427" y2="115.804" gradientUnits="userSpaceOnUse">
<stop stop-color="white"/>
<stop offset="1" stop-color="#FFFEFD"/>
</linearGradient>
<clipPath id="clip0_41_6295">
<rect width="156" height="156" rx="78" fill="white"/>
</clipPath>
</defs>
</svg>
