<svg width="97" height="25" viewBox="0 0 97 25" fill="none" xmlns="http://www.w3.org/2000/svg">
<path d="M29.6203 12.5707C29.9997 12.5707 30.2719 12.6532 30.4369 12.8182C30.6184 12.9831 30.7091 13.1976 30.7091 13.4616C30.7091 13.8905 30.5771 14.2699 30.3132 14.5998C30.0657 14.9298 29.6698 15.103 29.1254 15.1195C27.8222 15.136 26.6509 15.037 25.6116 14.8226C24.4568 17.2806 23.0628 19.3262 21.4296 20.9594C19.8129 22.5761 18.2127 23.3845 16.629 23.3845C15.1772 23.3845 14.0884 22.6174 13.3626 21.0831C12.6367 19.5324 12.2243 17.4621 12.1253 14.872C11.1355 17.7425 10.0137 19.8789 8.75993 21.2811C7.52266 22.6833 6.20291 23.3845 4.80067 23.3845C3.21696 23.3845 2.02093 22.4029 1.21258 20.4398C0.40423 18.4601 5.47259e-05 15.8041 5.47259e-05 12.4717C5.47259e-05 10.0467 0.214515 7.38243 0.643435 4.47897C0.758914 3.65412 0.965126 3.08498 1.26207 2.77154C1.57551 2.4416 2.06217 2.27663 2.72205 2.27663C3.21696 2.27663 3.59639 2.38386 3.86034 2.59832C4.14079 2.81278 4.28101 3.20871 4.28101 3.7861C4.28101 3.90158 4.26451 4.12429 4.23152 4.45423C3.73661 7.8361 3.48916 10.7148 3.48916 13.0904C3.48916 15.301 3.67887 17.0084 4.0583 18.2127C4.43773 19.417 4.94914 20.0191 5.59252 20.0191C6.16991 20.0191 6.86278 19.417 7.67113 18.2127C8.49598 16.9919 9.31258 15.1937 10.1209 12.8182C10.9293 10.4261 11.6139 7.5804 12.1748 4.28101C12.3068 3.52215 12.546 3.0025 12.8924 2.72205C13.2553 2.4251 13.742 2.27663 14.3524 2.27663C14.8638 2.27663 15.235 2.39211 15.4659 2.62307C15.7134 2.83753 15.8371 3.16746 15.8371 3.61288C15.8371 3.87683 15.8206 4.08304 15.7876 4.23152C15.3257 6.92052 15.0948 9.60952 15.0948 12.2985C15.0948 14.1297 15.1525 15.5897 15.268 16.6785C15.4 17.7673 15.6392 18.6004 15.9856 19.1777C16.3485 19.7386 16.8682 20.0191 17.5446 20.0191C18.3364 20.0191 19.219 19.4252 20.1923 18.2374C21.1656 17.0331 22.0565 15.5402 22.8648 13.7585C21.8585 13.1316 21.0996 12.3233 20.5882 11.3335C20.0768 10.3271 19.8211 9.17235 19.8211 7.86909C19.8211 6.56583 20.0191 5.46879 20.415 4.57795C20.8274 3.67062 21.3801 2.99425 22.073 2.54883C22.7823 2.10341 23.5659 1.8807 24.4238 1.8807C25.4796 1.8807 26.3127 2.26013 26.9231 3.01899C27.55 3.77785 27.8634 4.81716 27.8634 6.13691C27.8634 8.00107 27.4592 10.0714 26.6509 12.348C27.4922 12.4965 28.482 12.5707 29.6203 12.5707ZM22.3204 7.69588C22.3204 9.31258 22.8401 10.5086 23.8794 11.284C24.5228 9.4363 24.8445 7.91034 24.8445 6.70606C24.8445 6.01319 24.7537 5.51003 24.5723 5.19659C24.3908 4.86665 24.1433 4.70168 23.8299 4.70168C23.3845 4.70168 23.0215 4.96563 22.7411 5.49353C22.4606 6.00494 22.3204 6.73905 22.3204 7.69588ZM31.5454 10.0962C30.8526 10.0962 30.3329 9.93946 29.9865 9.62602C29.64 9.29608 29.4668 8.84241 29.4668 8.26502C29.4668 7.68763 29.6895 7.20922 30.1349 6.82979C30.5969 6.43386 31.166 6.2359 31.8424 6.2359C32.4528 6.2359 32.9477 6.38437 33.3271 6.68131C33.7065 6.97826 33.8962 7.39893 33.8962 7.94333C33.8962 8.60321 33.6818 9.13111 33.2529 9.52704C32.8239 9.90647 32.2548 10.0962 31.5454 10.0962ZM31.3475 23.3845C30.2752 23.3845 29.4916 23.005 28.9967 22.2462C28.5182 21.4873 28.279 20.481 28.279 19.2272C28.279 18.4849 28.3698 17.5363 28.5512 16.3815C28.7492 15.2102 28.9967 14.1214 29.2936 13.1151C29.4421 12.5872 29.64 12.2243 29.8875 12.0263C30.1349 11.8284 30.5309 11.7294 31.0753 11.7294C31.9166 11.7294 32.3373 12.0098 32.3373 12.5707C32.3373 12.9831 32.1806 13.94 31.8671 15.4412C31.4712 17.2559 31.2732 18.4849 31.2732 19.1283C31.2732 19.6232 31.3392 20.0026 31.4712 20.2665C31.6032 20.5305 31.8259 20.6625 32.1393 20.6625C32.4363 20.6625 32.8074 20.4563 33.2529 20.0438C33.6983 19.6314 34.2922 18.9798 35.0345 18.089C35.2325 17.858 35.4552 17.7425 35.7027 17.7425C35.9171 17.7425 36.0821 17.8415 36.1976 18.0395C36.3295 18.2374 36.3955 18.5096 36.3955 18.8561C36.3955 19.5159 36.2388 20.0273 35.9254 20.3903C34.2922 22.3864 32.7662 23.3845 31.3475 23.3845ZM38.9961 23.9289C38.1383 23.9289 37.4784 23.7309 37.0165 23.335C36.5711 22.9391 36.3484 22.4936 36.3484 21.9987C36.3484 21.5698 36.5051 21.1986 36.8185 20.8852C37.132 20.5717 37.5939 20.415 38.2043 20.415C38.4187 20.415 38.6662 20.4398 38.9466 20.4893C39.2436 20.5222 39.4663 20.547 39.6148 20.5635C39.5983 20.1346 39.4993 19.7304 39.3178 19.351C39.1528 18.9715 38.9384 18.6086 38.6744 18.2622C38.4105 17.8992 38.163 17.5858 37.9321 17.3218C37.4207 18.2952 36.9093 19.1035 36.3979 19.7469C35.9029 20.3903 35.3585 21.0007 34.7647 21.5781C34.4677 21.875 34.1543 22.0235 33.8243 22.0235C33.5604 22.0235 33.3459 21.9327 33.181 21.7513C33.016 21.5533 32.9335 21.3141 32.9335 21.0337C32.9335 20.7037 33.049 20.3985 33.2799 20.1181L33.6016 19.7221C34.509 18.6004 35.1936 17.6765 35.6555 16.9507C35.9359 16.4722 36.2659 15.8371 36.6453 15.0453C37.0247 14.2369 37.3959 13.4038 37.7589 12.546C38.0723 11.8201 38.7239 11.4572 39.7137 11.4572C40.1757 11.4572 40.4973 11.4984 40.6788 11.5809C40.8603 11.6634 40.951 11.7954 40.951 11.9768C40.951 12.0758 40.918 12.2325 40.852 12.447C40.786 12.6615 40.6953 12.8759 40.5798 13.0904C40.2829 13.6843 40.1344 14.1874 40.1344 14.5998C40.1344 14.8473 40.2169 15.1195 40.3819 15.4164C40.5633 15.7134 40.8355 16.0846 41.1985 16.53C41.7264 17.2229 42.1223 17.8168 42.3862 18.3117C42.6667 18.7901 42.8069 19.318 42.8069 19.8954C42.8069 20.0603 42.7904 20.2913 42.7574 20.5882C43.5658 20.2748 44.5144 19.4417 45.6032 18.089C45.8011 17.858 46.0238 17.7425 46.2713 17.7425C46.4857 17.7425 46.6507 17.8415 46.7662 18.0395C46.8982 18.2374 46.9641 18.5096 46.9641 18.8561C46.9641 19.4829 46.8074 19.9943 46.494 20.3903C45.6691 21.4131 44.8773 22.1142 44.1184 22.4936C43.3761 22.8566 42.4522 23.0545 41.3469 23.0875C40.6871 23.6484 39.9035 23.9289 38.9961 23.9289ZM58.6875 17.7425C58.9019 17.7425 59.0669 17.8415 59.1824 18.0395C59.3144 18.2374 59.3804 18.5096 59.3804 18.8561C59.3804 19.5159 59.2236 20.0273 58.9102 20.3903C58.1513 21.2646 57.3677 21.9822 56.5594 22.5431C55.7675 23.104 54.8602 23.3845 53.8374 23.3845C52.996 23.3845 52.3609 23.1453 51.932 22.6669C51.5031 22.1719 51.2886 21.4626 51.2886 20.5387C51.2886 20.0768 51.4041 19.252 51.635 18.0642C51.8495 17.0249 51.9567 16.3073 51.9567 15.9114C51.9567 15.6474 51.866 15.5154 51.6845 15.5154C51.4701 15.5154 51.1649 15.7959 50.7689 16.3568C50.373 16.9012 49.9771 17.627 49.5812 18.5344C49.1852 19.4417 48.8636 20.3985 48.6161 21.4048C48.3027 22.7246 47.5273 23.3845 46.29 23.3845C45.7951 23.3845 45.4652 23.2113 45.3002 22.8648C45.1517 22.5019 45.0775 21.8585 45.0775 20.9347C45.0775 20.4068 45.0858 19.9861 45.1022 19.6727L45.127 17.693C45.127 15.1525 45.3827 12.5047 45.8941 9.74975C46.422 6.99476 47.1891 4.68518 48.1954 2.82103C49.2182 0.940377 50.439 5.09217e-05 51.8577 5.09217e-05C52.6166 5.09217e-05 53.227 0.32999 53.6889 0.989868C54.1673 1.63325 54.4065 2.47459 54.4065 3.5139C54.4065 5.18009 53.9199 6.91227 52.9465 8.71044C51.9732 10.4921 50.3895 12.579 48.1954 14.971C48.1459 15.8289 48.1212 16.7115 48.1212 17.6188C48.6656 16.2165 49.2677 15.0783 49.9276 14.2039C50.604 13.3131 51.2639 12.678 51.9072 12.2985C52.5671 11.9191 53.1693 11.7294 53.7137 11.7294C54.786 11.7294 55.3221 12.2655 55.3221 13.3378C55.3221 13.9812 55.1406 15.1442 54.7777 16.8269C54.4643 18.2622 54.3075 19.2107 54.3075 19.6727C54.3075 20.3325 54.5467 20.6625 55.0252 20.6625C55.3551 20.6625 55.7428 20.4645 56.1882 20.0686C56.6501 19.6562 57.2605 18.9963 58.0194 18.089C58.2173 17.858 58.44 17.7425 58.6875 17.7425ZM51.3381 2.44985C51.0411 2.44985 50.7112 2.87877 50.3483 3.73661C49.9853 4.57795 49.6307 5.72449 49.2842 7.17622C48.9543 8.61146 48.6821 10.1787 48.4676 11.8779C49.4904 10.6736 50.3318 9.36207 50.9917 7.94333C51.668 6.52459 52.0062 5.23783 52.0062 4.08304C52.0062 3.55514 51.9485 3.15097 51.833 2.87052C51.7175 2.59007 51.5526 2.44985 51.3381 2.44985Z" fill="#00B7FB"/>
<path d="M77.6661 7.42368C77.6661 8.82592 77.1711 10.0384 76.1813 11.0613C75.1915 12.0676 73.748 12.7934 71.8509 13.2388C72.8737 13.5193 73.6491 13.9812 74.177 14.6246C74.7049 15.2515 74.9688 15.9773 74.9688 16.8022C74.9688 18.1054 74.5564 19.2355 73.7315 20.1923C72.9232 21.1491 71.7354 21.8915 70.1682 22.4194C68.601 22.9308 66.7121 23.1865 64.5015 23.1865C63.6766 23.1865 63.0168 23.1618 62.5219 23.1123C62.5054 23.5742 62.3074 23.9206 61.928 24.1516C61.5485 24.3825 61.0619 24.498 60.468 24.498C59.8741 24.498 59.4617 24.366 59.2307 24.1021C59.0163 23.8381 58.9255 23.4505 58.9585 22.9391C59.107 20.6295 59.3957 18.2127 59.8246 15.6886C60.2535 13.1481 60.7979 10.6983 61.4578 8.33926C61.5733 7.92683 61.8042 7.63814 62.1507 7.47317C62.4971 7.3082 62.9508 7.22571 63.5117 7.22571C64.518 7.22571 65.0211 7.50616 65.0211 8.06706C65.0211 8.29801 64.9717 8.56197 64.8727 8.85891C64.4438 10.1457 64.0148 11.8943 63.5859 14.1049C63.157 16.299 62.8518 18.3941 62.6703 20.3903C63.4622 20.4563 64.1056 20.4893 64.6005 20.4893C66.91 20.4893 68.601 20.1593 69.6733 19.4994C70.7621 18.8231 71.3065 17.9652 71.3065 16.9259C71.3065 16.2001 70.993 15.5897 70.3662 15.0948C69.7558 14.5998 68.7247 14.3276 67.273 14.2782C66.943 14.2617 66.7121 14.1792 66.5801 14.0307C66.4481 13.8822 66.3821 13.643 66.3821 13.3131C66.3821 12.8347 66.4811 12.447 66.6791 12.1501C66.8771 11.8531 67.24 11.6964 67.7679 11.6799C68.9392 11.6469 69.995 11.4737 70.9353 11.1602C71.8921 10.8468 72.6427 10.4096 73.1871 9.84873C73.7315 9.27133 74.0037 8.60321 74.0037 7.84435C74.0037 6.88753 73.5336 6.13691 72.5932 5.59251C71.6529 5.03162 70.2094 4.75117 68.2628 4.75117C66.4976 4.75117 64.7902 4.98213 63.1405 5.44404C61.4908 5.88946 60.0886 6.45861 58.9338 7.15148C58.4059 7.46492 57.9605 7.62164 57.5975 7.62164C57.3006 7.62164 57.0696 7.52266 56.9047 7.32469C56.7562 7.11023 56.6819 6.84628 56.6819 6.53284C56.6819 6.12042 56.7644 5.76573 56.9294 5.46879C57.1109 5.17184 57.5315 4.83366 58.1914 4.45423C59.5772 3.66237 61.2021 3.04374 63.0663 2.59832C64.9304 2.1529 66.8358 1.93019 68.7825 1.93019C71.7684 1.93019 73.9955 2.43335 75.4637 3.43966C76.9319 4.44598 77.6661 5.77398 77.6661 7.42368ZM88.0094 17.7425C88.2239 17.7425 88.3889 17.8415 88.5044 18.0395C88.6363 18.2374 88.7023 18.5096 88.7023 18.8561C88.7023 19.5159 88.5456 20.0273 88.2322 20.3903C87.6218 21.1326 86.7557 21.8173 85.6339 22.4441C84.5286 23.071 83.3408 23.3845 82.0705 23.3845C80.3384 23.3845 78.9939 22.9143 78.037 21.974C77.0802 21.0337 76.6018 19.7469 76.6018 18.1137C76.6018 16.9754 76.841 15.9196 77.3194 14.9463C77.7978 13.9565 78.4577 13.1729 79.2991 12.5955C80.1569 12.0181 81.122 11.7294 82.1943 11.7294C83.1511 11.7294 83.9182 12.0181 84.4956 12.5955C85.073 13.1564 85.3617 13.9235 85.3617 14.8968C85.3617 16.0351 84.9493 17.0166 84.1244 17.8415C83.3161 18.6498 81.9386 19.2932 79.9919 19.7716C80.4044 20.5305 81.188 20.9099 82.3427 20.9099C83.0851 20.9099 83.9265 20.6542 84.8668 20.1428C85.8236 19.6149 86.6484 18.9303 87.3413 18.089C87.5393 17.858 87.762 17.7425 88.0094 17.7425ZM81.7736 14.1544C81.1632 14.1544 80.6436 14.5091 80.2146 15.2185C79.8022 15.9279 79.596 16.7857 79.596 17.792V17.8415C80.5693 17.6105 81.3364 17.2641 81.8973 16.8022C82.4582 16.3403 82.7387 15.8041 82.7387 15.1937C82.7387 14.8803 82.6479 14.6328 82.4665 14.4514C82.3015 14.2534 82.0705 14.1544 81.7736 14.1544ZM95.5464 18.4849C95.7608 18.4849 95.9258 18.5839 96.0413 18.7818C96.1732 18.9798 96.2392 19.252 96.2392 19.5984C96.2392 20.1923 96.099 20.7037 95.8186 21.1326C95.3566 21.842 94.7463 22.3947 93.9874 22.7906C93.245 23.1865 92.3542 23.3845 91.3149 23.3845C89.7312 23.3845 88.5022 22.9143 87.6278 21.974C86.7535 21.0172 86.3163 19.7304 86.3163 18.1137C86.3163 16.9754 86.5555 15.9196 87.0339 14.9463C87.5123 13.9565 88.1722 13.1729 89.0136 12.5955C89.8714 12.0181 90.8365 11.7294 91.9088 11.7294C92.8656 11.7294 93.6327 12.0181 94.2101 12.5955C94.7875 13.1564 95.0762 13.9235 95.0762 14.8968C95.0762 16.0351 94.6638 17.0166 93.8389 17.8415C93.0306 18.6498 91.6448 19.2932 89.6817 19.7716C90.0776 20.5305 90.7457 20.9099 91.6861 20.9099C92.3624 20.9099 92.9151 20.7532 93.344 20.4398C93.7894 20.1263 94.3008 19.5984 94.8782 18.8561C95.0762 18.6086 95.2989 18.4849 95.5464 18.4849ZM91.4881 14.1544C90.8777 14.1544 90.3581 14.5091 89.9291 15.2185C89.5167 15.9279 89.3105 16.7857 89.3105 17.792V17.8415C90.2838 17.6105 91.0509 17.2641 91.6118 16.8022C92.1727 16.3403 92.4532 15.8041 92.4532 15.1937C92.4532 14.8803 92.3624 14.6328 92.181 14.4514C92.016 14.2534 91.7851 14.1544 91.4881 14.1544Z" fill="#D65144"/>
</svg>
