<svg width="68" height="68" viewBox="0 0 68 68" fill="none" xmlns="http://www.w3.org/2000/svg">
<g clip-path="url(#clip0_453_32303)">
<g clip-path="url(#clip1_453_32303)">
<g clip-path="url(#clip2_453_32303)">
<g clip-path="url(#clip3_453_32303)">
<path fill-rule="evenodd" clip-rule="evenodd" d="M50.7206 16.3469L49.8727 18.0591L48.0501 18.3175C47.0478 18.4596 46.2119 18.5916 46.1928 18.6108C46.1736 18.6298 46.7605 19.2401 47.4967 19.967L48.8355 21.2884L48.5189 23.1362C48.3447 24.1524 48.2123 24.9943 48.2245 25.0069C48.2367 25.0196 48.9968 24.6361 49.9135 24.1548L51.5801 23.2797L52.0597 23.529C52.3236 23.6662 53.075 24.0586 53.7298 24.4008C54.6899 24.9025 54.9201 25.0007 54.9198 24.9081C54.9194 24.845 54.7909 24.056 54.634 23.1549C54.4771 22.2537 54.3488 21.4567 54.3488 21.384C54.3488 21.2952 54.7889 20.823 55.6845 19.9507C56.419 19.2352 57.0071 18.6368 56.9909 18.6206C56.9749 18.6047 56.1249 18.469 55.1022 18.3191C53.7718 18.1242 53.2346 18.0221 53.214 17.9597C53.1982 17.9119 52.8217 17.1442 52.3771 16.2537L51.5687 14.6346L50.7206 16.3469ZM11.9511 27.507C11.9671 27.5511 13.2626 32.2941 14.8302 38.0474L17.6803 48.5076L21.4908 48.507L25.3012 48.5061L26.4327 43.755C27.4718 39.3923 27.8461 37.6183 28.4484 34.2061C28.5953 33.3732 28.6835 33.0156 28.7417 33.0156C28.7876 33.0156 28.825 33.0467 28.825 33.0846C28.825 33.1225 28.8981 33.6296 28.9875 34.2115C29.3591 36.6309 29.8412 38.9412 30.9443 43.587L32.1051 48.4759L35.9818 48.4922L39.8585 48.5087L39.9923 48.016C40.0659 47.7452 41.3657 43.0092 42.8806 37.4918L45.6351 27.46L42.1723 27.4436C40.2678 27.4346 38.6958 27.4411 38.6788 27.4579C38.6108 27.5261 36.6297 36.2874 36.4819 37.1743C36.3065 38.2259 36.1176 39.7154 35.9503 41.3648C35.815 42.6981 35.755 42.6981 35.5768 41.3651C35.3193 39.4398 35.1146 38.3835 33.2812 29.5234L32.8541 27.46L28.8396 27.4436C26.6316 27.4346 24.825 27.4428 24.825 27.4615C24.825 27.4804 24.3844 29.4163 23.8457 31.7637C22.6402 37.0177 22.1577 39.4784 21.9695 41.333C21.8296 42.7118 21.7572 42.8466 21.688 41.8567C21.5197 39.4487 21.1428 37.244 19.8836 31.3013L19.0697 27.46L15.4959 27.4436C12.6457 27.4305 11.928 27.4433 11.9511 27.507Z" fill="#FCFBFB"/>
<path fill-rule="evenodd" clip-rule="evenodd" d="M31.6829 0.0389389C24.7935 0.631559 18.9079 2.81589 13.6512 6.73133C2.72954 14.8662 -2.28597 28.8346 0.955253 42.09C5.18349 59.3834 22.0429 70.4767 39.6512 67.5517C53.8763 65.1887 65.1894 53.8756 67.5524 39.6505C68.3026 35.1346 68.1251 30.3248 67.0455 25.9094C63.6596 12.0613 52.1844 1.95212 37.8417 0.182079C36.8423 0.058659 32.5994 -0.0397711 31.6829 0.0389389ZM52.4404 16.3401C53.1141 17.7252 53.2804 18.0197 53.4052 18.0487C53.4881 18.0679 54.3346 18.1927 55.2861 18.3257C56.2636 18.4624 57.0172 18.596 57.0182 18.6329C57.0194 18.6687 56.4167 19.2838 55.6791 19.9997L54.3378 21.3012L54.6302 23.0155C54.791 23.9585 54.937 24.7942 54.9547 24.8727C55.0052 25.0968 54.9318 25.0667 53.2102 24.1606L51.5945 23.3102L50.5118 23.8801C48.8164 24.7724 48.2623 25.0446 48.2226 25.0048C48.2022 24.9846 48.3293 24.1431 48.5049 23.1346L48.824 21.3012L47.4916 19.9941C46.7587 19.275 46.1591 18.6585 46.1591 18.624C46.1591 18.5895 46.9377 18.4535 47.8892 18.3218C48.8409 18.19 49.6788 18.069 49.7514 18.0527C49.8524 18.03 50.0754 17.6275 50.6978 16.3447C51.1457 15.4216 51.5379 14.6664 51.5694 14.6664C51.6008 14.6664 51.9928 15.4195 52.4404 16.3401ZM19.1114 27.4486C19.1114 27.4598 19.5092 29.3527 19.9953 31.6549C20.4815 33.9572 20.9388 36.1707 21.0117 36.574C21.3537 38.4663 21.5518 39.8764 21.6783 41.3233C21.7282 41.894 21.7799 42.3717 21.793 42.3849C21.8061 42.398 21.8527 42.0463 21.8967 41.6033C22.0959 39.5937 22.6155 36.9257 23.8594 31.5235L24.7949 27.4599L28.8351 27.4436L32.8753 27.4273L32.9112 27.5706C32.9737 27.82 34.8395 36.8752 35.0438 37.9206C35.3286 39.3785 35.7464 42.0247 35.7464 42.3713C35.7464 42.4055 35.7604 42.4196 35.7774 42.4026C35.7944 42.3856 35.8663 41.8166 35.9373 41.1381C36.3086 37.5904 36.3836 37.1741 37.6271 31.7652L38.624 27.4283H42.1376C44.0701 27.4283 45.6518 27.4497 45.6527 27.4759C45.6535 27.5021 44.3607 32.2444 42.7797 38.0146L39.9051 48.5058L35.9921 48.5066L32.0789 48.5076L32.0117 48.2379C30.6311 42.7037 29.4175 37.1654 28.9866 34.4339C28.8677 33.6818 28.7571 33.0526 28.7402 33.0359C28.7033 32.9991 28.6428 33.2991 28.3472 34.9838C27.8414 37.8656 27.5681 39.1456 26.5029 43.6188C25.8915 46.1854 25.3764 48.3356 25.3582 48.397C25.3268 48.502 25.1012 48.5076 21.4794 48.4922L17.6338 48.4759L14.7637 37.952L11.8936 27.4283H15.5025C17.4874 27.4283 19.1114 27.4373 19.1114 27.4486Z" fill="#FB6434"/>
<path fill-rule="evenodd" clip-rule="evenodd" d="M56.663 19.0001L56.4766 19.2064L56.6829 19.02C56.7963 18.9173 56.8893 18.8245 56.8893 18.8136C56.8893 18.7644 56.8368 18.8076 56.663 19.0001Z" fill="#FC9D7E"/>
<path fill-rule="evenodd" clip-rule="evenodd" d="M54.6329 20.9679L54.3177 21.3011L54.6511 20.9861C54.9609 20.6933 55.0136 20.6345 54.9663 20.6345C54.9563 20.6345 54.8062 20.7845 54.6329 20.9679Z" fill="#FCB49E"/>
<path fill-rule="evenodd" clip-rule="evenodd" d="M56.0938 19.5707L55.7148 19.9675L56.1116 19.5886C56.3299 19.3801 56.5086 19.2016 56.5086 19.1918C56.5086 19.1449 56.4458 19.2021 56.0938 19.5707Z" fill="#FC8C64"/>
</g>
</g>
</g>
</g>
<defs>
<clipPath id="clip0_453_32303">
<rect width="68" height="68" fill="white"/>
</clipPath>
<clipPath id="clip1_453_32303">
<rect width="68" height="68" fill="white"/>
</clipPath>
<clipPath id="clip2_453_32303">
<rect width="68" height="68" fill="white"/>
</clipPath>
<clipPath id="clip3_453_32303">
<rect width="68" height="68" fill="white"/>
</clipPath>
</defs>
</svg>
